<svg xmlns="http://www.w3.org/2000/svg" viewBox="0 0 33.24 33.24"><defs><style>.cls-1{fill:#e85a1e;}</style></defs><title>facebook</title><g id="Layer_2" data-name="Layer 2"><g id="Layer_1-2" data-name="Layer 1"><path class="cls-1" d="M16.61,0A16.62,16.62,0,1,1,0,16.64,16.66,16.66,0,0,1,16.61,0ZM12.42,13.52v3.12h1.87v9H18v-9h2.18c.25,0,.34-.07.34-.33s.08-.71.12-1.07c.06-.56.11-1.12.17-1.73H18V12.12a3.65,3.65,0,0,1,0-.47c.05-.66.32-.92,1-1h1.79V7.59c-.83,0-1.65,0-2.47,0a7.69,7.69,0,0,0-1.26.13,3,3,0,0,0-2.7,2.9c-.07.83,0,1.66-.08,2.49v.41Z"/></g></g></svg>