<svg xmlns="http://www.w3.org/2000/svg" viewBox="0 0 845.07 477.99"><defs><style>.cls-1{isolation:isolate;}.cls-2{mix-blend-mode:multiply;}.cls-3{fill:#f65a25;}</style></defs><title>bubble</title><g class="cls-1"><g id="Layer_2" data-name="Layer 2"><g id="Layer_1-2" data-name="Layer 1"><g class="cls-2"><path class="cls-3" d="M770.06,187.84c1.07-.36.53-1.39-2.32-1.29l-2.06,1.58Z"/><path class="cls-3" d="M750.9,185c-3.33,1.1-7,2.91-4.67,4.2,3.1-1.9,3.94-1.38,7.39-3.43a10.63,10.63,0,0,1,3.51.08c.84.22,1.26.55,1,.86,1-.42,4.41.29,6-.71a19.13,19.13,0,0,0-6.24-1,28.25,28.25,0,0,0-7.09,1.1C749.69,185.78,750.67,185.27,750.9,185Z"/><path class="cls-3" d="M574.86,378.26l1-1.47A10.88,10.88,0,0,0,574.86,378.26Z"/><path class="cls-3" d="M432,463.41c1.3-.22,1.81-.5,1.86-.65C432.69,463.08,431.71,463.31,432,463.41Z"/><path class="cls-3" d="M402.5,465l1.74,0A3.82,3.82,0,0,0,402.5,465Z"/><path class="cls-3" d="M574.86,378.26l-1.33,1.88c-.44.63-.95,1.21-1.43,1.81.15.28.55-.16,1.08-.91S574.25,379.21,574.86,378.26Z"/><path class="cls-3" d="M714.22,196.4a13.79,13.79,0,0,0,2.22-1.17c-.73.31-1.43.59-2.16.87A1.14,1.14,0,0,1,714.22,196.4Z"/><path class="cls-3" d="M597.77,305.58l.43-1.37a7.71,7.71,0,0,0-.28-1.35Z"/><path class="cls-3" d="M624.52,251.81c-.88,1.05,0,2.26.16,3a5.57,5.57,0,0,1,1-2.93C625.48,251.73,625.12,251.68,624.52,251.81Z"/><path class="cls-3" d="M699.93,195.68l1.48-.81C701,195.09,700.37,195.42,699.93,195.68Z"/><path class="cls-3" d="M586.33,346.29a1.15,1.15,0,0,0-.64.36C585.86,346.7,586.08,346.55,586.33,346.29Z"/><path class="cls-3" d="M728.38,119.47c-.1,0-.08.14-.15.2C728.6,119.76,728.74,119.75,728.38,119.47Z"/><path class="cls-3" d="M773.34,172.28l-.66-.69a2.38,2.38,0,0,0-.74.33Z"/><path class="cls-3" d="M348.33,465.44l.24,0C350,465.29,349.19,465.33,348.33,465.44Z"/><path class="cls-3" d="M12.34,209.4c-1.12,5.64-1.84-9.07-3-.59C9.82,208,11.74,216.4,12.34,209.4Z"/><path class="cls-3" d="M712.74,196.68c-.73.28-1.47.56-2.22.82A19,19,0,0,0,712.74,196.68Z"/><path class="cls-3" d="M9.31,208.81h0l-.11.88C9.24,209.32,9.27,209.12,9.31,208.81Z"/><path class="cls-3" d="M223.87,460a4,4,0,0,0,1.17.8C225,460.69,224.76,460.47,223.87,460Z"/><path class="cls-3" d="M316.4,468.37l-2.31-.22A21.23,21.23,0,0,0,316.4,468.37Z"/><path class="cls-3" d="M176.38,452.54a13.64,13.64,0,0,0-3.22-1,3.66,3.66,0,0,0,.46.31A6.46,6.46,0,0,1,176.38,452.54Z"/><path class="cls-3" d="M129.1,436.41c.2.2.49.41.73.62l1.49.54Z"/><path class="cls-3" d="M590.74,47.88a7.78,7.78,0,0,1,1.79,2C592.13,48.66,599.32,50.84,590.74,47.88Z"/><path class="cls-3" d="M714,195.65a2,2,0,0,1-1.21,1l1.54-.58C714.35,195.86,714.32,195.66,714,195.65Z"/><path class="cls-3" d="M171.53,462.71l-7.82-2.44C165.87,461,168.72,461.91,171.53,462.71Z"/><path class="cls-3" d="M230.49,1.05l1.85-.2A5.41,5.41,0,0,0,230.49,1.05Z"/><path class="cls-3" d="M140.54,452.83a21.88,21.88,0,0,0-4-2.51,3.86,3.86,0,0,0-1,0Z"/><path class="cls-3" d="M592.54,49.88v0Z"/><path class="cls-3" d="M643.27,67.3c-7-3.38-4.06.07-6,.33-8.65-3.27-3.34-3-5.84-5.11a59.53,59.53,0,0,0-7.65-2,31.85,31.85,0,0,1-6.52-1.78c-.18-.4-.91-.82.14-.8-3.1-.48-7.27-2.23-11.64-3.79s-8.84-3.26-12.51-3.54a2.19,2.19,0,0,1-.72-.74c.77,1.26.61,2.2.16,2.75-3.26-1.13-6.41-1.05-7.23-2.62a5.54,5.54,0,0,0,3.36.32l-3.58-.72c-2.49-2.73,4.85,1.09,5.29-.12-3.44-.89-7.18-1.79-10.74-2.54a54.18,54.18,0,0,1-9.34-2.7c-.55-2,12.19,3.42,5.81-.28,2.58,1.1,5.18,2.13,7.74,3.28-5.18-4.66,4.75,1.87.12-2.8A84.93,84.93,0,0,0,573,40.94c-3-.8-6-1.48-11.21-3.32-2.65.18.37,1.57-2.27,1.75a47.33,47.33,0,0,1-4.91-1.17A25.09,25.09,0,0,1,551.11,37a19.22,19.22,0,0,1-4.22-2.54c-2.2-1.63-3.92-3.16-9.79-3.49-3.18.36-4.81,2.11-12.46-1,1.06-.41,2.12-.83,3.17-1.2-10.35-2.69-6.56,1.23-17.15-2.56,2.11-.34,8.31,1.3,6.79.69-6.71-3.16-5.23-.11-10.66-1.31l-.76-1.9c-2.79-.54-5.67-1.05-8.6-1.5l-9-1.24-4.58-.63-4.63-.57c-3.1-.39-6.21-.82-9.31-1.3.77-.37,3-.51.17-1.55-15.77-1.85-33.41-5.44-48.5-8.26l-6,.78c-1.34-.17-2.43-.95-.93-1.06-5.86-1.24-.41.89-3.32,1.13C408,9.25,407,8.21,409.18,8c-10.6.08-30-.22-40.94-2.56l2.18-.27c-8.56-1.25-9.9,2.34-17.77.43l1.54-.16c-18.62-1.8-39.29-1.24-53.47-3.82C298,3.62,282.25.26,281,3.2,270.37,1.6,273.42,1.09,258.41,0c-4-.15-6,1.81-10.94,2.11L247.35.58l-6.73,1.64L237,.4l-4.67.45c1.87.06,4,.64,3.69,1.09-7.26.73-17.82-.69-18.05-1.45-2.88.3-5.77.71-8.65,1.06s-5.76.8-8.64,1.28c.33-.67,3.23-1.1,5.51-1.64-4.59,1.09-5,.75-5.4.35s-.63-.81-4.83.29c1.17.25-.53,1-.69,1.3a47.6,47.6,0,0,0-9.52.36c-1.92.23-3.93.5-5.9.89s-3.9.71-5.66,1.18l1.18-1.31a152.29,152.29,0,0,0-20.1,4.8l-5.14,1.7c-1.73.56-3.43,1.25-5.16,1.87s-3.44,1.31-5.15,2-3.41,1.42-5.12,2.14c5.09-1.62,4.63.58.77,2.4-.75-.28-1.49-.55-2.23-.8-2.12,2.06,4.33-1.28-.34,2.19-2.52,1-3.55,1-3.62.49s.81-1.55,2.14-2.44c-2,1.08-3.88,2.24-5.79,3.38-.57-.27.72-1.18.82-1.92-1,1-3.77,2-6.62,3.12a40.57,40.57,0,0,0-4.09,1.9,9.5,9.5,0,0,0-2.91,2.37l-.57-.24c-6.36,3.67-10.74,6.65-14.81,9.48s-7.76,5.55-12.54,8.95c.61,1.28-3.31,3.67-5.48,6.62-7.2,4.64-15.62,9.35-23.72,16.12-5.25,5.28-.9,2.3-2.89,5.08-.63-.32-2.9,1.28-4.57,2.46s-2.73,1.92-1-.3A126.21,126.21,0,0,0,36.84,86.48c-.74.86-1.46,1.77-2.22,2.74s-1.56,2-2.38,3.16L31,94.19c-.43.64-.88,1.31-1.34,2-1,1.39-1.87,3-2.91,4.76,1.43-1.17,2.72-2.67,2.5-1.57-1.46,2.53-4.18,5.22-4.47,4.55l.33-.72c-1,2-2.08,4.18-3.3,6.27-.62,1-1.14,2.15-1.73,3.23s-1.19,2.18-1.81,3.27-1.17,2.22-1.76,3.34l-1.78,3.37c-1.17,2.27-2.21,4.59-3.32,6.86-4.19,9.17-7.1,18.47-7.09,25.8v-.82c-.22,2.49-.48,5-.57,7.46s-.29,5-.3,7.44c-1,6.74-.5-4.18-1.85.75,0,4,.06,7.63-.12,10.94s-.33,6.37-.5,9.34-.37,5.85-.33,8.8c0,1.48,0,3,.11,4.51s.26,3.11.48,4.73C-.58,213.62-.12,222.63.94,232s2.67,19.09,2.51,26l.76-.91c1.4,3.35.14,4.29.36,6.9.6-.48.19-3.91,1-1.82,1.47,7.31,3,14.74,4.48,22.24s3.23,15,5,22.58c3.7,15.07,7.91,30.17,13.68,44.63,2.14,5.27,3.93,6.24,5.57,7.64a11.49,11.49,0,0,1,2.56,3,22,22,0,0,1,1.4,2.8c.52,1.14,1.08,2.52,1.67,4.22l-3.36-2.83c3.08,4.89,6.16,9.83,9.33,14.75s6.59,9.73,10.17,14.41a137.62,137.62,0,0,0,11.7,13.22,95.91,95.91,0,0,0,13.41,10.94c-1.29-.55-1.66-.15-3.36-1.58,1.46,2,5,4.76,8.26,6.81a49.63,49.63,0,0,0,4.41,2.39c1.21.52,2,.75,2.18.56,2.88,2,.2,1.19,1.76,2.79a28.76,28.76,0,0,0,7.14,3.87c2.51,1.1,4.78,2,5.61,3.13.28.38-1.36-.3-2.18-.64,1.5.51,4.69,2.22,7.27,3.44s4.53,2,3.5.7c7.3,4.23,14.84,6,20.74,9.09,2.31,0,5.58,1.43,8.54,2.64.73.3,1.45.59,2.13.84s1.34.41,1.92.54c1.17.26,2.09.28,2.59-.14-.65,1,2.68,2.55,6.83,3.94a62.64,62.64,0,0,0,11.87,2.54c-1.87.17,4.21,1.93,2,2.28,5.84,1.45,11.29,2.33,10.53,1a28.17,28.17,0,0,0,3.86,1.65,38.26,38.26,0,0,0,4,1c2.64.54,5.26.84,7.72,1.13,4.93.52,9.24.87,12,3.14,17.74,1.78,34.09,2.74,50,3.45-.37,1.08-4.76.87-9,.51s-8.3-.66-8.08.55c3.78.14,7.18.18,10.36.19l9.15-.18c1.49,0,3,0,4.48,0s3,0,4.61,0c3.15.05,6.49.25,10.21.56s-2.24.9-3.57,1.18c15.07-.19,29.08,1.25,42.45.11,0,.21-1.48.42-2.85.58,2.64,0,6.13.37,5.83-.66l-2.56.28c-4.19-1.49,10.44-3.11,10.9-3.9-2.22,1.47,1.07,1.66,4,1.92s5.61.61,2.08,2.5c1.73-.21,3.89-.72,3.49-1.4,2.57.18,3.39.57.79,1.37,9.41-.64,6.05-1.71,14.58-1.82,0,.5-1.74.72-2.62,1.32a53.21,53.21,0,0,1,15.85-1.9c-.43.31.42.67-1.73.73,12.41-.55,21-3.34,34.62-3.5-3.83,2.49,4.68.33,5.57,2.11l7.27-1.31-3-.59a72.76,72.76,0,0,0,9-1.62,51,51,0,0,1,8.39-1.3l-4.63,1.45c4-.71,7.94-1.35,11.88-2.19-2.28.15-4.56.31-6.85.38,3.15-.94,2.87-1.51,2.89-1.92s.31-.69,4.55-1.15c-.83.24.74,0,3-.29a32.41,32.41,0,0,1,6.82-.42h0c1.51-.58,3-1.23,4.73-1.81a33.64,33.64,0,0,1,6-1.38c1.34.27-.47,2.26.41,2.44,1.33-1.17,5-2.18,8.67-3.35s7.48-2.44,9.09-3.91c-1.13.79-.9,1.74-.42,1.8l2.11-2.05c2.95-.56,3.44-.52,3.23.38,2.16-.64,3-1.15,3.23-1.43s-.14-.45-.46-.59c-.64-.29-1.06-.55,4.1-2-.74.39-.3.43-1.86,1.23,10.26-3.31,18.76-8.77,27.65-13,3.49.28-7.41,4.46-3.72,4.29,1.57-.88,3.13-1.78,4.7-2.71l4.58-3c3.08-2,6-4.32,8.93-6.48,1.48-1.09,2.86-2.31,4.29-3.43s2.87-2.22,4.23-3.4,2.74-2.31,4.11-3.42c.68-.56,1.38-1.08,2-1.64l2-1.68-2.06,1.54c-.14-1.65,2-3.07,4.7-4.81a37.84,37.84,0,0,0,4.22-3,19.41,19.41,0,0,0,3.72-3.86c-1.06,1.34-.55,2.6-.42,2.07.44-.4.89-.79,1.32-1.21l1.24-1.31c.82-.89,1.65-1.8,2.47-2.74s1.68-1.88,2.45-2.93,1.56-2.13,2.38-3.23,1.62-2.25,2.45-3.45l2.39-3.82c.81-1.33,1.71-2.65,2.52-4.11l2.5-4.54-.37,1.86c.87-1.1,1.83-2.41,2.81-3.86s1.82-3.1,2.75-4.74l1.38-2.45c.46-.81.82-1.66,1.23-2.46.79-1.62,1.55-3.16,2.27-4.5a8.54,8.54,0,0,1,.3-1.56c.11-.54.24-1.07.31-1.49.15-.83.07-1.22-.78-.45a48.57,48.57,0,0,0,6-12.3,104,104,0,0,0,3.19-12.64c1.67-8.35,3-16.48,6.64-23.84-.5,1.86-.62,4.58-.22,3.11,1-4.48,2-8.91,3.14-13.32-1.44.69-1.19,1.51-2.87,4a17.78,17.78,0,0,1,.27-4,37.31,37.31,0,0,1,1.23-5c-1.16,6.13,1.76.49,3.24-1.77-.48.31-.55-.68-1-.59,2.18-3,1.77-3.46,1.36-4.29a2.69,2.69,0,0,1-.23-1.84,12.85,12.85,0,0,1,2-4.43l.35.72c1.1-3.5,1.86-6.89,3.74-10.38,1.91-.88-1.14,3.79-.24,4.49a31.55,31.55,0,0,0,1.41-3.88l1.25-3.91a16.15,16.15,0,0,1,3.77-6.81c-.87,2.22-2.6,5.13-3.32,7.41a43.32,43.32,0,0,0,3.75-4.28c.79-1.09,1.32-2.12,2.47-3.77l-.24.31c1.89-2.46,3.66-5,5.66-7.35L625.38,263a16.32,16.32,0,0,1,1.67-5.21,30.86,30.86,0,0,1,3.06-4.63c1.12-1.54,2.42-3,3.66-4.74.63-.84,1.23-1.74,1.83-2.68a31.09,31.09,0,0,0,1.78-3c-2.22,4.11-2.15,4.63-1.56,4.25s1.85-1.54,2.19-.79c1.88-1.49,4.59-3.85,4.23-2.8a15.47,15.47,0,0,1,4-4.48,19.8,19.8,0,0,0,4.83-5.6c.53.17,3.5-3.08,3.58-1.51,3.93-4-1.55.25-1.61-.51a24.64,24.64,0,0,1,2.28-2.58,31.92,31.92,0,0,1,2.8-2.4c1-.77,2-1.57,3.15-2.32l3.45-2.27,1.78-1.17,1.84-1.15q1.85-1.17,3.69-2.47a69.51,69.51,0,0,0,7.36-5.63c1.1-.8,2.08-1.54,3-2.23s1.72-1.28,2.47-1.86c1.51-1.16,2.73-2.26,4-3.22s2.51-2,4-3,3.26-2.09,5.51-3.35c1.75-.34,1.26.34.37,1.13a23.52,23.52,0,0,1-2.21,1.66c1.34-.4,2.56-.85,3.74-1.26s2.3-.82,3.4-1.28c2.18-.95,4.33-1.87,6.68-3-.85.77.3.73,2,.71a8.32,8.32,0,0,0,3.2-1.91,5.38,5.38,0,0,1,1.43-.84,10.89,10.89,0,0,1,3-.71c-.38.39-.8.86-1.34,1.39a12.58,12.58,0,0,1-2.06,1.68c4.49-1.91,8.93-4,13.81-5.52,1.48.53-2.71,1.95-4.3,2.88,5.38-1.8,14.21-3.64,15.79-5.16l-3.71,0c2.07-.36,1.24,1-.23,1.45-4.6,1.93-7,.81-7.38.43,1.15-.38,2.33-.67,3.5-1a6.79,6.79,0,0,0-4.13-.35,35.93,35.93,0,0,0-5.48,1.55l-5.9,2.43a49,49,0,0,1-5.59,2.17l2.27-2.91-3.33,2-3.26,2.09c-1.68,0-3.14-.67.19-2.21-5.37.84-4.13,2.34-8.79,3-.54,0-.37-.15,0-.41-1.54.82-3,1.78-4.51,2.67.75-.82-1.4-1,1.65-2a33.23,33.23,0,0,0-5.92,2.42c-1.69.92-3.13,1.85-4.42,2.69-2.54,1.73-4.39,3.14-6.33,3.3l.62-.49c-5.45,3.59-5.47,4.13-5.13,4.5.17.2.45.37.23.91a13.09,13.09,0,0,1-2.69,3.13l-3.76.21c-1.26.09-2.49.23-3.76.35l-.15,2a23.56,23.56,0,0,1-2.09,1.26c-.68.37-1.22.56-1.21.17-3.31,3.87,1.07,0-.62,2.56-3,1.36-6.3,4.32-9.16,6.82s-5.24,4.62-6.58,4.28c-.86,2.43,5-3.61.66,1.72-1.59-.25-3,1.18-4.51,3.17a30.58,30.58,0,0,1-5.6,6.23c.16-2.28,4.55-5.89-.37-2.36a7,7,0,0,1-1.58,3.13,42.77,42.77,0,0,1-3,3.15l-3.37,3.21a21.38,21.38,0,0,0-2.66,3.25c1.26,1.23-5.86,9.18-9.54,16.75-.1-.37-2.41,2.83-4.9,7.16s-5.3,9.69-7.1,13.19l-.19-.33a4.23,4.23,0,0,1,.08,2.44,27.43,27.43,0,0,1-.93,3.78c-.43,1.4-1,2.91-1.39,4.44s-.93,3.05-1.27,4.47c-1-.54-1.11-1.68-.53-4.86-.61,1.75-1.16,3.5-1.71,5.26.16,1.41,0,3.14-.81,6.61l-.94-1.7c-2,7.06-2.28,14.58-5.51,23.33,1.1.84,5.32-6.26,3.65,3.48-.76.18-2,.22-1.62-2.34a15.67,15.67,0,0,1-.94,4.61l-.11-4.08c-1.57,3.95.37,2.38-.62,5.62-.92-.33-1.34,2.22-2,1.54.15-.85,1.17-2.73,1.14-4.07-1.15,3.63-3,7.86-4.14,9.08.62-.16,1.28.38.59,3.07-2.13,6.82-1.87,2-3.68,5.71.12,1.87-2.17,5.81-.84,6.46a4.85,4.85,0,0,1-2.24,2.59c-.4,1.81-2.21,5.66-3.45,8.72-1.44,3-2.33,5.13-.64,3.7l.54-.78c-.05.17-.15.35-.23.56v0q-.86,2.12-1.87,4.2c-.69,1.38-1.54,2.68-2.36,4s-1.7,2.63-2.6,3.91l-2.93,3.7L565.14,394l-.73.91-.79.87-3.11,3.49L559,401c-.5.58-1,1.12-1.55,1.69q-1.55,1.68-3,3.42l-.34-.35a49.13,49.13,0,0,1-3.7,4.19c-1.33,1.38-2.62,2.82-4,4.11s-2.64,2.55-3.8,3.75c-.58.6-1.11,1.19-1.62,1.75s-1,1.06-1.42,1.57c-1.68,1.33-4.49,2.42-4.14,1.39-2,1.88-3.16,2.88-4.58,4a36.06,36.06,0,0,1-6.73,4.18c2.07-1.86,1.56-1.76,1.34-1.69s-.15.05.23-.18,1.2-.73,2.73-1.81l-2.06,1.27c-.66.34-1.25.66-1.81,1-1.13.6-2.1,1.12-3.06,1.69s-1.88,1.24-3,2-2.3,1.71-3.77,3c.8-1.21-.55-.87-2.43,0a44,44,0,0,0-5.77,3.11l4.81-1.52c-1.63,1-3.2,1.82-4.73,2.61-.76.39-1.51.79-2.28,1.14l-2.31,1,.9-2.28a71.19,71.19,0,0,0-9.49,4c-1.47.72-2.89,1.48-4.28,2.25s-2.78,1.43-4.14,2.14-2.7,1.39-4,2-2.72,1.12-4.08,1.58a29.17,29.17,0,0,1-4.12,1.1,25.16,25.16,0,0,1-4.26.34c-3.35,2.21,7.79-1.46,4.91.82a48.13,48.13,0,0,1-9.62,1.35,49,49,0,0,0-6.24.37,20.19,20.19,0,0,0-8.48,2.77,21.84,21.84,0,0,1-8.87,2.78c1.32.37,2.78,1.73-4.28,3.51-3.35.49-5.52.12-6.3-.41s-.21-1.32,1.85-1.87c1.59-.27,2.38-.24,2.35,0,2.1-.58,4.86-1.32,2.14-1.5l-.76.73c-1.69,0-4.82.33-7.27.5s-4.23.21-3.22-.43c-4.95,1.18-2,1.28,1.74,1-8.64.31-13.36,1.68-22.27,1.88,1.44.21,2.8.79,1.4.9-6.53.2-7.95.56-8.83,1s-1.23,1-5.65,1.45c-5.09-.63,1.68-2.25-7.19-1-5.47-.36-1.22-1.5.9-2.11-8,1.56-15.18-.13-19.81-.21l4.26-.61a50.89,50.89,0,0,1-6.78.46L365,466c-2.52-.15-4.65-.1-4.61-.6-2.58.84,2,1.93-3.1,3.11-3.38-.55-10.24.82-11.42-.76,10.58.4-1.19-1.55,7.75-1.95a31.88,31.88,0,0,1-6.35.07c-.39-.17.35-.33,1-.43-10.12-1.31-4.63,1.85-15.11,1.88,1.32-.89-2.44-1.69-4.14-1.49,4.21,0,2,1.47-1.86,2.16-6.71-.68-7.3.49-10.82.38l4,.36c-1.36.88-4.73.72-9.42.95-.39-.69,4.26-.43,2.6-.75-5.24,1.54-11.72-1.83-19-.95-3.33-.73-.27-1.68-3.19-2.2-8.15.82-8.71-1.52-17.24-1.08,2.37,1.33,2.83,1.07-3.23,1.89,4.68,0,9.35,0,14-.11-3,.49-6,.88-9.07,1.29,2.11.12,4.35.08,6.38,0a37.26,37.26,0,0,1,5.1,0c-4.32.8-3.87.52-1.89,1.59a15.09,15.09,0,0,0-4.32-.79,40.91,40.91,0,0,0-4.42.06,30.9,30.9,0,0,1-9.43-.41l.4-2.93c-5-1.05-9.42-1-14.27-1-2.43,0-4.95,0-7.67-.15-1.36-.06-2.77-.16-4.24-.3s-3-.4-4.61-.69l4.1,1c-1.87,1-8-.82-12.26-.86.51-.91-2.05-1.64-3.73-2.52.11.75-9.39-1.46-10.88.27l-5.5-2.3a34.31,34.31,0,0,0-6.39-.94,46,46,0,0,0-4.82,0,47.38,47.38,0,0,1-4.77,0,27.29,27.29,0,0,1-6.18-1c1.6-.16,1.32-.68,1.49-1.06s.78-.59,4.17-.27c-3.31-.67-6.18-1.62-6.4-1-.88-.54-3.22-.77-5.7-1.08s-5.09-.69-6.44-1.59c-1.48,0-2.21.9-5.84-.22-.34-.31.15-.47.15-.47-.14.47-5.9-1-3,1a50.15,50.15,0,0,0-8.29-4c-3.13-1.22-6.59-2.21-9.92-3.45s-6.66-2.32-9.6-3.55c-1.46-.64-2.83-1.3-4-2a23.37,23.37,0,0,1-3.22-2.15,177.17,177.17,0,0,1-20.8-9.31c.52-.06.26-.42,1.31.27a19.55,19.55,0,0,0-4.29-2.36,10.77,10.77,0,0,0-2.75-.55c-1.67-.24-3.58-.5-7.67-3.83-1.77-2.16-.51-1.53.91-.72s3,1.87,1.75.71c.14-.88-.46-1.72-1.5-2.57a32.25,32.25,0,0,0-4.14-2.74c-3.22-2-7.11-4.38-9.1-7.38l1.4.93c-1.68-2.11-4.29-4-7.2-6.15-1.45-1.11-3-2.27-4.5-3.63-.75-.67-1.51-1.37-2.26-2.1s-1.44-1.55-2.13-2.38c0,0,.49.13.4-.29-.64-.41-1.33-.91-2.05-1.46s-1.42-1.23-2.17-1.92a58.43,58.43,0,0,1-4.6-4.76c-1.58-1.72-3-3.64-4.5-5.47s-2.78-3.75-4-5.51c2.46,1.59,2.64,2.88,2.85.85-2.16-3.09-1.19,2.08-5.44-4.23-.32-1.25-1-3.15-1.51-4.88s-.76-3.36-.33-4c1.1,2.1,2.3,4.13,3.48,6.18-.11-2-1.28-4-2.5-5.94L46.61,361a18.11,18.11,0,0,1-1.44-2.73l.91.09c-1.27-2.39-2.28-4.18-3.2-5.65s-1.74-2.65-2.54-3.87a45.27,45.27,0,0,1-5.3-10.5l-.11,1.35c-2.08-2.66-2.32-4-2.46-5.42a11.08,11.08,0,0,0-2-5.58l1.22-2.49c-1.84-3.84-6.54-13.54-8.92-20.85,2.59,3.79,5.86,12.12,8.48,17.05-1.37-4-4.46-13.57-6-15.42a22.65,22.65,0,0,1,1.92,5.18c-3-4.49-5.64-10.87-7.61-19.08,1,.13,1.25-1.15,1.06-3.24a80.79,80.79,0,0,0-1.37-8.16c-1.24-6.29-2.58-13.55-1.6-16.79a114.18,114.18,0,0,1-3.46-22.1c-.58-7.63-.85-15.57-1.44-24.15-1.29,3.13-1.39,1.88-1.54,0s-.27-4.41-1.77-3.82c-.4-4-.35-5.57-.17-5.93.48-4.1,1.09-8.16,1.7-12.2.49-1.43.61-.48.76.78s.26,2.84.61,2.66c.08-4.37.5-5.27.89-5.81s.88-.7,1.35-3.55c-.55.57-.95-.2-1.08-1.73a30.61,30.61,0,0,1,.31-6.26l-1.76,6.9a32.18,32.18,0,0,1,0-7,24.6,24.6,0,0,1,1.12-4.31,29.87,29.87,0,0,0,1.69-11.25c.11,1.31.32,2.63.49,3.93,0-.78.06-1.72.15-2.78s.25-2.24.4-3.5.3-2.6.51-4,.42-2.78.64-4.19c.09-.71.19-1.42.29-2.12s.22-1.39.34-2.07c.21-1.37.39-2.7.52-4a28.71,28.71,0,0,0,.31-6.36c.63-1,1.81-2.13,1.31.56,2.2-7,4.38-14.93,7.32-22.17s6.71-13.67,10.64-17.85l-.07,1.33c.73-1.15,1.15-2.32,1.76-3.47a9.88,9.88,0,0,1,2.79-3.35c.11.34-.15,1.32.71.39.69-1.28,3.85-6.35,6.79-8.62-.55.92-1.06,1.89-1.58,2.82A179.61,179.61,0,0,0,61,78.87,110.17,110.17,0,0,1,73,67.13c1.27,1.76,11.13-4.59,16.12-7.68l0,.38c7.13-4.92,12.89-9.41,18.57-13.76A195.31,195.31,0,0,1,125.74,33.4c4.9-1.26,12.4-4.69,20.78-7.74a119,119,0,0,1,25.54-6.55c-1.21.05-1.21-.38-.56-.95a9.76,9.76,0,0,1,3.3-1.56,17,17,0,0,0,3.09-.61l3.19-.85c2-.52,3.45-.74,3.31.31l-1.31.17c1.52.74,4.14.79,7.11.5s6.32-.75,9.29-1l.75-2.72c8,1.21,18.15.35,27.59-.24s18-1,22.34.69c3.83-.64,8.57-.62,12.37-1.26l-.21,1.41c10.6.45,15.88.68,29,.6l-2.69,1c7.38.22,9.42-3.85,16.25-3.77l2,2.16c12.89.4,25.83,2.73,38.63,1.57-.22.3-.64.89-2.72.86,6.06.32,23.29,2.87,21.3-.17,0,.94,3.32,1.22,7.5,1.25s9.24-.24,12.74-.31l-1.2,1.29c6-1.24,6.24-1.75,14.46-1.45,1.92.38,1.58,1.28-.95.66,6.37,1.39,5.16-.79,12.9.75l-3,.58c6.62.79,6.14.32,9.91-.3a35.88,35.88,0,0,1,7.95,1.05c2.7.67,5,1.51,5.38,2.2,1-.64,4.75-1.19,8.6-.31.46.54-1,.64-1.73.69,10.88,2.5,16.64.74,24,3.35.09.48.54.79,1.15,1-8.72-1.5-15.77-2.55-15.09-2.57-.18,1.28,6.84,2.53,1,3.47l5-.16c1.86,0,3.86,0,5.9,0a50.14,50.14,0,0,1,11.64,1.3,3.28,3.28,0,0,1,.83.6h-.73a18.38,18.38,0,0,0,4.36.58c2.15.6,3.5,1,5.6,1.4.62,1.15,7.9,2.14,11.38,2.87,0-1.43,4.52-.3.46-2.29.54.21-.69,0-3-.37a12.46,12.46,0,0,0-1.52-.15l.26-.08c-2.3-.4-5.29-1-8.71-1.58a19.51,19.51,0,0,1,9.62,1.31c2-.53,4.13-1,5.33-1.25,4.41,2.86,13.34,6,14.35,7.4,2.7.37,5.59,1,8.55,1.54l8.88,1.7c5.78,1.14,11.16,1.87,14.8,1.53,3.07.51,3.22,1.69,4.22,2.41-1.79-.23-3.82-.85-4.84-.74,3.06.51,7.48,1.69,11.38,2.56s7.23,1.6,8.21.93c7.21,3.07-4.69.34,5.64,3.18l-1.55.11a82.94,82.94,0,0,0,13.68,5.06c4.4,1.18,8.65,2.19,13,3.14C599,59.66,608,62.06,618,68.32c-1.41-.83-2.12-1.24-2.3-1.65L624.79,71c3.05,1.43,6.14,2.81,9.25,4.19,6.13,2.92,12.44,5.59,18.56,8.65,3.06,1.51,6.17,2.93,9.17,4.55s6,3.22,8.93,4.88c1.48.81,2.92,1.68,4.34,2.58s2.84,1.79,4.24,2.7c2.79,1.83,5.56,3.65,8.15,5.7,6,4.4,7.36,3.79,11.69,5.49l.53,2.15c2.5.92,5,1.88,7.45,2.85a33.9,33.9,0,0,1,6.48,4.47c1.9,1.69,3.69,3.45,5.52,5.3a59.92,59.92,0,0,0,13.75,11q-.36-1-.75-1.92c3.79,3.27,12.5,9.83,11,10.19a4.62,4.62,0,0,1,3,2l-.43.68c1.66,1.22,3.28,2.48,4.93,3.73s3.22,2.57,4.84,3.85c3.11,3.64,2.26,3.92,1.86,4.54s-.37,1.58,4.16,6.74c.91.89,2,2,3.24,3,.6.52,1.22,1,1.83,1.54s1.18,1,1.73,1.43c2.21,1.78,3.9,2.87,3.5,1.95-1.28-1.64-3-4.45-2.46-5.08l3.31,3.44c1.19-.39,2.83-.22,3.41-1.24s.13-3.26-3.11-8.39l-3.26-2.71-3.31-2.62-1-2.75,4.77,5.17c-1.88-3.67-4.26-5-6.69-6.54a6.67,6.67,0,0,0-1.52-3.4c-2.47-1.41-4.89-2.84-7.37-4.18-.09-1.34,3.91,1.24.28-2.92-3.49-1.89,1.24,4-3.8.14-2.2-3.44-.77-3.32-4.84-5.76-.1-.87.91-.53,2.46.53-1.78-1.14-3.93-2.86-5.9-4.4s-3.86-2.77-5.07-3c-1.18-1.81-4-3.95-6.25-5.76s-4.09-3.36-3.27-4.11a55.73,55.73,0,0,1-10-5.08c3.58,1,.75-1.19-2.68-3.61s-7.39-5.18-5.84-5.86c-2.8-.44-6.8-2.78-11.24-5.35s-9.16-5.6-13.44-7.26a5.29,5.29,0,0,1,2.21.77c-4.31-2.73-5.23-4.1-7.85-6.14-1.51,1.3-8.71-2.07-13-3-4.59-4.65,4.42-.22,3.56-2.75-.24.78-2.81-.18-5.17-1s-4.55-1.55-3.91-.49c-3.72-3.21-3.4-2.37-4.87-4.94-.92.9-2,.49-3.3-.2a12.45,12.45,0,0,0-5.09-1.82c-5.72-4.06-.62-2.84-7.81-5.43C636.78,65.17,643.27,67.3,643.27,67.3ZM469.82,18.93v0l3.67.58Zm-14.91-2.42c1.81.35,4.06.73,6.46,1.11.44.56-.2,1-1.7.69C460.54,18.12,457.07,17.27,454.91,16.51Zm29.62,15c-2.35-.27-3.08-.69-3.34-1,1.1.18,2.39.4,4.09.63.07,0,.22-.07.3-.11A2.2,2.2,0,0,1,484.53,31.56Z"/><path class="cls-3" d="M489.06,30.58a7.9,7.9,0,0,1,1,.09c-.45-.22-.89-.41-1.33-.59l-.91.27Z"/><path class="cls-3" d="M576.07,376.54l-.18.25a2.33,2.33,0,0,1,.49-.47A2.36,2.36,0,0,1,576.07,376.54Z"/><polygon class="cls-3" points="247.33 0.23 247.35 0.58 248.67 0.27 247.33 0.23"/><path class="cls-3" d="M606.33,300a2.56,2.56,0,0,0,.69-.89C606.91,299.07,606.65,299.46,606.33,300Z"/><path class="cls-3" d="M621.65,268.39l3.09-3.91C623.35,266.13,622.39,267.38,621.65,268.39Z"/><path class="cls-3" d="M638.11,247.06a1.48,1.48,0,0,0-.1-.79l0,0Z"/><path class="cls-3" d="M318.21,477.79c-.37,0-.74,0-1.06,0C314.64,478.09,316.34,478,318.21,477.79Z"/><path class="cls-3" d="M448.32,465.88c-1.31.53-2.61,1-4,1.48C446.63,467,448.42,466.68,448.32,465.88Z"/><path class="cls-3" d="M172.39,463s0,0,0,0l-.88-.25Z"/><path class="cls-3" d="M438.31,468.42a22.62,22.62,0,0,0,6-1.06A53.22,53.22,0,0,0,438.31,468.42Z"/><path class="cls-3" d="M737.38,190.74l1.28-.15c0-.08,0-.17.12-.24C738.31,190.47,737.85,190.59,737.38,190.74Z"/><path class="cls-3" d="M738.78,190.35l1.39-.37A3.34,3.34,0,0,0,738.78,190.35Z"/><path class="cls-3" d="M743.11,189.2l-2.94.78A6.81,6.81,0,0,0,743.11,189.2Z"/><path class="cls-3" d="M703.17,200l-.19.63A.68.68,0,0,0,703.17,200Z"/><path class="cls-3" d="M693.36,204.52A39.6,39.6,0,0,1,697.8,203a35.59,35.59,0,0,0,5-2l.15-.5c-.64.66-2.59,1.12-4.59,1.75S694.25,203.55,693.36,204.52Z"/><path class="cls-3" d="M651.69,224.69c1.22-1,2.49-1.91,3.73-2.87s2.49-1.9,3.78-2.78c-1.63.57-3.81,1.33-.49-1.4a25.43,25.43,0,0,0-4.09,2.64c-.38.36,0,.32.34.33C655.69,220.63,656.46,220.8,651.69,224.69Z"/><path class="cls-3" d="M630.75,245c3-4.09-.64-.46-.71-.86C628.37,247,628,247.65,630.75,245Z"/><path class="cls-3" d="M533.55,423.42l-.39-1.33C530.26,424.47,533.44,422.53,533.55,423.42Z"/><path class="cls-3" d="M503,449.48l3.78-.92c.37-.62.75-1.21,1.1-1.84C506.24,447.66,504.6,448.56,503,449.48Z"/><polygon class="cls-3" points="477.93 449.8 479.42 449.1 473.64 451.53 477.93 449.8"/><path class="cls-3" d="M137.76,438.64l.49,1.88C140.76,441.14,141.88,439.7,137.76,438.64Z"/><path class="cls-3" d="M36.35,339.21a12,12,0,0,0-.6-3.87,13.48,13.48,0,0,0-1.88-4.16C34.9,334.37,35.53,337.7,36.35,339.21Z"/><path class="cls-3" d="M207.8,13.87l-2.93.73,5.56-.82C209.55,13.79,208.68,13.84,207.8,13.87Z"/></g><g class="cls-2"><path class="cls-3" d="M794.41,94.91c-.34,0-1.11.15-.95.19l1.31-.15Z"/><path class="cls-3" d="M792,95.64a24.5,24.5,0,0,0,3-.32c-1.27.11-.75,0-2.26.16-.16,0,.41-.15.89-.21-.34,0,.28-.13-.55,0-1,.21-1,.31-.18.29C792.63,95.58,792.28,95.61,792,95.64Z"/><path class="cls-3" d="M790.78,101.43l.15-.06A.37.37,0,0,0,790.78,101.43Z"/><path class="cls-3" d="M790.55,104.93a.83.83,0,0,0-.28,0A.66.66,0,0,0,790.55,104.93Z"/><path class="cls-3" d="M789.19,105.72l.09,0C789.16,105.7,789.09,105.73,789.19,105.72Z"/><path class="cls-3" d="M790.78,101.43l-.4.15C790.81,101.52,790.7,101.48,790.78,101.43Z"/><path class="cls-3" d="M795.31,95.94H795l.14,0Z"/><path class="cls-3" d="M789.51,100.08v0l-.54,0Z"/><path class="cls-3" d="M789.14,99s1.07-.12,1.56-.18a4.86,4.86,0,0,1-.77,0Z"/><path class="cls-3" d="M790.83,96.85h0Z"/><path class="cls-3" d="M789.38,100.94,789,101Z"/><path class="cls-3" d="M802.37,131.94l-.2,0A.59.59,0,0,0,802.37,131.94Z"/><path class="cls-3" d="M797.05,134.06H797l-.63.09Z"/><path class="cls-3" d="M787.92,107h0C787.81,107,787.83,107,787.92,107Z"/><path class="cls-3" d="M790.14,116.63c1-.25,1.3,0,2.39-.33A15.78,15.78,0,0,0,790.14,116.63Z"/><path class="cls-3" d="M795.17,96s0,0,0,.05S795.21,96,795.17,96Z"/><path class="cls-3" d="M792.53,116.3h0l.11,0Z"/><path class="cls-3" d="M788.94,109.34l.48-.09A4.45,4.45,0,0,0,788.94,109.34Z"/><path class="cls-3" d="M790.26,107.29l-.14.07A.49.49,0,0,0,790.26,107.29Z"/><path class="cls-3" d="M790.65,110.06c-.09,0-.24.07-.08.08l.13,0C790.55,110.12,790.47,110.12,790.65,110.06Z"/><path class="cls-3" d="M790.79,111.05l.23,0-.07,0Z"/><path class="cls-3" d="M801.4,129c-.31.06-.65.13-1,.18C801.2,129.08,801.5,129.18,801.4,129Z"/><path class="cls-3" d="M794.68,96l.49,0-.07,0Z"/><path class="cls-3" d="M799.43,108.84l-.14.18C799.39,109,799.44,108.9,799.43,108.84Z"/><path class="cls-3" d="M800.23,122l.14,0S800.36,122,800.23,122Z"/><path class="cls-3" d="M799.52,109.47a6.66,6.66,0,0,0-.76.19,1.57,1.57,0,0,0,.29,0Z"/><path class="cls-3" d="M800.4,129.21h0Z"/><path class="cls-3" d="M803.19,129.86a10.37,10.37,0,0,0-2.29.22c-.44-.12,1.07-.23,1.81-.4-.4-.06-1.76,0-1.71,0a4.52,4.52,0,0,1,.63-.09c-1.18,0-.11-.35-1.59-.27l.36-.07-2,.31c0-.07-.94,0,0-.16,0,0,.37,0,.67,0h-.42c1.36-.26.48,0,1.5-.12-.47-.07-1.63-.07-1.25-.23,1.34-.21.48.18,1.66-.13l-.49.24c2.1-.43-.13.12,2.12-.32.36-.27-.72-.14-.36-.41-.75.06-1.1.17-1.86.23-1.38-.11,3.35-.72,1.53-.69-.91.07-2.61.3-1.73,0l1.52-.17c.13-.22-2.2.2-1.21-.16.61,0,.53.09.71,0,1.18-.31-.88,0-.9-.08l1.35-.22c-.25-.19-1.25-.29-1.53-.5a6.52,6.52,0,0,0,1.23-.18c-.72-.21.07-.68.83-1.09l-1.18,0a3.38,3.38,0,0,1,.75-.12c.42-.18-.74.1-1.21.11-.09-.06.66-.19,1-.19-1-.07-2.2-.28-1-.67h.35c.45-.24-2.41.15-1.35-.16h.21c.46-.43-.67-.68,1-1.21-1.68.19.69-.47-1.64-.16a12.47,12.47,0,0,0,2.28-.77c.1-.1-1.47.09-1.73,0l1.22-.18-1.3,0,1.45-.28-.32,0a4.3,4.3,0,0,1-.89.2c-.57-.06.8-.47,1.42-.56l-1.08-.19a5.89,5.89,0,0,1,1,0c-1.27,0,1.28-.22.12-.21-.28.06-.73.09-1,.12.73-.19.71-.37.38-.47l.84-.09c.18-.28-.48-.47-.5-.75a6.85,6.85,0,0,1-2,.28l1.28-.21a13.49,13.49,0,0,1-1.46.18,7.34,7.34,0,0,1,1.88-.28l-.46-.06c.38-.06.59-.06,1.08-.12-.81.06,1.26-.41-.14-.28l.38-.06c0-.28-.49-.35-.58-.56a13.4,13.4,0,0,1-1.79.09c.33-.22,1.18-.53,1-.72a10.76,10.76,0,0,0-1.62.13c1-.16.89-.34,1.64-.34-.2-.22-.25-.28-1.12-.47a6.41,6.41,0,0,1-.93.19c-.18,0,.4-.19.89-.25h.11c-1.57-.12,2.84-1.21.69-1.18h.11l-1.14-.13c.15-.15.77,0,1.38-.21-1.73-.07.18-.52-1-.61,3-.62-.31-.66,1.56-1.19l-.7.11c-.7,0,.39-.14.54-.21a6.61,6.61,0,0,1-1,.18c-.93-.45.86-1.33,1.41-2,.16-.24-3.66.4-2-.11l1.32-.11c-1.63-.21-.07-.9-1.46-1.13.3,0,.69-.08.69,0,.94-.23,0-.34-.77-.23a9.65,9.65,0,0,1,1.08-.22c.55-.17-1.24,0-.3-.23a1.31,1.31,0,0,1,.39,0c-.47,0,.07-.29-1-.08.5-.23-.54-.24.09-.46-1.23.1.55-.35-1.18-.13,1.79-.25,1.4-.49.55-.47.54,0,.54-.17,1.3-.23,0-.11-.39-.17-1.31,0,2.12-.52-1.78-.18,1-.69a8.18,8.18,0,0,1-2.17-.68c1.78-.24.22.32,2.09,0-.77-.19-2.33-.14-1.94-.49a4.15,4.15,0,0,1,1.09-.09c-.78-.18.08-.58-.93-.7a2.79,2.79,0,0,1,.49,0c-.06,0,.25-.15-.56,0l.22,0a24.58,24.58,0,0,1-3.11.23c2.34-.25.55-.34,3.51-.63a6.36,6.36,0,0,0-1.09.09,3.54,3.54,0,0,1,1.09-.17c-.47-.12-1.32.07-1.33-.1.39-.06.55,0,1-.09-.78,0-1.56,0-1.25-.14.24,0,.54-.09.54,0-.15-.23-2.1-.12-1.39-.49,1.72-.17.55-.17,2-.4l-.46-.08-.71.16c0-.12-1.08-.08-.61-.25h.62l-.32-.19-.54.21c-.78,0-1.87.28-1.48.06.16,0,0-.13.86-.32h0c-.48,0-1,0-.63-.13s1.64-.22,1.95-.28c-1.25.12-.39-.24-1.71-.13.31,0,1.08-.13,1.24-.16l-1,.1a4.38,4.38,0,0,1,1.09-.22c.16-.2-1.87.33-1.09,0a3.53,3.53,0,0,1,.39,0c.39-.26-.7-.31-.23-.57,1.48-.27.39.12,1.63-.13-.3-.23-1.86-.31-1.55-.62l-.15.07c-2.11.27,1-.35,0-.34a8,8,0,0,0,.93-.1c.31-.23-.57-.29-1.27-.47l.55,0c.46-.17.23-.32.46-.47a5.87,5.87,0,0,0-1.24.12c3-.8-1.75-.44.77-1.13a1.11,1.11,0,0,0,.48,0l-.53-.2a10.16,10.16,0,0,0-1.26.27,2,2,0,0,1-1,0,7.59,7.59,0,0,0,2-.33c-.28,0-.59.07-.88.12,1.61-.38-1.84.24-.77-.11l.48-.06c-.26,0-.9,0-.78-.11,1.06-.18.51,0,1.38-.11-.08-.1-2,.07-1-.18.3,0,.31.07.61.07,1.23-.28.91-.25,1.1-.36h0l.54-.26-.34.09c-2.77.26-.54-.2-2.37-.12a10.93,10.93,0,0,0,2.19-.27,5.33,5.33,0,0,1,1-.25c-1,0,.74-.26-.69-.18a4.73,4.73,0,0,1,1-.21,4.44,4.44,0,0,0-1.16.18c-1.34,0,1.55-.64-.3-.63-.78-.11-2.08,0-2.76-.07a6.73,6.73,0,0,1,1.41-.14c.56-.19.44-.26,0-.3a8.58,8.58,0,0,0,1-.18c-.11-.07-1.41.14-.86,0l1.57-.14c-.37,0-1.11,0-1.47-.08a8.84,8.84,0,0,1,1.47-.12,4.1,4.1,0,0,0-1.72-.09l-.37.13a6.45,6.45,0,0,1,1.11-.15c.85,0-.35.19-.73.26l-.26,0c-2.26.4.4.23.29.4l-1.65.17,1.39,0a8.29,8.29,0,0,1-1.6.22c-.8.22.6,0-.3.22a1.37,1.37,0,0,1-.29,0l.51,0c-.35,0-1.16.18-.93.09-.93.31,1.28.11,0,.36h-.11c.6.17,1.22-.15,2.66-.17l-3,.56,1.21-.15s-.12.1-.61.16c.84,0,.53-.1,1.32-.15-1.09.28.56.27-1.36.57.92-.09.69-.22,1.35-.18-2.07.34.37.11-.56.36s-.52-.08-1.46.18c1.82-.19-.36.27,0,.32,1.43-.2.63.12,1.13.22-.49.06-.75.41-1.25.64l-.24,0c1.46-.18,1.21,0,1.52.08a10.93,10.93,0,0,1-1.61.15l0,.1a3.19,3.19,0,0,1,.9,0l-1.09.13c.08.13,1.32.1.62.39a22.06,22.06,0,0,1,3.5-.46,13.6,13.6,0,0,1-1.71.21c.07,0,.46,0,.23.06l-.93.06c-.39.14.78-.07.7,0-.78.11-.55.13-1.17.21-.08,0,.31-.11,0-.09a3.91,3.91,0,0,1-1.17.37,5.65,5.65,0,0,1,1.17-.11c.07.13-.94.18-1.33.32.55-.05,0,.13,1.17,0a5.1,5.1,0,0,1-.86.19c.53,0,.2.32,1.43.06l.08,0h.05c1.2.07-.59.59-.06.76l-.39,0c.47.08.31.28,1.17.26a5,5,0,0,1-1.17.25c.31.07.75,0,.13.27-.7,0-.6.12-.52,0-.32.19-.94.31.15.31-1,.09-1.24.28-.93.31l.7-.21c.16.06.08.14,0,.22l-1.32.15c-1.56.52,2.8.13.15.73.93-.06.62-.25,1.71-.34-.16.16-2,.57-2,.61-.7.29,2-.1,1.48.16a9.55,9.55,0,0,1,2.18-.22A8.22,8.22,0,0,1,790,105s.11-.06.27-.09a2.46,2.46,0,0,0-.89.08l.47-.05c-.47.14-.39.31-1.17.38a1.86,1.86,0,0,0,1-.18c-.66.27,0,.27-.41.51a4.55,4.55,0,0,1,.8-.14c-.55.34.91,0,1.14.13-.71.2-1.72.21-1.09.3a5.77,5.77,0,0,1-1.64.21c.93,0-.55.39-.7.5l-.39,0c.23,0,.23.06.23.1l.94-.18a1.19,1.19,0,0,1-.55.17c.62,0,1.56-.26,2.41-.28-.46.13.55.13-.7.33.4-.27-1.25.2-1.47,0,.15,0,.15.06,0,.13a1.52,1.52,0,0,1-.33,0c-1.09.36,1.42-.11,1.42.1-.7.07-1.32.23-1.17.25a6.1,6.1,0,0,1,1.72-.21c-.53.21.42.08.37.16l.25-.12c.7-.07.62,0,.86.07-.55.08-.39,0-.63,0,1.25-.08-1.25.41-.39.43-.47.14-1.32.2-1.64.3.94,0-.94.31-.16.37a5.45,5.45,0,0,1,1.65-.17l-.71-.18,1.4,0c0-.09-.62-.09-.47-.16a5,5,0,0,0,1.33-.16c-1.4.32.86.11-.08.38l-2.34.33c-1,.35,1.25.18.7.52l.39-.14c.94-.1.16.14.54.16a13.63,13.63,0,0,0-1.54.31c.58-.09,0,.19,1.54,0l-1,.26c-.39.27,2.26-.08,2,.16a15.42,15.42,0,0,1-2,.18c0,.07-.14.15.4.07-.48.11,1.08,0,.35.2.35,0,1.17-.13,1.11,0s-.38.05-.38.05a7,7,0,0,0,1.4-.15c-2.41.56.26.55-1.81,1a1.42,1.42,0,0,1,.63.37c-.23,0-.39,0-.31,0-.7.28,2.26-.21,1.48.11-1.25.29-.7,0-1.17.12-2.57.4.39.2-1.1.56l-.15,0c-.86.23,1,.12.85.32l-.39.06a5.55,5.55,0,0,1,2.19.2,10.49,10.49,0,0,0-1.57.18c.16.06,1.64-.25,1.95-.15a17.86,17.86,0,0,1-2.1.48l-.08-.13c-1.4.27.08.17-.16.28l-.62.08c.23.19,1.79,0,1.71.21l.47-.09c1.56-.09-.85.23.31.2l-1.56.26a15.41,15.41,0,0,1,1.87.18,21.62,21.62,0,0,1-2.49,0c0,.09.15.27.93.2-.16,0-.54,0-.31-.06,1.24-.08,1.87,0,1.86.14-3,.4-.7.54-3,1,1.16.14-.4.65-.17,1,2.34-.46.08.09,2.5-.28.17.06.13.09,0,.12l-1.41.45c-.69.16-.54,0-1.08.09-.16.2-1,.22-1.65.42.87-.14,1.25-.11.94,0l1.09-.3c1.33.06-2,.5-.69.56l-.77,0c.47.06,0,.46,2,.31a5.41,5.41,0,0,1-1.11.15c-.25.34,2.16.37,1,.78l-.6.06c.18,0,1.13-.06.54.09a3.7,3.7,0,0,0-.62.1c.21,0,1.06,0,.72.12l-.67,0c-.74.41,1.68.22,2.12.41a6.33,6.33,0,0,0-2.54.71l-.25,0c-.16.37,1.53.37,2.26.59-1.86.47-.7.78-1.71,1.25a6.89,6.89,0,0,1,1.54-.16c-.34.12,1.24,0-.36.25l0,0c-1.56.28-1.12.37-1.15.49l2.09-.28c-3,.75,1.24.66-1.46,1.22.53,0,.54.09,1.07.09l-1.12.15c-.26.25-.38.38-.08.59l-.81.07c-.05.15,3.26-.28,3.35-.16l-1.67.28c.06.25-1.37.71.18.75a4.44,4.44,0,0,1-.8.06c0,.12-1.07.62,1.22.25-1.49.21-.11.28.57.32l-1.11.14a8.56,8.56,0,0,1,2.23,0c-.14.06-.88.16-.6.07-.56.21,1.06,0,.49.19l-.71,0c-.07.14.31.08,1.14,0,.45,0-.24.29-1.24.45.61-.07,1.44-.11,1.16,0a4.77,4.77,0,0,1-.73.07c-.72.32,1.33.14.27.44l-.66.12c0-.17,0-.32.13-.32a19,19,0,0,1-2.6.4c.78,0,2.48,0,2,.16l-.35.07H792c-.09,0,0,.06.18.07-.16.06-.28.11-.29.15-.84.14-.43.23-.46.3a15,15,0,0,0,1.85-.26.21.21,0,0,1-.19,0h0a.62.62,0,0,1-.1-.16c.58,0,1.06,0,.45.13.72-.07,1.46-.14,1.81-.16-1.54.32-2.35.62-3.3.78a4.26,4.26,0,0,0,2.59.28c.28,0-.59.15-.91.22a2.38,2.38,0,0,0-.49,0c.55,0,.26.33,1.72.15-.64.24-1.36.1-1.09.28l-.45,0c-2.27.75,3.83.14.9,1a2.39,2.39,0,0,1,.5-.13c-1.25.71,1.4.9-.63,1.71-.4.21.54.09,1.26.08l-1.19.2,1.4,0c1,.07-2.88.79-.93.79l.8-.15c-.14.12.52.24-.41.36.15,0,.84-.09.43,0l-.63.09,1.11.09c-.43.25-2.49.33-2.57.62a10.51,10.51,0,0,0,2.28-.07,2.65,2.65,0,0,1,1-.25l.34,0a33,33,0,0,0,5-.86h-1.15l.89-.18.08.13c.83-.2.08-.14-.44-.12a7.11,7.11,0,0,0,1-.21l-1.78.1a10.67,10.67,0,0,0,1.82-.3c-.82,0-1.6.31-2.16.26.83-.19,1.52-.27.79-.26a5.93,5.93,0,0,1,1-.1c-.58,0-.27-.17-1.26-.07,1-.23-.31-.23,1.44-.48a7,7,0,0,1-1.47,0c2.11-.17.08-.29,2.33-.58-1.9.17-.89-.24-2-.26.15,0,.46,0,.37,0a5.39,5.39,0,0,1,1-.34,21.59,21.59,0,0,1-2.9.16c1.48-.33,1.83-.19,3.26-.43-1.26.18-1.28,0-2.33.16a14.9,14.9,0,0,1,1.72-.38c-1.94.27-.34,0-1.54.06.94-.27,1.81-.3,1.2-.36A5.19,5.19,0,0,1,803.19,129.86Zm-3.86-3h0l.07.06Zm-.05-.29a.14.14,0,0,0,0,.14,2.61,2.61,0,0,1-.76.07A4.25,4.25,0,0,0,799.28,126.56Zm-7.63,1.73c-.16,0,.05-.07.28-.11a.31.31,0,0,0,.15.06h.13Z"/><path class="cls-3" d="M793.12,128.16h.09l.24-.06-.35,0S793.11,128.16,793.12,128.16Z"/><path class="cls-3" d="M791,101.36h0l.16,0Z"/><polygon class="cls-3" points="800.83 122.21 800.54 122.25 800.79 122.24 800.83 122.21"/><path class="cls-3" d="M794.55,99.2l.28-.07Z"/><path class="cls-3" d="M794.7,98.46l.38-.15A2.35,2.35,0,0,0,794.7,98.46Z"/><path class="cls-3" d="M795.17,97.85l-.48.06h0Z"/><path class="cls-3" d="M797.7,106.18l.06,0C798,106.21,797.89,106.19,797.7,106.18Z"/><path class="cls-3" d="M794.74,104h.54C795.35,104,795.37,103.93,794.74,104Z"/><path class="cls-3" d="M799.45,108.82h0Z"/><path class="cls-3" d="M795.27,104.15c.22-.08.17-.11,0-.12S795.1,104.13,795.27,104.15Z"/><path class="cls-3" d="M795.34,95.45l0,0-.18,0Z"/><path class="cls-3" d="M795.21,95.44h-.14S795.08,95.45,795.21,95.44Z"/><path class="cls-3" d="M794.78,95.41l.29,0S795.1,95.38,794.78,95.41Z"/><path class="cls-3" d="M794.93,96.23l.4,0Z"/><path class="cls-3" d="M795.08,96.43c.08-.06.84-.25.58-.28l-.33,0C795.94,96.13,794.39,96.48,795.08,96.43Z"/><path class="cls-3" d="M790.22,98.05l.29-.23a3.14,3.14,0,0,1-1.11.15C788.15,98.39,790.36,97.79,790.22,98.05Z"/><path class="cls-3" d="M789.67,98.7c-.21-.07-.62.09-.86.12A1.77,1.77,0,0,0,789.67,98.7Z"/><path class="cls-3" d="M790.25,102.75l-1,.14A4.73,4.73,0,0,0,790.25,102.75Z"/><polygon class="cls-3" points="795.6 102.77 796.22 102.61 795.28 102.71 795.6 102.77"/><polygon class="cls-3" points="788.45 104.27 788.3 104.25 788.68 104.33 788.45 104.27"/><path class="cls-3" d="M789.79,111l1.24-.21C790.8,110.8,789.4,111,789.79,111Z"/><path class="cls-3" d="M791.48,113.77c-.62.12-1,.26-.39.22C791.17,113.92,791.64,113.78,791.48,113.77Z"/><polygon class="cls-3" points="790.71 122.87 790.28 122.87 790.65 122.93 790.71 122.87"/></g><g class="cls-2"><path class="cls-3" d="M710.1,231.92c.16.31.56,1,.54.81l-.63-1.17Z"/><path class="cls-3" d="M711.7,233.83a21.09,21.09,0,0,0-1.4-2.64c.57,1.14.29.69,1,2,0,.16-.3-.32-.54-.74.15.3-.23-.21.16.53.58.85.69.83.36,0C711.43,233.31,711.58,233.62,711.7,233.83Z"/><path class="cls-3" d="M717.93,232.8l-.1-.13A.64.64,0,0,0,717.93,232.8Z"/><path class="cls-3" d="M721.54,231.84s0,.16.08.27A.75.75,0,0,0,721.54,231.84Z"/><path class="cls-3" d="M722.71,232.9l-.07-.07C722.71,232.93,722.75,233,722.71,232.9Z"/><path class="cls-3" d="M717.93,232.8l.28.32C718,232.74,718,232.86,717.93,232.8Z"/><path class="cls-3" d="M710.84,230.65a3,3,0,0,0,.13.33,1.31,1.31,0,0,1,0-.15A1.62,1.62,0,0,0,710.84,230.65Z"/><path class="cls-3" d="M717,234.49h0l.23.49Z"/><path class="cls-3" d="M716,235.25s-.48-1-.7-1.4a4.75,4.75,0,0,1,.31.71C715.73,234.74,715.85,235,716,235.25Z"/><path class="cls-3" d="M713.34,234.47l0,.15S713.35,234.52,713.34,234.47Z"/><path class="cls-3" d="M717.89,234.3l.19.35Z"/><path class="cls-3" d="M748.79,215l0,.2A1,1,0,0,0,748.79,215Z"/><path class="cls-3" d="M751.2,220.23v.06c0,.21.07.42.1.63Z"/><path class="cls-3" d="M724.33,233.75v0C724.34,233.86,724.35,233.83,724.33,233.75Z"/><path class="cls-3" d="M733.53,229.2c-.44-.91-.24-1.28-.78-2.28A15.08,15.08,0,0,0,733.53,229.2Z"/><path class="cls-3" d="M711,230.76a0,0,0,0,1,0,0S710.93,230.71,711,230.76Z"/><path class="cls-3" d="M732.75,226.92h0l0-.09Z"/><path class="cls-3" d="M726.41,232.1l-.22-.44C726.24,231.76,726.3,231.89,726.41,232.1Z"/><path class="cls-3" d="M724,231.4l.1.12C724.05,231.43,724,231.4,724,231.4Z"/><path class="cls-3" d="M726.72,230.24c.06.07.12.21.1.06l-.06-.12C726.8,230.32,726.81,230.4,726.72,230.24Z"/><path class="cls-3" d="M727.69,229.84l-.1-.2v.07Z"/><path class="cls-3" d="M745.53,216.18c.09.3.17.64.25,1C745.6,216.38,745.71,216.06,745.53,216.18Z"/><path class="cls-3" d="M711.16,231.19a2,2,0,0,1-.21-.43s0,0,0,.07A4.12,4.12,0,0,0,711.16,231.19Z"/><path class="cls-3" d="M723.37,222l.23.08C723.51,222,723.43,222,723.37,222Z"/><path class="cls-3" d="M737.73,218.23v-.14S737.71,218.1,737.73,218.23Z"/><path class="cls-3" d="M724,221.76a5.33,5.33,0,0,0,.39.68l-.09-.27Z"/><path class="cls-3" d="M745.79,217.17v0Z"/><path class="cls-3" d="M746.42,214.32c-.18,0,.2,1.43.32,2.27-.11.45-.3-1.05-.51-1.78a16.53,16.53,0,0,1,0,1.72,5.51,5.51,0,0,1-.13-.62c.11,1.18-.38.14-.23,1.61,0-.13-.07-.25-.09-.35.17.72.32,1.45.43,2-.07,0,0,.94-.17,0,.05,0,0-.36-.07-.66v.42c-.35-1.34,0-.49-.2-1.5-.06.48,0,1.64-.19,1.28-.31-1.33.17-.51-.23-1.66l.29.47c-.58-2.07.14.13-.46-2.09-.32-.34-.12.73-.44.39.1.75.25,1.09.35,1.84-.05,1.4-1-3.28-.85-1.45.13.9.47,2.58.1,1.73l-.27-1.51c-.26-.1.35,2.18-.11,1.23-.09-.6.07-.54,0-.71-.42-1.15.08.87,0,.9l-.32-1.32c-.2.26-.25,1.28-.46,1.58a6.43,6.43,0,0,0-.28-1.21c-.19.74-.77,0-1.28-.7l.14,1.17a3,3,0,0,1-.2-.73c-.23-.4.17.73.22,1.19,0,.1-.26-.63-.29-1,0,1-.13,2.24-.67,1.07l0-.35c-.3-.41.38,2.39,0,1.37l0-.21c-.53-.39-.69.75-1.45-.87.38,1.65-.59-.63,0,1.66a11.24,11.24,0,0,0-1.1-2.16c-.12-.08.26,1.45.22,1.72l-.33-1.19.2,1.29-.47-1.4,0,.33a3.29,3.29,0,0,1,.32.85c0,.58-.6-.72-.78-1.33l-.08,1.1a5,5,0,0,1-.15-1c.14,1.26-.39-1.24-.26-.09a9.74,9.74,0,0,1,.25,1c-.29-.7-.49-.64-.56-.29l-.2-.83c-.34-.13-.46.56-.77.64a6.42,6.42,0,0,1,.56,1.93l-.4-1.24a12,12,0,0,1,.39,1.42,6.46,6.46,0,0,1-.55-1.82v.47c-.12-.37-.15-.57-.28-1,.18.79-.62-1.18-.29.19l-.12-.37c-.31.08-.32.55-.55.69a12.81,12.81,0,0,1,.35,1.75c-.29-.28-.75-1.06-.94-.9a9,9,0,0,0,.38,1.58c-.32-1-.51-.81-.62-1.55-.21.24-.27.3-.35,1.2a5.42,5.42,0,0,1,.35.89c0,.18-.27-.37-.41-.84l0-.1c.12,1.57-1.78-2.57-1.41-.44l0-.11.06,1.16c-.2-.12-.17-.76-.47-1.32.22,1.73-.6-.06-.5,1.12-1.2-2.79-.67.45-1.6-1.27l.26.67c.16.68-.23-.36-.34-.49a5.79,5.79,0,0,1,.38,1c-.32,1-1.62-.51-2.48-.87-.3-.1,1.16,3.49.27,2l-.38-1.27c.1,1.65-1,.31-.94,1.75-.08-.3-.23-.67-.18-.68-.45-.86-.37.1-.08.82a7.07,7.07,0,0,1-.47-1c-.31-.49.21,1.23-.19.37a1.19,1.19,0,0,1-.1-.38c.11.46-.34,0,.14,1-.37-.42-.14.59-.52,0,.38,1.18-.52-.43.12,1.2-.67-1.68-.85-1.23-.63-.4-.18-.52-.31-.49-.56-1.2-.11.07-.09.43.29,1.28-1.06-1.91.22,1.79-1-.71a8.26,8.26,0,0,1-.2,2.32c-.7-1.66.28-.32-.48-2.05,0,.81.43,2.31,0,2a3.56,3.56,0,0,1-.37-1c0,.81-.65.12-.52,1.13a1.79,1.79,0,0,1-.14-.47c0,.08-.24-.19.11.56l0-.23a23.92,23.92,0,0,1,1,2.95c-.87-2.19-.5-.43-1.58-3.2a5.35,5.35,0,0,0,.38,1,2.91,2.91,0,0,1-.47-1c0,.49.42,1.26.24,1.32-.16-.37-.19-.52-.36-.95.23.74.46,1.48.18,1.24-.09-.22-.24-.49-.19-.51-.2.22.44,2.06-.14,1.51-.65-1.6-.33-.48-1-1.82l0,.47.36.63c-.14,0,.21,1.07-.1.68l-.17-.6-.11.37.37.45c.2.75.82,1.7.48,1.4,0-.15-.14,0-.58-.72h0c.14.46.3.94.05.65s-.7-1.5-.85-1.78c.48,1.16-.14.45.35,1.69-.11-.3-.44-1-.52-1.14l.39.94a4.48,4.48,0,0,1-.54-1c-.25-.09.88,1.68.32,1a2.94,2.94,0,0,1-.13-.37c-.39-.28-.12.77-.53.41-.71-1.32,0-.41-.61-1.51-.16.37.22,1.89-.2,1.71l.12.12c.91,1.92-.66-.84-.35.12,0-.15-.48-1.07-.38-.86-.34-.21-.14.66-.11,1.39l-.21-.5c-.33-.38-.41-.11-.64-.27a5.11,5.11,0,0,0,.51,1.14c-1.78-2.57.09,1.81-1.41-.31a1.2,1.2,0,0,0-.16-.46l0,.59a11.44,11.44,0,0,0,.69,1.09c.22.5.35.91.28.95a6.62,6.62,0,0,0-1-1.74c.13.25.27.53.41.78-.91-1.38.84,1.66.14.78l-.22-.44c.05.26.29.86.15.78a11.47,11.47,0,0,1-.58-1.26c-.07.11.75,1.9.15,1-.09-.29,0-.33-.13-.61-.69-1.05-.56-.76-.73-.9l0,0-.45-.4.21.28c1.19,2.52,0,.59.66,2.29a9.41,9.41,0,0,0-1-2,5.31,5.31,0,0,1-.61-.88c.39.91-.51-.59.06.72-.2-.34-.11,0-.57-.85,0,.33.36.58.58,1,.48,1.25-1.18-1.19-.54.54.16.78.77,1.95.9,2.62a6,6,0,0,1-.65-1.26c-.38-.44-.41-.31-.29.14a6.44,6.44,0,0,0-.56-.91c0,.13.65,1.26.26.82-.2-.39-.52-1-.69-1.4.08.36.35,1.05.43,1.41a7.4,7.4,0,0,1-.64-1.34,3.62,3.62,0,0,0,.52,1.65l.26.29a5.3,5.3,0,0,1-.55-1c-.32-.79.32.25.52.58l.06.26c1.2,1.94.09-.48.3-.44l.76,1.48-.54-1.28a7.9,7.9,0,0,1,.78,1.41c.5.66-.21-.56.33.19a1.84,1.84,0,0,1,.14.25l-.15-.49c.15.32.59,1,.41.84.64.74-.33-1.24.35-.18l0,.1c0-.63-.58-1.08-1.1-2.43l1.59,2.56-.57-1.08s.14.08.36.51a13,13,0,0,0-.6-1.18c.66.91.08-.63,1,1.06-.4-.84-.45-.57-.64-1.2,1,1.81,0-.4.55.39.48,1,.11.51.68,1.3-.81-1.64.4.24.32-.11-.69-1.28-.09-.64-.17-1.15.23.43.67.55,1.06.93l.11.22c-.66-1.31-.39-1.14-.42-1.47a10.13,10.13,0,0,1,.68,1.47l.09-.06a2.72,2.72,0,0,1-.29-.84l.49,1c.1-.12-.34-1.29.17-.73a19.73,19.73,0,0,1-1.58-3.16,16,16,0,0,1,.76,1.55c0-.07-.16-.43,0-.24l.36.86c.27.33-.32-.71-.21-.66.36.7.3.47.58,1,0,.08-.2-.26-.08,0a3.8,3.8,0,0,1,.74,1,5.93,5.93,0,0,1-.49-1.07c.11-.12.49.82.75,1.15-.22-.51.13,0-.41-1.1a4.88,4.88,0,0,1,.46.75c-.17-.5.26-.3-.39-1.38l-.06-.06v-.05h0c-.3-1.17.78.35.78-.22l.18.36c-.07-.47.18-.39-.1-1.2a4.23,4.23,0,0,1,.61,1c0-.31-.21-.72.23-.21.2.67.3.53.11.51.29.23.6.79.27-.25.39.93.66,1.1.59.79l-.41-.6c0-.17.11-.12.21-.07l.55,1.21c1,1.33-.7-2.72.68-.38-.33-.87-.43-.52-.84-1.53a19.46,19.46,0,0,1,1.21,1.75c.49.58-.68-1.84-.28-1.47a9.09,9.09,0,0,1-.84-2,7.44,7.44,0,0,1,1.09,2.11s-.09-.08-.16-.23a2,2,0,0,0,.33.83l-.18-.44c.27.41.42.28.71,1a1.84,1.84,0,0,0-.47-.91c.46.55.27-.1.63.24a4,4,0,0,1-.37-.73c.5.42-.27-.86-.18-1.13.4.61.69,1.58.6,1a5.6,5.6,0,0,1,.67,1.5c-.23-.9.54.42.69.53l.08.39c0-.23,0-.24,0-.26l-.44-.84a1.14,1.14,0,0,1,.32.47c-.21-.59-.69-1.42-.95-2.24.27.41,0-.56.53.58-.38-.3.54,1.15.45,1.41,0-.15,0-.17.13,0a1.31,1.31,0,0,1,.12.32c.65.94-.5-1.34-.29-1.4.27.65.6,1.2.57,1.05a5.65,5.65,0,0,1-.67-1.59c.35.44,0-.44.06-.41l-.18-.2c-.26-.66-.16-.61-.16-.85.23.5.07.38.2.59-.41-1.19.75,1.08.54.25.26.41.55,1.22.73,1.49-.21-.91.56.82.42,0a4.84,4.84,0,0,1-.6-1.54v.73l-.39-1.34c-.08,0,.07.62,0,.49a4.36,4.36,0,0,0-.5-1.23c.68,1.26-.11-.86.41,0l.93,2.17c.61.88-.14-1.26.35-.82l-.24-.34c-.34-.88.1-.19,0-.58a14.88,14.88,0,0,0,.69,1.42c-.23-.54.21,0-.39-1.5l.52.92c.37.3-.64-2.18-.34-2a14.12,14.12,0,0,1,.68,1.91c.07,0,.19.09,0-.41.22.44-.23-1.06.12-.39-.11-.34-.42-1.11-.32-1.08s.15.36.15.36a7,7,0,0,0-.48-1.32c1.14,2.2.51-.39,1.48,1.5a1.43,1.43,0,0,1,.23-.71c.08.22.15.36.09.3.45.61-.72-2.16-.21-1.48.57,1.15.14.69.38,1.11,1,2.41.12-.43.81.93l0,.16c.42.78-.11-1,.13-.92l.14.37a5,5,0,0,1-.25-2.19,9.08,9.08,0,0,0,.52,1.49,16.87,16.87,0,0,1-.57-1.87,18.08,18.08,0,0,1,.94,1.94l-.12.11c.57,1.31.16-.11.32.09l.21.59c.15-.27-.4-1.74-.13-1.73l-.19-.43c-.41-1.51.41.78.14-.35l.59,1.47a12.74,12.74,0,0,1-.19-1.88,20,20,0,0,1,.48,2.45c.09,0,.24-.21,0-1,0,.15.11.53,0,.32-.33-1.21-.4-1.83-.22-1.87,1,2.89.7.56,1.62,2.76-.09-1.16.74.26,1,0-.9-2.21.08-.1-.74-2.4,0-.18.07-.15.13,0l.72,1.3c.29.65.1.53.28,1,.24.12.41,1,.74,1.53-.31-.82-.35-1.21-.14-.92l-.51-1c-.17-1.32.87,1.87.7.56l.17.76c0-.48.46-.14,0-2a5.45,5.45,0,0,1,.36,1.08c.38.18,0-2.21.62-1.13l.16.58c0-.19-.24-1.11,0-.55a3.63,3.63,0,0,0,.2.6c0-.21-.17-1,0-.74l.14.66c.53.65,0-1.71.08-2.18a6.2,6.2,0,0,0,1.13,2.39l.06.24c.41.11.16-1.57.28-2.32.75,1.77.9.56,1.52,1.5a6.61,6.61,0,0,1-.37-1.51c.17.32-.13-1.23.31.32l0,0c.49,1.51.53,1.05.66,1.06l-.56-2c1.15,2.87.53-1.32,1.44,1.29-.07-.53,0-.55,0-1.08l.29,1.09c.29.22.43.33.61,0l.16.8c.16,0-.65-3.21-.53-3.31l.47,1.62c.25-.09.88,1.28.75-.27a4.39,4.39,0,0,1,.15.8c.13,0,.74,1,.14-1.25.37,1.47.3.08.28-.6l.24,1.08A8.06,8.06,0,0,1,743,224c.08.13.25.86.13.59.27.54-.15-1.05.15-.51l.11.71c.16.05.06-.32-.06-1.15,0-.45.32.21.57,1.19-.12-.6-.24-1.42-.09-1.16a4.28,4.28,0,0,1,.14.72c.4.68,0-1.34.44-.31a6,6,0,0,0,.18.64c-.18,0-.34,0-.35-.09a17.84,17.84,0,0,1,.63,2.55c-.06-.78-.24-2.46,0-2,0,.09,0,.19.09.34l0,.11c0,.1.06,0,0-.18.08.16.14.27.18.28.21.82.27.41.35.43a13.55,13.55,0,0,0-.41-1.82.19.19,0,0,1,0,.19.45.45,0,0,0,0,.12l0-.1a.5.5,0,0,1-.16.11c-.07-.57-.12-1,.1-.46l-.3-1.79c.45,1.51.83,2.29,1.06,3.23a4.34,4.34,0,0,0,.12-2.62c0-.28.2.58.29.9a2.07,2.07,0,0,0,0,.49c0-.56.32-.29.05-1.74.3.62.19,1.35.36,1.07l.06.44c.91,2.23,0-3.83,1-1a2.16,2.16,0,0,1-.16-.49c.8,1.2.9-1.47,1.83.52.23.39.08-.54,0-1.26l.26,1.18-.09-1.4c0-1,.91,2.85.87.9l-.18-.8c.13.14.25-.53.39.4,0-.15-.11-.84,0-.43l.11.62.08-1.11c.27.41.39,2.48.69,2.55a10.64,10.64,0,0,0-.1-2.28,2.63,2.63,0,0,1-.29-1l.05-.35a29.09,29.09,0,0,0-1-5v1.15l-.21-.88.14-.08c-.22-.82-.15-.07-.13.45a6,6,0,0,0-.24-1l.13,1.78a11.85,11.85,0,0,0-.35-1.81c.05.83.35,1.59.31,2.15-.23-.82-.33-1.5-.3-.77a4.09,4.09,0,0,1-.12-1c0,.58-.2.28-.07,1.26-.27-1-.26.32-.55-1.41a6.51,6.51,0,0,1,0,1.47c-.22-2.1-.32-.06-.69-2.3.23,1.89-.25.9-.25,2,0-.15,0-.45,0-.36a4.65,4.65,0,0,1-.41-1,21.54,21.54,0,0,1,.26,2.9c-.42-1.46-.27-1.83-.58-3.25.25,1.25,0,1.3.25,2.33a12.78,12.78,0,0,1-.47-1.7c.35,1.93,0,.35.11,1.55-.34-.92-.39-1.8-.44-1.18A4.17,4.17,0,0,1,746.42,214.32Zm-3.19,4.14v0l.06-.08S743.26,218.4,743.23,218.46Zm-.31.09a.16.16,0,0,0,.15,0,2.91,2.91,0,0,1,.14.75A4.12,4.12,0,0,0,742.92,218.55Zm2.41,7.44c0,.17-.08,0-.14-.27a.25.25,0,0,0,0-.15l0-.13C745.26,225.65,745.3,225.84,745.33,226Z"/><path class="cls-3" d="M745.08,224.54s0-.08,0-.09l-.09-.24.06.35Z"/><path class="cls-3" d="M717.81,232.65l0,0-.09-.13Z"/><polygon class="cls-3" points="737.94 217.59 738.02 217.87 737.98 217.62 737.94 217.59"/><path class="cls-3" d="M714.46,230.05a1.66,1.66,0,0,0-.16-.24Z"/><path class="cls-3" d="M713.65,230.19l-.29-.3A2.08,2.08,0,0,0,713.65,230.19Z"/><path class="cls-3" d="M712.86,230c.09.17.15.31.22.43h0Z"/><path class="cls-3" d="M720.91,224.54v-.06C720.87,224.26,720.87,224.36,720.91,224.54Z"/><path class="cls-3" d="M719.41,228.12a4.68,4.68,0,0,1-.14-.52C719.18,227.54,719.14,227.54,719.41,228.12Z"/><path class="cls-3" d="M723.34,222v0h0Z"/><path class="cls-3" d="M719.39,227.56c-.14-.18-.16-.12-.12,0S719.43,227.73,719.39,227.56Z"/><path class="cls-3" d="M710.32,230.82l-.05,0,.09.15Z"/><path class="cls-3" d="M710.36,231l0,.13S710.42,231.06,710.36,231Z"/><path class="cls-3" d="M710.48,231.36l-.08-.28S710.33,231.08,710.48,231.36Z"/><path class="cls-3" d="M711.28,230.88l-.2-.36Z"/><path class="cls-3" d="M711.43,230.66c-.1-.06-.55-.69-.5-.43l.15.29C710.82,230,711.72,231.28,711.43,230.66Z"/><path class="cls-3" d="M714.74,234.57l-.32-.19a3.12,3.12,0,0,1,.53,1C715.79,236.38,714.44,234.54,714.74,234.57Z"/><path class="cls-3" d="M715.58,234.84c0,.23.3.55.41.77A1.79,1.79,0,0,0,715.58,234.84Z"/><path class="cls-3" d="M719.43,232.84l.44.92C719.88,233.59,719.7,233.41,719.43,232.84Z"/><polygon class="cls-3" points="717.86 227.72 717.51 227.19 717.88 228.05 717.86 227.72"/><polygon class="cls-3" points="721.48 234.07 721.51 234.22 721.47 233.82 721.48 234.07"/><path class="cls-3" d="M727.89,230.83l-.5-1.16C727.43,229.9,728,231.22,727.89,230.83Z"/><path class="cls-3" d="M730.33,228.51c.25.58.48.93.31.33C730.55,228.78,730.31,228.34,730.33,228.51Z"/><polygon class="cls-3" points="739.83 227.56 739.88 227.98 739.9 227.61 739.83 227.56"/></g><g class="cls-2"><path class="cls-3" d="M841.25,78.62a3.81,3.81,0,0,0-1,0l1.32,0Z"/><path class="cls-3" d="M838.8,78.91c.64,0,1.77.11,3,.08-1.27,0-.74-.06-2.25-.12-.16,0,.42-.07.91-.07-.34,0,.29-.06-.54-.08-1,0-1.07.12-.22.2C839.39,78.93,839,78.92,838.8,78.91Z"/><path class="cls-3" d="M836.73,83.08l.16,0Z"/><path class="cls-3" d="M836,85.67a.93.93,0,0,0-.29,0A2.16,2.16,0,0,0,836,85.67Z"/><path class="cls-3" d="M834.55,86.11l.09,0C834.52,86.09,834.45,86.1,834.55,86.11Z"/><path class="cls-3" d="M836.73,83.08l-.41.07C836.75,83.16,836.64,83.12,836.73,83.08Z"/><path class="cls-3" d="M842,79.49a1.86,1.86,0,0,0-.35,0l.14,0Z"/><path class="cls-3" d="M835.66,81.94v0l-.54,0Z"/><path class="cls-3" d="M835.46,81.07c-.05,0,1.07,0,1.56,0a5.92,5.92,0,0,1-.77,0Z"/><path class="cls-3" d="M837.43,79.68l-.15,0Z"/><path class="cls-3" d="M835.42,82.57h0Z"/><path class="cls-3" d="M843.87,107h0Z"/><path class="cls-3" d="M838.3,108l-.06,0h-.63Z"/><path class="cls-3" d="M833.11,86.91h0C833,86.89,833,86.9,833.11,86.91Z"/><path class="cls-3" d="M833.94,94.32c1-.08,1.29.14,2.4,0A23.65,23.65,0,0,0,833.94,94.32Z"/><path class="cls-3" d="M841.84,79.51s0,0,0,0S841.89,79.52,841.84,79.51Z"/><path class="cls-3" d="M836.34,94.33h0Z"/><path class="cls-3" d="M833.78,88.77l.5,0Z"/><path class="cls-3" d="M835.38,87.39l-.15,0A.36.36,0,0,0,835.38,87.39Z"/><path class="cls-3" d="M835.37,89.49c-.09,0-.24,0-.09.05h.14C835.26,89.53,835.19,89.51,835.37,89.49Z"/><path class="cls-3" d="M835.38,90.24h.22l-.06,0Z"/><path class="cls-3" d="M843.33,104.74c-.32,0-.67,0-1,0C843.11,104.76,843.4,104.87,843.33,104.74Z"/><path class="cls-3" d="M841.36,79.49a3.55,3.55,0,0,1,.48,0l-.06,0Z"/><path class="cls-3" d="M844.24,89.52l-.17.12C844.18,89.61,844.24,89.57,844.24,89.52Z"/><path class="cls-3" d="M843.16,99.37l.14,0S843.29,99.37,843.16,99.37Z"/><path class="cls-3" d="M844.24,90c-.4,0-.63,0-.78.06l.29,0Z"/><path class="cls-3" d="M842.3,104.77h0Z"/><path class="cls-3" d="M845,105.56a12.26,12.26,0,0,0-2.29-.08c-.42-.13,1.09-.06,1.84-.11-.39-.08-1.74-.15-1.69-.21.25,0,.33,0,.64,0-1.18-.09-.06-.27-1.53-.37l.36,0c-.74,0-1.49,0-2,0,0-.05-.94-.09,0-.11a3.61,3.61,0,0,0,.66,0l-.42-.06a11.09,11.09,0,0,1,1.51.07c-.45-.1-1.6-.22-1.21-.3,1.36,0,.46.19,1.67.08l-.52.12c2.14-.09-.15.08,2.14,0,.39-.16-.69-.18-.3-.34-.75,0-1.11,0-1.87,0-1.35-.23,3.42-.18,1.61-.35-.91,0-2.63-.06-1.72-.18l1.54,0c.15-.15-2.21-.08-1.18-.25.61,0,.51.12.7.1,1.21-.11-.88-.07-.88-.16h1.37c-.22-.17-1.2-.35-1.45-.54a10.43,10.43,0,0,0,1.25,0c-.68-.23.16-.5,1-.72L843,102.1a4,4,0,0,1,.75,0c.45-.08-.74,0-1.2,0a3.26,3.26,0,0,1,1,0c-1-.15-2.14-.44-.88-.6l.35,0c.47-.13-2.41-.14-1.31-.26l.2,0c.51-.27-.56-.58,1.21-.79-1.69,0,.75-.27-1.61-.29a15.47,15.47,0,0,0,2.38-.33c.11-.06-1.47-.09-1.72-.16h1.23l-1.29-.1,1.48-.06-.32-.07a5.35,5.35,0,0,1-.91.06c-.56-.11.86-.26,1.49-.27l-1-.25a9.39,9.39,0,0,1,1,.08c-1.26-.13,1.3,0,.15-.15-.28,0-.74,0-1,0,.75-.06.76-.2.44-.3l.85,0c.22-.19-.41-.4-.39-.61a9.47,9.47,0,0,1-2,0l1.3,0c-.8,0-.49.06-1.48,0a9.91,9.91,0,0,1,1.91,0l-.45-.09c.39,0,.59,0,1.09,0-.81,0,1.3-.16-.1-.22h.39c0-.21-.44-.3-.51-.48a16.46,16.46,0,0,1-1.78-.12c.36-.12,1.24-.26,1.15-.42a15.81,15.81,0,0,0-1.62-.08,13.73,13.73,0,0,1,1.66-.08c-.17-.18-.2-.23-1-.46-.41,0-.6.05-.95,0-.16,0,.43-.1.93-.09h.1c-1.54-.26,3-.6.85-.81l.11,0-1.11-.22c.17-.1.76.06,1.4,0-1.71-.23.25-.37-.89-.56,3-.14-.21-.52,1.71-.72h-.71c-.69,0,.41-.06.57-.1a9.77,9.77,0,0,1-1,0c-.86-.44,1-.9,1.68-1.35.19-.16-3.68-.09-2-.3l1.32.06c-1.59-.33.05-.67-1.29-1a4.38,4.38,0,0,1,.69,0c1-.07.05-.25-.73-.26.09,0,.71,0,1.1,0,.57-.07-1.22-.17-.27-.21a1.79,1.79,0,0,1,.39,0c-.47,0,.12-.21-1-.17.53-.12-.49-.23.16-.33-1.24-.06.6-.2-1.15-.22,1.81,0,1.46-.22.61-.29.54,0,.56-.07,1.32,0,0-.09-.36-.17-1.29-.15,2.16-.16-1.74-.33,1-.42a9.8,9.8,0,0,1-2.05-.73c1.8,0,.18.26,2.07.25-.74-.22-2.29-.35-1.86-.57a5.24,5.24,0,0,1,1.1,0c-.75-.22.16-.43-.82-.62a3.74,3.74,0,0,1,.49,0c-.06,0,.26-.09-.56-.09l.22,0c-1.19.06-2.48-.15-3.11-.16,2.35.07.59-.19,3.56-.09a7.72,7.72,0,0,0-1.09,0,4.34,4.34,0,0,1,1.1,0c-.45-.14-1.32-.09-1.3-.22.4,0,.55,0,1,0-.77-.06-1.55-.13-1.21-.23a2.19,2.19,0,0,1,.54,0c-.12-.18-2.06-.31-1.31-.51a18,18,0,0,0,2.06-.08l-.45-.1-.72,0c0-.1-1.06-.18-.58-.26l.62.07-.28-.18-.57.1c-.77-.09-1.89,0-1.47-.11a3.5,3.5,0,0,1,.9-.15h0c-.48,0-1-.09-.61-.16s1.66,0,2,0c-1.25,0-.34-.22-1.67-.28.31,0,1.09,0,1.25,0l-1,0a5.55,5.55,0,0,1,1.11,0c.18-.14-1.9,0-1.08-.12l.38,0c.43-.15-.64-.3-.14-.44,1.5-.05.37.12,1.64.07-.28-.2-1.8-.43-1.45-.63l-.17,0c-2.12,0,1-.15,0-.25.16,0,1.18,0,.94,0,.34-.13-.52-.28-1.19-.49l.55,0c.48-.08.28-.21.53-.3a7.36,7.36,0,0,0-1.25,0c3.1-.27-1.67-.51.92-.75a1.32,1.32,0,0,0,.48,0l-.5-.2c-.93,0-.56,0-1.28.07a2.87,2.87,0,0,1-1-.13,10.11,10.11,0,0,0,2-.05c-.29,0-.6,0-.89,0,1.65-.11-1.86,0-.75-.16h.48c-.24-.06-.88-.11-.75-.17,1.07,0,.5.06,1.38.06-.06-.08-2-.16-1-.23.3,0,.31.08.6.12,1.26-.08.94-.09,1.14-.15h0l.57-.14-.34,0c-2.79-.11-.51-.21-2.34-.35a14,14,0,0,0,2.21,0,6.29,6.29,0,0,1,1.06-.07c-1-.07.77-.11-.66-.21a5.8,5.8,0,0,1,1,0,5.75,5.75,0,0,0-1.17,0c-1.33-.13,1.61-.31-.21-.5-.76-.16-2.07-.19-2.73-.34a7.72,7.72,0,0,1,1.42,0c.58-.08.47-.15,0-.22.35,0,.63,0,1.07,0-.1-.06-1.42,0-.84-.12.43,0,1.13,0,1.56.06-.36-.07-1.08-.15-1.44-.22a11.78,11.78,0,0,1,1.48.07,5.14,5.14,0,0,0-1.69-.25l-.39.06a8.16,8.16,0,0,1,1.12,0c.85.08-.37.11-.76.11l-.25,0c-2.29,0,.37.22.23.33l-1.66,0,1.38.11a10.59,10.59,0,0,1-1.61,0c-.82.08.59.07-.33.14h-.29l.5.08c-.35,0-1.17,0-.93,0-1,.13,1.24.22,0,.27h-.1a21.66,21.66,0,0,0,2.66.16l-3,.09,1.22,0s-.13.06-.62,0c.84.08.53,0,1.32,0-1.11.1.52.27-1.42.29a8.39,8.39,0,0,1,1.36,0c-2.1,0,.36.11-.6.2a6.17,6.17,0,0,0-1.48,0c1.83.05-.4.17,0,.24,1.46,0,.61.16,1.09.28a5.71,5.71,0,0,0-1.32.34h-.24c1.46,0,1.19.14,1.49.23a13.62,13.62,0,0,1-1.62-.07v.08a3.78,3.78,0,0,1,.88.1l-1.09,0c.06.1,1.29.21.56.35a28.76,28.76,0,0,1,3.53,0c-.55,0-1.5,0-1.72,0,.07,0,.46,0,.22.07l-.93-.06c-.41.06.78,0,.69.08-.79,0-.56,0-1.19,0-.08,0,.32,0,0-.06a4.67,4.67,0,0,1-1.2.15,6.89,6.89,0,0,1,1.16,0c.06.11-1,0-1.35.1a5.52,5.52,0,0,0,1.16.09,5.08,5.08,0,0,1-.88,0c.52.06.15.26,1.41.2h.13c1.17.18-.67.37-.16.55h-.4c.45.11.27.24,1.12.32a6.81,6.81,0,0,1-1.19.06c.29.08.74.09.09.21-.69-.08-.61,0-.51-.09-.34.11-1,.14.11.25-1,0-1.28.08-1,.13l.72-.07c.15,0,.06.1,0,.15l-1.33,0c-1.62.22,2.75.39,0,.56.94.05.66-.12,1.75-.07-.18.1-2.09.21-2.09.24-.74.13,1.94.13,1.44.27a12.14,12.14,0,0,1,2.18.07,11.32,11.32,0,0,1-2.37.06s.11,0,.27,0a2.55,2.55,0,0,0-.89,0h.48a4.19,4.19,0,0,1-1.21.16,2.56,2.56,0,0,0,1,0c-.69.13,0,.2-.48.33a6.16,6.16,0,0,1,.81,0c-.59.2.9.09,1.11.22-.72.07-1.73,0-1.12.1a7.53,7.53,0,0,1-1.65,0c.92.12-.6.23-.77.29l-.38-.06c.23,0,.22.07.22.1l.95,0a1.87,1.87,0,0,1-.57.06c.63,0,1.58,0,2.43,0-.48,0,.52.15-.74.17.43-.16-1.26,0-1.47-.12.15,0,.15.06,0,.1l-.33,0c-1.13.15,1.42.07,1.39.23a3.63,3.63,0,0,0-1.19.06,8.55,8.55,0,0,1,1.73,0c-.56.1.41.11.34.16l.26-.06a1.57,1.57,0,0,1,.84.14c-.55,0-.38-.07-.62,0,1.25.08-1.29.17-.45.28-.48.05-1.34,0-1.66.05.92.12-1,.13-.21.26a7.56,7.56,0,0,1,1.65,0l-.67-.2,1.38.13c0-.06-.6-.13-.43-.17a6.54,6.54,0,0,0,1.33,0c-1.43.08.83.17-.13.27H834.3c-1,.15,1.22.27.62.46l.41-.06c.94,0,.13.12.51.18-.79,0-1.07,0-1.56.06.58,0-.06.15,1.52.16l-1,.09c-.43.16,2.25.18,2,.33a19.56,19.56,0,0,1-2-.08s-.15.1.39.1c-.49,0,1.07.14.32.19a5.6,5.6,0,0,1,1.11.08h-.39a9.61,9.61,0,0,0,1.4,0c-2.46.15.18.43-1.94.57a1.5,1.5,0,0,1,.58.34c-.24,0-.39,0-.31,0-.74.14,2.27.09,1.45.24-1.28.08-.7-.08-1.18,0-2.6,0,.36.19-1.16.29l-.15,0c-.89.08,1,.19.79.33,0,0-.22,0-.39,0a7,7,0,0,1,2.13.38,13.58,13.58,0,0,0-1.57,0c.15.06,1.66,0,2,.1-.56,0-1,.11-2.14.13l-.06-.11c-1.43,0,0,.14-.2.19h-.63c.21.16,1.78.16,1.66.34l.48,0c1.55.1-.88.08.28.18l-1.58,0a17.47,17.47,0,0,1,1.82.33c-1.17-.06-1.77-.2-2.46-.28,0,.06.11.22.89.25-.15,0-.54-.06-.29-.08,1.24.07,1.85.17,1.82.3-3.06,0-.77.33-3.15.42,1.14.22-.48.44-.3.7a23.74,23.74,0,0,1,2.51.06c.16.06.12.08,0,.08l-1.46.19a10.52,10.52,0,0,1-1.09,0,11.51,11.51,0,0,1-1.68.14c.87,0,1.25,0,.92.12l1.12-.11c1.31.19-2,.16-.76.35l-.77-.06c.45.09,0,.35,2,.44a7.07,7.07,0,0,1-1.13,0c-.29.23,2.09.51.88.68h-.59c.17,0,1.12.07.52.12a5.52,5.52,0,0,0-.64,0c.21,0,1,.11.7.17l-.67,0c-.78.22,1.64.34,2.05.53a7.89,7.89,0,0,0-2.62.26h-.25c-.21.26,1.46.44,2.15.68-1.91.15-.8.51-1.87.75a9.56,9.56,0,0,1,1.55,0c-.36.06,1.22.16-.39.15l0,0c-1.59,0-1.16.16-1.21.25h2.11c-3.07.24,1.13.62-1.62.75.53,0,.52.12,1,.18H833.5c-.29.15-.43.23-.16.43l-.81,0c-.08.11,3.26.14,3.33.24l-1.69,0c0,.19-1.46.38.07.57a5.43,5.43,0,0,1-.8,0c0,.09-1.15.35,1.18.32-1.52,0-.15.2.51.3l-1.11,0a10.35,10.35,0,0,1,2.21.22c-.15,0-.9,0-.61,0-.58.1,1.06.08.46.19l-.71,0c-.09.1.3.09,1.13.15.44.06-.29.18-1.29.2.61,0,1.43.07,1.14.12a6.1,6.1,0,0,1-.73,0c-.76.17,1.3.25.2.36-.37,0-.55,0-.66,0s.08-.24.17-.23a24.52,24.52,0,0,1-2.63,0c.77.09,2.46.23,2,.34h-.47c-.1,0,0,0,.17.07-.17,0-.3,0-.31.08-.85,0-.46.12-.5.18,1.12,0,.94.06,1.87,0a.22.22,0,0,1-.18,0,.29.29,0,0,0-.12,0h.1a.27.27,0,0,1-.07-.13c.57,0,1.05.09.42.15l1.82.07c-1.57.07-2.42.21-3.38.23a5.46,5.46,0,0,0,2.52.48c.28,0-.6.06-.93.07s-.18,0-.49-.07a3.79,3.79,0,0,0,1.69.3c-.67.11-1.36-.07-1.12.09l-.45,0c-2.36.31,3.77.51.74.85l.52,0c-1.34.4,1.25.82-.86,1.21-.43.11.51.12,1.23.19l-1.21,0,1.39.12c1,.16-3,.28-1,.49l.81,0c-.15.07.48.23-.45.22.15,0,.84,0,.42,0h-.63l1.08.18c-.46.14-2.51,0-2.63.19a16.33,16.33,0,0,0,2.26.19,3.55,3.55,0,0,1,1-.09l.33.07a42.39,42.39,0,0,0,5.07-.1l-1.14-.12.9,0,.06.1c.85-.06.1-.09-.42-.13a8.39,8.39,0,0,0,1-.06l-1.78-.11a17.23,17.23,0,0,0,1.85,0c-.83-.06-1.64,0-2.18,0,.85-.06,1.54,0,.81-.11a8.41,8.41,0,0,1,1,0,5.41,5.41,0,0,0-1.24-.19c1.05-.06-.27-.2,1.5-.19a8.58,8.58,0,0,1-1.46-.17c2.11.11.12-.2,2.39-.18-1.9-.07-.85-.27-1.9-.4.15,0,.46,0,.36,0a8.73,8.73,0,0,1,1.09-.14c-1.57,0-1.93-.13-2.9-.19,1.52-.09,1.85.06,3.3,0-1.27,0-1.27-.16-2.33-.13.94-.07.46-.06,1.76-.1-2,0-.34-.06-1.54-.12,1-.1,1.84,0,1.24-.14A6.69,6.69,0,0,1,845,105.56Zm-3.39-2.65h0l.06,0Zm0-.22a.08.08,0,0,0-.05.09,4,4,0,0,1-.76,0A6.49,6.49,0,0,0,841.57,102.69Zm-7.79.47c-.16,0,.06,0,.29,0l.13.06h-.42Z"/><path class="cls-3" d="M835.25,103.22l.08,0,.25,0-.35,0Z"/><path class="cls-3" d="M836.92,83.05h0Z"/><polygon class="cls-3" points="843.72 99.61 843.43 99.61 843.68 99.64 843.72 99.61"/><path class="cls-3" d="M840.78,81.82h0Z"/><path class="cls-3" d="M841,81.3l.4-.08A2.14,2.14,0,0,0,841,81.3Z"/><path class="cls-3" d="M841.58,80.89h0Z"/><path class="cls-3" d="M842.91,87.36s0,0,.05,0C843.17,87.41,843.09,87.39,842.91,87.36Z"/><path class="cls-3" d="M840.28,85.43a5,5,0,0,1,.53.07C840.9,85.46,840.92,85.44,840.28,85.43Z"/><path class="cls-3" d="M844.26,89.51h0Z"/><path class="cls-3" d="M840.79,85.59c.23,0,.18-.07,0-.09S840.62,85.56,840.79,85.59Z"/><path class="cls-3" d="M842.1,79.12l0,0H842Z"/><path class="cls-3" d="M842,79.1l-.13,0S841.84,79.1,842,79.1Z"/><path class="cls-3" d="M841.54,79l.29,0S841.87,79,841.54,79Z"/><path class="cls-3" d="M841.58,79.66h0Z"/><path class="cls-3" d="M841.69,79.83c.1,0,.87-.1.62-.16H842C842.59,79.69,841,79.79,841.69,79.83Z"/><path class="cls-3" d="M836.65,80.51l.33-.14a4.42,4.42,0,0,1-1.12,0C834.56,80.54,836.83,80.33,836.65,80.51Z"/><path class="cls-3" d="M836,80.94a3.59,3.59,0,0,0-.87,0A2.54,2.54,0,0,0,836,80.94Z"/><path class="cls-3" d="M836,84h-1A5.52,5.52,0,0,0,836,84Z"/><polygon class="cls-3" points="841.31 84.6 841.94 84.54 841.01 84.52 841.31 84.6"/><polygon class="cls-3" points="834.02 84.94 833.87 84.92 834.24 85.02 834.02 84.94"/><path class="cls-3" d="M834.38,90.11l1.26,0C835.42,90.05,834,90.05,834.38,90.11Z"/><path class="cls-3" d="M835.67,92.34c-.63,0-1,.09-.42.12C835.34,92.41,835.83,92.36,835.67,92.34Z"/><polygon class="cls-3" points="833.61 99.02 833.19 98.98 833.54 99.06 833.61 99.02"/></g><g class="cls-2"><path class="cls-3" d="M718,275.72c.15.31.54,1,.51.83l-.6-1.18Z"/><path class="cls-3" d="M719.54,277.68A19.88,19.88,0,0,0,718.2,275c.55,1.15.28.69.94,2.06,0,.16-.29-.33-.52-.76.15.31-.22-.21.15.53.57.87.67.86.35.06A8.77,8.77,0,0,1,719.54,277.68Z"/><path class="cls-3" d="M725.6,276.79l-.11-.12A.44.44,0,0,0,725.6,276.79Z"/><path class="cls-3" d="M729.09,275.82a.74.74,0,0,0,.09.27A.62.62,0,0,0,729.09,275.82Z"/><path class="cls-3" d="M730.28,276.85l-.07-.06C730.28,276.89,730.32,277,730.28,276.85Z"/><path class="cls-3" d="M725.6,276.79l.28.33C725.68,276.73,725.68,276.85,725.6,276.79Z"/><path class="cls-3" d="M718.72,274.49a1.73,1.73,0,0,0,.12.33l0-.14Z"/><path class="cls-3" d="M724.71,278.46l0,0c.06.14.14.3.23.49Z"/><path class="cls-3" d="M723.75,279.21s-.48-1-.7-1.41a4.13,4.13,0,0,1,.31.71Z"/><path class="cls-3" d="M721.13,278.37l0,.15Z"/><path class="cls-3" d="M725.58,278.28c.08.15.15.27.2.35C725.71,278.51,725.65,278.39,725.58,278.28Z"/><path class="cls-3" d="M753.24,256.78a2,2,0,0,0,.07.19A.75.75,0,0,0,753.24,256.78Z"/><path class="cls-3" d="M756.48,261.52v.07l.21.59Z"/><path class="cls-3" d="M731.91,277.66v0C731.93,277.77,731.93,277.74,731.91,277.66Z"/><path class="cls-3" d="M740.67,272.62c-.51-.87-.35-1.26-1-2.21A15.12,15.12,0,0,0,740.67,272.62Z"/><path class="cls-3" d="M718.82,274.61s0,0,0,0S718.81,274.56,718.82,274.61Z"/><path class="cls-3" d="M739.71,270.41h0l-.06-.09Z"/><path class="cls-3" d="M733.89,275.94l-.24-.43C733.7,275.61,733.77,275.73,733.89,275.94Z"/><path class="cls-3" d="M731.48,275.33l.11.11C731.53,275.36,731.5,275.33,731.48,275.33Z"/><path class="cls-3" d="M734.08,274.08c.06.07.14.2.1.05l-.06-.12C734.17,274.16,734.19,274.23,734.08,274.08Z"/><path class="cls-3" d="M735,273.64l-.12-.2v.07Z"/><path class="cls-3" d="M750.42,258.42l.41.93C750.53,258.61,750.57,258.28,750.42,258.42Z"/><path class="cls-3" d="M719,275.05a2.25,2.25,0,0,1-.2-.44s0,0,0,.07Z"/><path class="cls-3" d="M730.3,266.06l.22.08C730.43,266.06,730.35,266,730.3,266.06Z"/><path class="cls-3" d="M743.44,261.38l0-.14S743.4,261.25,743.44,261.38Z"/><path class="cls-3" d="M730.9,265.77a6.26,6.26,0,0,0,.42.66c0-.08-.06-.15-.1-.27Z"/><path class="cls-3" d="M750.83,259.36h0Z"/><path class="cls-3" d="M750.92,256.47c-.16,0,.44,1.38.71,2.18,0,.46-.47-1-.8-1.67,0,.41.42,1.71.32,1.69a6.11,6.11,0,0,1-.23-.59c.3,1.14-.33.18.06,1.61l-.15-.33c.29.68.56,1.38.75,1.88-.06.05.21.92-.16,0,.05,0-.09-.36-.18-.64l.08.41c-.56-1.27-.07-.48-.44-1.44,0,.47.28,1.61,0,1.28-.51-1.26.08-.52-.49-1.6l.35.43c-.89-2,.15.1-.78-2-.36-.28,0,.74-.35.45.22.73.42,1,.64,1.76.19,1.38-1.47-3.09-1-1.32.27.87.87,2.48.39,1.69l-.51-1.45c-.26-.06.69,2.1.1,1.23-.18-.58,0-.54-.12-.7-.58-1.08.21.85.11.89l-.52-1.26c-.14.29,0,1.3-.18,1.62a7.5,7.5,0,0,0-.45-1.16c-.06.76-.72.11-1.31-.52l.32,1.13a2.62,2.62,0,0,1-.3-.69c-.28-.37.27.69.38,1.14,0,.1-.33-.59-.42-.94.16,1,.22,2.23-.46,1.14l-.09-.34c-.35-.37.71,2.31.15,1.36l-.05-.21c-.55-.32-.54.83-1.48-.7.59,1.59-.65-.55.23,1.64a11.58,11.58,0,0,0-1.34-2c-.12-.07.45,1.41.44,1.67l-.47-1.14.37,1.25-.64-1.33,0,.33a3.5,3.5,0,0,1,.42.81c.08.57-.67-.66-.91-1.24l.07,1.1a4.3,4.3,0,0,1-.27-1c.3,1.24-.54-1.18-.26,0,.13.25.28.68.37.91-.37-.65-.56-.58-.57-.23l-.3-.8c-.33-.09-.36.6-.64.7a7.17,7.17,0,0,1,.78,1.85l-.54-1.18a12.87,12.87,0,0,1,.55,1.37,7.14,7.14,0,0,1-.75-1.75l0,.47c-.16-.36-.21-.56-.4-1,.27.77-.72-1.11-.25.21l-.16-.35c-.28.11-.22.57-.42.73a11.52,11.52,0,0,1,.54,1.7c-.3-.26-.83-1-1-.82a9.5,9.5,0,0,0,.54,1.54c-.42-.94-.58-.77-.77-1.49-.17.26-.22.32-.18,1.22a5.66,5.66,0,0,1,.43.85c0,.17-.3-.34-.49-.8l0-.1c.29,1.55-2-2.4-1.38-.33l0-.1.17,1.14c-.2-.1-.24-.74-.59-1.28.4,1.7-.57,0-.35,1.14-1.42-2.67-.58.49-1.63-1.15l.3.64c.23.67-.24-.33-.36-.46a5.78,5.78,0,0,1,.45.92c-.2,1-1.58-.42-2.43-.74-.29-.08,1.43,3.4.45,2l-.48-1.24c.24,1.63-.89.35-.73,1.77a3.62,3.62,0,0,1-.23-.66c-.49-.83-.34.11,0,.81a7.92,7.92,0,0,1-.52-1c-.33-.47.3,1.21-.16.37a1.71,1.71,0,0,1-.12-.37c.14.45-.32,0,.21,1-.38-.4-.08.59-.49.05.45,1.16-.52-.41.21,1.18-.77-1.64-.9-1.19-.63-.37-.2-.51-.33-.47-.62-1.17-.1.07,0,.43.37,1.25-1.14-1.85.34,1.77-1-.67a8.36,8.36,0,0,1,0,2.3c-.78-1.63.25-.32-.59-2,0,.8.56,2.27.09,2a4,4,0,0,1-.42-1c0,.81-.61.12-.42,1.13a2.44,2.44,0,0,1-.17-.47c0,.08-.23-.18.14.55l0-.22a23.94,23.94,0,0,1,1.17,2.9c-.95-2.15-.5-.41-1.68-3.14a4.84,4.84,0,0,0,.41,1,3.3,3.3,0,0,1-.5-1c0,.48.47,1.23.3,1.3-.17-.36-.21-.51-.4-.94.26.73.53,1.47.25,1.23-.1-.22-.26-.49-.21-.5-.18.22.52,2-.06,1.49-.7-1.58-.34-.46-1-1.79l.06.46.38.62c-.13,0,.25,1.07-.07.68l-.18-.59-.1.36.38.44c.23.75.86,1.69.52,1.39,0-.15-.13.05-.58-.71h0c.15.45.32.93.06.64s-.72-1.48-.88-1.76c.5,1.15-.12.45.41,1.67-.12-.29-.47-1-.55-1.13l.41.93a4.54,4.54,0,0,1-.56-1c-.24-.08.91,1.67.35,1,0-.08-.1-.22-.14-.37-.39-.28-.08.77-.49.41-.73-1.31,0-.4-.65-1.5-.13.37.29,1.87-.12,1.69l.12.12c.94,1.91-.67-.83-.33.12a7.51,7.51,0,0,0-.4-.85c-.33-.22-.11.64-.06,1.37l-.22-.5c-.33-.38-.4-.11-.62-.28a5.24,5.24,0,0,0,.52,1.14c-1.77-2.58.13,1.8-1.36-.33a1.11,1.11,0,0,0-.17-.45l0,.58a10.63,10.63,0,0,0,.68,1.08c.23.5.35.92.29.95a7.1,7.1,0,0,0-1-1.74c.13.25.27.53.41.78-.9-1.38.84,1.66.15.77l-.22-.43c.05.25.29.85.15.77a13.29,13.29,0,0,1-.57-1.26c-.07.11.75,1.9.16,1-.1-.28,0-.32-.13-.6-.69-1.06-.56-.77-.72-.91l0,0-.44-.41.2.28c1.19,2.53,0,.59.67,2.29a9.63,9.63,0,0,0-1-2,5.64,5.64,0,0,1-.59-.88c.38.9-.5-.61.06.71-.19-.34-.11,0-.55-.86,0,.33.35.59.57,1,.47,1.26-1.15-1.21-.52.52.16.77.75,1.95.88,2.63a6.5,6.5,0,0,1-.63-1.28c-.37-.45-.4-.32-.28.13a6.77,6.77,0,0,0-.54-.92c0,.13.63,1.27.25.82-.19-.39-.5-1-.67-1.42.08.37.34,1.06.41,1.42a8.94,8.94,0,0,1-.61-1.35,3.79,3.79,0,0,0,.5,1.65l.25.3a5.48,5.48,0,0,1-.52-1c-.32-.79.3.25.5.59l0,.26c1.16,2,.09-.47.29-.42l.74,1.49-.53-1.29a8.11,8.11,0,0,1,.76,1.43c.49.67-.2-.57.32.19a.88.88,0,0,1,.13.26l-.14-.49c.15.32.57,1,.4.84.63.76-.32-1.24.34-.16l0,.09c0-.62-.55-1.08-1.06-2.44l1.55,2.59-.56-1.09s.14.08.36.52c-.31-.79-.27-.46-.59-1.18.64.91.07-.63,1,1.07-.4-.84-.45-.58-.63-1.21,1,1.83,0-.39.53.4.48,1,.11.52.67,1.31-.8-1.64.39.24.31-.11-.68-1.29-.09-.64-.17-1.14.22.43.66.55,1,.94l.11.22c-.66-1.31-.39-1.14-.42-1.47a10.35,10.35,0,0,1,.67,1.48l.1-.06a2.59,2.59,0,0,1-.3-.85l.49,1c.1-.12-.34-1.29.16-.72a21.22,21.22,0,0,1-1.59-3.16,13.15,13.15,0,0,1,.76,1.55c0-.07-.15-.44,0-.24l.36.86c.26.32-.32-.71-.22-.67.36.7.3.48.59,1,0,.07-.21-.26-.09,0a3.76,3.76,0,0,1,.74,1,5.63,5.63,0,0,1-.49-1.06c.11-.12.49.82.75,1.14-.22-.5.12,0-.42-1.09a5.54,5.54,0,0,1,.47.75c-.18-.5.24-.3-.41-1.37l-.06-.07v-.05h0c-.32-1.16.77.36.75-.21l.19.35c-.08-.46.17-.38-.13-1.19a4.49,4.49,0,0,1,.62,1c0-.31-.23-.72.22-.21.21.67.31.53.12.5.29.24.61.79.26-.24.41.92.67,1.08.6.78l-.42-.6c0-.17.1-.12.2-.07l.57,1.2c1,1.31-.76-2.7.67-.38-.35-.87-.45-.51-.87-1.52.2.1,1.19,1.74,1.23,1.72.5.58-.72-1.81-.32-1.45a9.4,9.4,0,0,1-.89-2,8.27,8.27,0,0,1,1.14,2.08c0,.05-.1-.08-.17-.22a2.23,2.23,0,0,0,.36.82l-.2-.43c.28.4.43.27.74,1a1.88,1.88,0,0,0-.49-.9c.46.54.25-.11.62.23a5.19,5.19,0,0,1-.39-.72c.51.41-.29-.86-.22-1.12.41.6.73,1.56.63.94a5.54,5.54,0,0,1,.71,1.48c-.26-.89.55.4.7.51l.1.38c-.06-.22,0-.24,0-.25l-.46-.83a1.07,1.07,0,0,1,.33.46c-.23-.58-.74-1.4-1-2.2.28.4,0-.56.54.56-.38-.29.58,1.12.51,1.38q-.06-.22.12,0a1.22,1.22,0,0,1,.13.31c.68.91-.55-1.32-.34-1.39.29.65.64,1.18.6,1a6.2,6.2,0,0,1-.73-1.56c.37.43-.05-.44,0-.41l-.18-.2c-.29-.65-.19-.6-.2-.84.25.49.09.38.23.58-.46-1.16.78,1.06.54.24.27.4.59,1.19.79,1.46-.26-.9.59.8.41,0a5.49,5.49,0,0,1-.67-1.51l0,.72L732,274.5c-.09,0,.09.61,0,.49a4.9,4.9,0,0,0-.55-1.21c.73,1.23-.16-.85.39,0l1,2.12c.64.86-.2-1.25.3-.83l-.26-.33c-.38-.86.09-.19,0-.57a13.29,13.29,0,0,0,.76,1.38c-.26-.53.2,0-.47-1.47l.56.89c.38.29-.75-2.14-.45-2a14.68,14.68,0,0,1,.78,1.88c.07,0,.19.08-.05-.41.25.43-.28-1.05.1-.4-.13-.32-.47-1.07-.38-1.05s.17.35.17.35a7.83,7.83,0,0,0-.55-1.29c1.25,2.14.46-.41,1.53,1.42a1.59,1.59,0,0,1,.18-.72c.1.22.17.36.11.29.49.59-.86-2.1-.31-1.45.64,1.11.19.67.45,1.08,1.13,2.34.09-.43.86.88l0,.16c.47.75-.18-1,.06-.92,0,0,.09.21.17.36A5.27,5.27,0,0,1,736,271a10.2,10.2,0,0,0,.62,1.45,19.19,19.19,0,0,1-.7-1.83,19.2,19.2,0,0,1,1.07,1.88l-.11.11c.67,1.27.15-.12.32.07l.26.57c.11-.28-.54-1.7-.27-1.7l-.22-.42c-.53-1.47.46.75.1-.36l.7,1.42a13.21,13.21,0,0,1-.34-1.85,20.52,20.52,0,0,1,.67,2.4c.09,0,.22-.23-.06-.95,0,.15.15.52,0,.31-.42-1.17-.55-1.79-.38-1.83,1.24,2.8.73.51,1.82,2.63-.19-1.16.75.19,1-.12-1.09-2.12.06-.1-1-2.32,0-.18.06-.16.13,0l.83,1.23c.34.62.14.52.37,1,.24.1.49.92.87,1.46-.38-.79-.46-1.17-.23-.9l-.59-1c-.3-1.29,1,1.79.74.51l.24.74c-.07-.47.44-.18-.23-2a5.77,5.77,0,0,1,.45,1c.4.15-.21-2.19.5-1.18l.21.56c0-.18-.35-1.07-.05-.55a4,4,0,0,0,.26.58c-.05-.2-.28-1-.07-.73l.21.64c.59.6-.23-1.69-.15-2.17a6.23,6.23,0,0,0,1.36,2.27l.09.23c.41.06,0-1.58,0-2.34.93,1.68.94.47,1.66,1.33a6.79,6.79,0,0,1-.54-1.46c.21.3-.28-1.2.34.29l0,0c.66,1.44.64,1,.77,1l-.79-1.95c1.48,2.71.34-1.37,1.56,1.11-.13-.52,0-.55-.17-1.07l.43,1.05c.31.19.46.28.6-.07l.26.77c.16,0-1.07-3.1-1-3.21l.68,1.55c.23-.13,1,1.15.69-.37a4.6,4.6,0,0,1,.26.77c.13,0,.86.88,0-1.25.57,1.4.31,0,.19-.64l.4,1.05a8.63,8.63,0,0,1-.56-2.16c.09.12.37.81.21.57.34.49-.29-1,.08-.53l.2.69c.16,0,0-.33-.23-1.12-.08-.45.35.16.74,1.09-.21-.58-.45-1.37-.27-1.13a4.78,4.78,0,0,1,.24.69c.49.62-.16-1.33.39-.36a5.69,5.69,0,0,0,.27.61c-.18,0-.34,0-.35-.05a21.69,21.69,0,0,1,1,2.43c-.18-.76-.61-2.4-.3-2l.15.32,0,.12c.07.08.06,0,0-.19.1.14.17.25.22.25.33.78.32.36.4.37a13.5,13.5,0,0,0-.68-1.74.19.19,0,0,1,0,.19.26.26,0,0,0,0,.12l0-.09a.44.44,0,0,1-.14.13c-.15-.55-.27-1,0-.47-.23-.68-.46-1.39-.57-1.72.67,1.42,1.15,2.14,1.53,3a4.41,4.41,0,0,0-.3-2.59c0-.28.28.53.43.83a2.14,2.14,0,0,0,.08.49c-.08-.55.27-.33-.23-1.72.38.57.4,1.3.52,1l.13.43c1.25,2.05-.69-3.77.84-1.11a2.17,2.17,0,0,1-.24-.46c1,1.05.61-1.58,1.85.22.3.35,0-.54-.18-1.24l.45,1.12-.33-1.37c-.14-1,1.39,2.65,1,.74l-.32-.75c.15.11.15-.56.45.32,0-.14-.26-.81-.07-.42l.22.59-.14-1.1c.34.36.83,2.36,1.14,2.38a10.34,10.34,0,0,0-.53-2.21,3.08,3.08,0,0,1-.45-.93l0-.34a30,30,0,0,0-1.88-4.72l.23,1.13-.36-.83.12-.1c-.37-.77-.16-.05,0,.46a6.57,6.57,0,0,0-.4-.91l.45,1.72a12.18,12.18,0,0,0-.67-1.72c.21.8.63,1.51.7,2.06-.37-.76-.59-1.42-.43-.71a5.83,5.83,0,0,1-.3-1c.12.57-.13.31.18,1.25-.44-.95-.18.36-.78-1.3a6.7,6.7,0,0,1,.29,1.45c-.6-2-.32,0-1.07-2.15.56,1.81-.06.92.13,2,0-.14-.13-.44-.08-.35a5.19,5.19,0,0,1-.58-.95,21.67,21.67,0,0,1,.77,2.8c-.65-1.37-.57-1.75-1.12-3.09.45,1.18.24,1.26.65,2.24a14.26,14.26,0,0,1-.75-1.6c.68,1.84,0,.35.38,1.5-.47-.85-.68-1.7-.62-1.09A4.61,4.61,0,0,1,750.92,256.47Zm-2.27,4.5v0l.05-.09Zm-.28.13a.12.12,0,0,0,.14,0,2.8,2.8,0,0,1,.25.73A4.35,4.35,0,0,0,748.37,261.1Zm3.46,7c0,.16-.09,0-.18-.25a.28.28,0,0,0,0-.16l0-.13C751.71,267.79,751.78,268,751.83,268.12Z"/><path class="cls-3" d="M751.37,266.71s0-.07,0-.08l-.12-.23c0,.12.07.23.11.34Z"/><path class="cls-3" d="M725.48,276.65v0l-.08-.14Z"/><polygon class="cls-3" points="743.55 260.73 743.66 260.99 743.59 260.75 743.55 260.73"/><path class="cls-3" d="M722.18,274a1.53,1.53,0,0,0-.16-.25Z"/><path class="cls-3" d="M721.41,274.14l-.28-.3A1.4,1.4,0,0,0,721.41,274.14Z"/><path class="cls-3" d="M720.64,273.92l.22.43h0Z"/><path class="cls-3" d="M728.13,268.59s0,0,0,0C728.08,268.32,728.09,268.41,728.13,268.59Z"/><path class="cls-3" d="M726.89,272.15c-.07-.2-.14-.39-.17-.52S726.6,271.58,726.89,272.15Z"/><path class="cls-3" d="M730.28,266.05v0h0Z"/><path class="cls-3" d="M726.84,271.6c-.14-.18-.15-.12-.12,0S726.89,271.77,726.84,271.6Z"/><path class="cls-3" d="M718.22,274.65l-.05,0a1.46,1.46,0,0,1,.09.16Z"/><path class="cls-3" d="M718.26,274.78l0,.13S718.31,274.89,718.26,274.78Z"/><path class="cls-3" d="M718.37,275.19l-.08-.28S718.23,274.9,718.37,275.19Z"/><path class="cls-3" d="M719.13,274.74l-.18-.36Z"/><path class="cls-3" d="M719.28,274.53c-.09-.06-.54-.7-.48-.44l.15.29C718.69,273.83,719.56,275.16,719.28,274.53Z"/><path class="cls-3" d="M722.51,278.51l-.32-.2a3.52,3.52,0,0,1,.52,1C723.53,280.34,722.21,278.47,722.51,278.51Z"/><path class="cls-3" d="M723.32,278.79c0,.23.3.56.41.78A1.83,1.83,0,0,0,723.32,278.79Z"/><path class="cls-3" d="M727.06,276.84l.46.91C727.52,277.58,727.34,277.4,727.06,276.84Z"/><polygon class="cls-3" points="725.38 271.76 725.02 271.23 725.41 272.08 725.38 271.76"/><polygon class="cls-3" points="729.11 278.04 729.14 278.19 729.09 277.8 729.11 278.04"/><path class="cls-3" d="M735.27,274.61l-.56-1.13C734.76,273.71,735.35,275,735.27,274.61Z"/><path class="cls-3" d="M737.49,272.16c.29.56.54.89.33.31C737.72,272.42,737.45,272,737.49,272.16Z"/><polygon class="cls-3" points="746.67 270.38 746.78 270.79 746.75 270.42 746.67 270.38"/></g></g></g></g></svg>