<svg xmlns="http://www.w3.org/2000/svg" viewBox="0 0 187.12 50.45"><defs><style>.cls-1,.cls-2{fill:#fff;}.cls-2{opacity:0.3;}</style></defs><title>logo_monitor_w</title><g id="Layer_2" data-name="Layer 2"><g id="Layer_1-2" data-name="Layer 1"><rect class="cls-1" x="51.28" y="37.15" width="135.84" height="0.59"/><rect class="cls-1" x="51.28" width="135.84" height="0.59"/><path class="cls-1" d="M77.25,7.93v21.3h-4V19.47L66.54,29h-.05l-6.42-8.87v9.15h-3.9V7.93h0L66.57,22.64,77.19,7.93Z"/><path class="cls-1" d="M81,13.83A10.5,10.5,0,0,1,84.83,10a10.16,10.16,0,0,1,10.43,0,10.79,10.79,0,0,1,3.83,3.85,10.22,10.22,0,0,1,0,10.43,10.62,10.62,0,0,1-3.83,3.79,10.39,10.39,0,0,1-10.45,0A10.43,10.43,0,0,1,81,24.26a10.35,10.35,0,0,1,0-10.43Zm3.61,8.48a6.51,6.51,0,0,0,2.31,2.38,6.19,6.19,0,0,0,3.24.87,5.87,5.87,0,0,0,3.14-.87,6.2,6.2,0,0,0,2.23-2.37,6.87,6.87,0,0,0,.8-3.29,6.7,6.7,0,0,0-.83-3.34,6.41,6.41,0,0,0-2.27-2.38,6.25,6.25,0,0,0-6.36,0,6.41,6.41,0,0,0-2.27,2.38A6.7,6.7,0,0,0,83.79,19,6.62,6.62,0,0,0,84.63,22.31Z"/><path class="cls-1" d="M121.32,8.77v21.3h-.11L106.89,17.14,107,29.23h-4.09V8h.17l14.29,13.13-.09-12.32Z"/><path class="cls-1" d="M129,8.77V29.23h-4V8.77Z"/><path class="cls-1" d="M145,8.77v3.89h-5V29.23h-4V12.66H131.2V8.77Z"/><path class="cls-1" d="M147.36,13.83A10.65,10.65,0,0,1,151.17,10a10.16,10.16,0,0,1,10.43,0,10.81,10.81,0,0,1,3.84,3.85,10.22,10.22,0,0,1,0,10.43,10.65,10.65,0,0,1-3.84,3.79,10.37,10.37,0,0,1-10.44,0,10.54,10.54,0,0,1-3.8-3.79,10.41,10.41,0,0,1,0-10.43ZM151,22.31a6.36,6.36,0,0,0,2.31,2.38,6.19,6.19,0,0,0,3.24.87,5.89,5.89,0,0,0,3.14-.87,6.17,6.17,0,0,0,2.22-2.37,7.11,7.11,0,0,0,0-6.63,6.49,6.49,0,0,0-2.27-2.38,6.27,6.27,0,0,0-6.37,0A6.38,6.38,0,0,0,151,15.69a6.71,6.71,0,0,0-.84,3.34A6.52,6.52,0,0,0,151,22.31Z"/><path class="cls-1" d="M180.27,29.23,176,22.73h-2.69v6.5h-4V8.77h6.21a8.59,8.59,0,0,1,5.9,1.85,6.36,6.36,0,0,1,2.1,5,8.09,8.09,0,0,1-.79,3.55,5.92,5.92,0,0,1-2.43,2.6L185,29.23Zm-7-10.4h2.86a2.85,2.85,0,0,0,2.39-1,3.3,3.3,0,0,0,.75-2.07,3.86,3.86,0,0,0-.64-2.12,2.68,2.68,0,0,0-2.47-1h-2.89Z"/><path class="cls-2" d="M31.55.3H12A12,12,0,0,0,.06,12.24V37.45l16.14-27,6.07-7Z"/><path class="cls-1" d="M28.84,3.09a16,16,0,0,0-8.29,5.37,5.46,5.46,0,0,0,1.54,4.16A22.87,22.87,0,0,1,28.84,3.09Z"/><path class="cls-1" d="M20.58,18.62C18.91,16.86,17.76,14,18,13.33a16.06,16.06,0,0,0-1,5.35,16.47,16.47,0,0,0,6.36,12.9C21.56,29,20.52,23.57,20.5,21A22.28,22.28,0,0,1,20.58,18.62Z"/><path class="cls-1" d="M33.49,16A13.8,13.8,0,0,0,40,14.5c5.37-2.86,5.79-4.5,5.79-4.5S43.2,4.51,35.08,2.88c0,0-2.93,1-5,5.34a26.11,26.11,0,0,0-2.36,6.93A20.63,20.63,0,0,0,33.49,16Zm.29-7.57h0a3,3,0,0,1,2.91,3,2.92,2.92,0,1,1-2.91-3Z"/><path class="cls-1" d="M49.18,12.6a18.58,18.58,0,0,0-33.55-3l0-.06L0,37.45H31.33A18.57,18.57,0,0,0,49.18,12.6ZM30.53,34.48a10.26,10.26,0,0,0,1.93.15c7.18,0,13.22-4.21,14.77-11.45,1-3.54,1.56-1.62,1.32-.46-1.23,8.35-8.09,13.52-16.3,13.53-9.26,0-16.82-7.79-16.82-17.35S23,1.52,32.21,1.51A16.56,16.56,0,0,1,48.75,17.29c.1.61-.82,1.22-1-.36,0-.3,0-.33-.13-.41s-.17.08-.23.19c-1.88,3.59-6.09,6-11.59,6.43a22.14,22.14,0,0,1-9.06-1.31C26.64,24.63,27.94,32.68,30.53,34.48Z"/><path class="cls-1" d="M61,48.53a3,3,0,0,1-1.1.19,3.42,3.42,0,0,1-1.75-.44A3,3,0,0,1,57,47.1a3.34,3.34,0,0,1-.41-1.63A3.65,3.65,0,0,1,57,43.74a3,3,0,0,1,1.12-1.19,3.12,3.12,0,0,1,1.65-.43,3.51,3.51,0,0,1,1,.15,4,4,0,0,1,.86.38l-.41,1a2.52,2.52,0,0,0-1.47-.51,2,2,0,0,0-1.06.31,2.23,2.23,0,0,0-.78.83,2.3,2.3,0,0,0-.29,1.16A2.57,2.57,0,0,0,58,46.6a2,2,0,0,0,.77.83,2.2,2.2,0,0,0,1.16.3,2.24,2.24,0,0,0,.84-.15,2,2,0,0,0,.64-.36l.43.92A3.13,3.13,0,0,1,61,48.53Z"/><path class="cls-1" d="M63.57,43.18a.57.57,0,0,1,.79,0,.5.5,0,0,1,.17.38.5.5,0,0,1-.17.37.6.6,0,0,1-.39.15.6.6,0,0,1-.4-.15.47.47,0,0,1-.18-.37A.48.48,0,0,1,63.57,43.18Zm.86,1.72v3.75h-1V44.9Z"/><path class="cls-1" d="M69.85,44.9v3.75H69L68.89,48a1.46,1.46,0,0,1-.57.61,1.71,1.71,0,0,1-.87.23,1.22,1.22,0,0,1-.86-.32,1.09,1.09,0,0,1-.35-.81V44.9h1v2.43a.58.58,0,0,0,.62.63.87.87,0,0,0,.72-.4,1.7,1.7,0,0,0,.29-1V44.9Z"/><path class="cls-1" d="M75.67,41.73v6.92h-1v-.51a2.08,2.08,0,0,1-1.48.61,1.89,1.89,0,0,1-.94-.25,1.74,1.74,0,0,1-.66-.71,2.32,2.32,0,0,1-.24-1.08,2.13,2.13,0,0,1,.25-1.06,1.72,1.72,0,0,1,.7-.69,2.13,2.13,0,0,1,1-.23,2,2,0,0,1,.77.15,1.75,1.75,0,0,1,.59.42V41.73Zm-1.42,6a1.18,1.18,0,0,0,.43-.59v-.8a1.07,1.07,0,0,0-.42-.57,1.24,1.24,0,0,0-.74-.22,1.13,1.13,0,0,0-.57.15,1.26,1.26,0,0,0-.43.43,1.13,1.13,0,0,0-.16.61,1.16,1.16,0,0,0,.16.61,1.18,1.18,0,0,0,.43.43,1,1,0,0,0,.57.16A1.23,1.23,0,0,0,74.25,47.69Z"/><path class="cls-1" d="M81.41,44.9v3.75h-1v-.54a2.31,2.31,0,0,1-.55.44,1.62,1.62,0,0,1-.81.2,2.07,2.07,0,0,1-1-.23,1.6,1.6,0,0,1-.67-.67,2.12,2.12,0,0,1-.25-1.07,2.21,2.21,0,0,1,.26-1.08,1.89,1.89,0,0,1,.68-.72,1.85,1.85,0,0,1,1-.25,1.55,1.55,0,0,1,1.37.67l.07-.5ZM80,47.72a1.1,1.1,0,0,0,.4-.59v-.82a1,1,0,0,0-.42-.55,1.12,1.12,0,0,0-.7-.22,1.07,1.07,0,0,0-.8.34,1.14,1.14,0,0,0-.33.84,1.3,1.3,0,0,0,.16.62,1.26,1.26,0,0,0,.43.43,1.07,1.07,0,0,0,.57.16A1.09,1.09,0,0,0,80,47.72Z"/><path class="cls-1" d="M87.23,41.73v6.92h-1v-.51a2.08,2.08,0,0,1-1.48.61,1.89,1.89,0,0,1-.94-.25,1.74,1.74,0,0,1-.66-.71,2.32,2.32,0,0,1-.24-1.08,2.13,2.13,0,0,1,.25-1.06,1.72,1.72,0,0,1,.7-.69,2.13,2.13,0,0,1,1-.23,2,2,0,0,1,.77.15,1.75,1.75,0,0,1,.59.42V41.73Zm-1.42,6a1.18,1.18,0,0,0,.43-.59v-.8a1.07,1.07,0,0,0-.42-.57,1.24,1.24,0,0,0-.74-.22,1.13,1.13,0,0,0-.57.15,1.26,1.26,0,0,0-.43.43,1.13,1.13,0,0,0-.16.61,1.16,1.16,0,0,0,.16.61,1.18,1.18,0,0,0,.43.43,1,1,0,0,0,.57.16A1.23,1.23,0,0,0,85.81,47.69Z"/><path class="cls-1" d="M93,44.9v3.75H92v-.54a2.31,2.31,0,0,1-.55.44,1.62,1.62,0,0,1-.81.2,2.07,2.07,0,0,1-1-.23,1.6,1.6,0,0,1-.67-.67,2.12,2.12,0,0,1-.25-1.07A2.21,2.21,0,0,1,89,45.7a1.89,1.89,0,0,1,.68-.72,1.85,1.85,0,0,1,1-.25A1.55,1.55,0,0,1,92,45.4l.07-.5Zm-1.39,2.82a1.1,1.1,0,0,0,.4-.59v-.82a1,1,0,0,0-.42-.55,1.12,1.12,0,0,0-.7-.22,1.07,1.07,0,0,0-.8.34,1.14,1.14,0,0,0-.33.84,1.3,1.3,0,0,0,.16.62,1.26,1.26,0,0,0,.43.43,1.07,1.07,0,0,0,.57.16A1.09,1.09,0,0,0,91.58,47.72Z"/><path class="cls-1" d="M98.11,45.05a1.06,1.06,0,0,1,.36.81v2.79h-1V46.22a.67.67,0,0,0-.18-.46.56.56,0,0,0-.46-.18.92.92,0,0,0-.76.39,1.64,1.64,0,0,0-.3,1v1.67h-1V44.9h.89l.08.66a1.44,1.44,0,0,1,.59-.61,1.8,1.8,0,0,1,.89-.21A1.24,1.24,0,0,1,98.11,45.05Z"/><path class="cls-1" d="M100.24,45.71A1.86,1.86,0,0,1,101,45a2.41,2.41,0,0,1,2.18,0,1.81,1.81,0,0,1,.73.72,2,2,0,0,1,.26,1,2.1,2.1,0,0,1-.26,1,1.94,1.94,0,0,1-.73.72,2.19,2.19,0,0,1-1.1.27A2.39,2.39,0,0,1,101,48.5a1.75,1.75,0,0,1-.75-.7,2,2,0,0,1-.27-1.07A2,2,0,0,1,100.24,45.71Zm1,1.88a1.06,1.06,0,0,0,1.56,0,1.23,1.23,0,0,0,.31-.85,1.28,1.28,0,0,0-.31-.86,1,1,0,0,0-.79-.34,1,1,0,0,0-.77.35,1.29,1.29,0,0,0-.31.85A1.25,1.25,0,0,0,101.28,47.59Z"/><path class="cls-1" d="M112.93,41.73v6.92h-1v-.51a2.07,2.07,0,0,1-1.47.61,1.9,1.9,0,0,1-1-.25,1.74,1.74,0,0,1-.66-.71,2.32,2.32,0,0,1-.24-1.08,2.13,2.13,0,0,1,.25-1.06,1.72,1.72,0,0,1,.7-.69,2.13,2.13,0,0,1,1-.23,2,2,0,0,1,.77.15,1.75,1.75,0,0,1,.59.42V41.73Zm-1.42,6a1.18,1.18,0,0,0,.43-.59v-.8a1.07,1.07,0,0,0-.42-.57,1.24,1.24,0,0,0-.74-.22,1.16,1.16,0,0,0-.57.15,1.26,1.26,0,0,0-.43.43,1.23,1.23,0,0,0-.16.61,1.26,1.26,0,0,0,.16.61,1.18,1.18,0,0,0,.43.43,1.07,1.07,0,0,0,.57.16A1.23,1.23,0,0,0,111.51,47.69Z"/><path class="cls-1" d="M117.39,47.6l.46.74a3.15,3.15,0,0,1-.65.29,2,2,0,0,1-.67.12,2.34,2.34,0,0,1-1.12-.26,1.78,1.78,0,0,1-.73-.71,2.08,2.08,0,0,1-.25-1,2,2,0,0,1,.28-1,2,2,0,0,1,.78-.73,2.14,2.14,0,0,1,1.06-.27,1.89,1.89,0,0,1,1.27.44,2.2,2.2,0,0,1,.67,1.27l-2.89,1a1,1,0,0,0,.4.36,1.26,1.26,0,0,0,.55.12A1.42,1.42,0,0,0,117.39,47.6Zm-1.69-1.76a1.23,1.23,0,0,0-.29.85.66.66,0,0,0,0,.15l2-.7a1,1,0,0,0-.33-.46,1,1,0,0,0-.58-.17A1,1,0,0,0,115.7,45.84Z"/><path class="cls-1" d="M124.19,41.73v6.92h-1V41.73Z"/><path class="cls-1" d="M129.93,44.9v3.75h-1v-.54a2.31,2.31,0,0,1-.55.44,1.65,1.65,0,0,1-.81.2,2,2,0,0,1-1-.23,1.6,1.6,0,0,1-.67-.67,2.39,2.39,0,0,1,0-2.15,1.89,1.89,0,0,1,.68-.72,1.85,1.85,0,0,1,1-.25,1.52,1.52,0,0,1,1.36.67l.08-.5Zm-1.39,2.82a1.1,1.1,0,0,0,.4-.59v-.82a1,1,0,0,0-.42-.55,1.14,1.14,0,0,0-.7-.22,1.05,1.05,0,0,0-.8.34,1.14,1.14,0,0,0-.33.84,1.19,1.19,0,0,0,.16.62,1.26,1.26,0,0,0,.43.43,1,1,0,0,0,.57.16A1.11,1.11,0,0,0,128.54,47.72Z"/><path class="cls-1" d="M139.24,48.53a3,3,0,0,1-1.1.19,3.45,3.45,0,0,1-1.75-.44,3,3,0,0,1-1.15-1.18,3.34,3.34,0,0,1-.4-1.63,3.65,3.65,0,0,1,.4-1.73,2.94,2.94,0,0,1,1.13-1.19,3.11,3.11,0,0,1,1.64-.43,3.51,3.51,0,0,1,1.05.15,4,4,0,0,1,.86.38l-.41,1a2.51,2.51,0,0,0-1.46-.51,1.9,1.9,0,0,0-1.06.31,2.25,2.25,0,0,0-.79.83,2.4,2.4,0,0,0-.29,1.16,2.57,2.57,0,0,0,.27,1.19,2.06,2.06,0,0,0,.77.83,2.2,2.2,0,0,0,1.16.3,2.34,2.34,0,0,0,.85-.15,1.93,1.93,0,0,0,.63-.36l.43.92A3,3,0,0,1,139.24,48.53Z"/><path class="cls-1" d="M141.6,45.71a1.86,1.86,0,0,1,.75-.72,2.41,2.41,0,0,1,2.18,0,1.81,1.81,0,0,1,.73.72,2,2,0,0,1,.26,1,2.1,2.1,0,0,1-.26,1,1.94,1.94,0,0,1-.73.72,2.19,2.19,0,0,1-1.1.27,2.39,2.39,0,0,1-1.08-.25,1.75,1.75,0,0,1-.75-.7,2,2,0,0,1-.27-1.07A2,2,0,0,1,141.6,45.71Zm1,1.88a1,1,0,0,0,.77.34,1,1,0,0,0,.79-.34,1.23,1.23,0,0,0,.31-.85,1.28,1.28,0,0,0-.31-.86,1,1,0,0,0-.79-.34,1,1,0,0,0-.77.35,1.29,1.29,0,0,0-.31.85A1.25,1.25,0,0,0,142.64,47.59Z"/><path class="cls-1" d="M148.4,45.22a2,2,0,0,1,.56-.36,1.23,1.23,0,0,1,.49-.13l0,1a1.25,1.25,0,0,0-1.22.64A1.35,1.35,0,0,0,148,47v1.62h-1V44.9h.89l.07.86A1.83,1.83,0,0,1,148.4,45.22Z"/><path class="cls-1" d="M152.3,45.22a2.09,2.09,0,0,1,.57-.36,1.15,1.15,0,0,1,.48-.13l0,1a1.25,1.25,0,0,0-.73.15,1.31,1.31,0,0,0-.5.49,1.35,1.35,0,0,0-.18.67v1.62h-1V44.9h.9l.07.86A1.79,1.79,0,0,1,152.3,45.22Z"/><path class="cls-1" d="M158.42,44.9v3.75h-.89l-.06-.68a1.48,1.48,0,0,1-.58.61,1.66,1.66,0,0,1-.87.23,1.24,1.24,0,0,1-.86-.32,1.12,1.12,0,0,1-.35-.81V44.9h1v2.43a.57.57,0,0,0,.61.63.87.87,0,0,0,.72-.4,1.7,1.7,0,0,0,.29-1V44.9Z"/><path class="cls-1" d="M163.66,45a1.72,1.72,0,0,1,.66.7,2.32,2.32,0,0,1,.24,1.08,2,2,0,0,1-.26,1.05,1.65,1.65,0,0,1-.73.7,2.26,2.26,0,0,1-1,.24,1.68,1.68,0,0,1-.72-.16,1.46,1.46,0,0,1-.56-.4v2.26h-1V44.82h.86l.09.56a2.33,2.33,0,0,1,.68-.48,2.14,2.14,0,0,1,.84-.17A1.82,1.82,0,0,1,163.66,45Zm-.72,2.82a1.18,1.18,0,0,0,.44-.42,1,1,0,0,0,.17-.6,1.21,1.21,0,0,0-.33-.87,1.09,1.09,0,0,0-.82-.34,1.23,1.23,0,0,0-.73.21,1.17,1.17,0,0,0-.43.6v.75a1.07,1.07,0,0,0,.38.6,1.16,1.16,0,0,0,.71.23A1.29,1.29,0,0,0,162.94,47.8Z"/><path class="cls-1" d="M168.55,48.63a2.27,2.27,0,0,1-.72.12,2.41,2.41,0,0,1-1.1-.24,1.74,1.74,0,0,1-.73-.69,2.1,2.1,0,0,1-.26-1,2,2,0,0,1,.28-1.05,1.91,1.91,0,0,1,.73-.68,2.09,2.09,0,0,1,1-.24,2.19,2.19,0,0,1,1.46.48l-.49.64a1.89,1.89,0,0,0-.4-.22,1.28,1.28,0,0,0-.48-.09,1,1,0,0,0-.77.33,1.17,1.17,0,0,0,.87,2,1.11,1.11,0,0,0,.74-.25l.5.62A1.88,1.88,0,0,1,168.55,48.63Z"/><path class="cls-1" d="M170.76,43.18a.59.59,0,0,1,.4-.16.57.57,0,0,1,.38.16.47.47,0,0,1,.17.38.46.46,0,0,1-.17.37.55.55,0,0,1-.38.15.59.59,0,0,1-.4-.15.47.47,0,0,1-.18-.37A.48.48,0,0,1,170.76,43.18Zm.86,1.72v3.75h-1V44.9Z"/><path class="cls-1" d="M173.39,45.71a1.86,1.86,0,0,1,.75-.72,2.17,2.17,0,0,1,1.09-.26,2.11,2.11,0,0,1,1.08.26,1.83,1.83,0,0,1,.74.72,2,2,0,0,1,.25,1,2.09,2.09,0,0,1-.25,1,2,2,0,0,1-.74.72,2.15,2.15,0,0,1-1.09.27,2.39,2.39,0,0,1-1.08-.25,1.75,1.75,0,0,1-.75-.7,2,2,0,0,1-.27-1.07A2,2,0,0,1,173.39,45.71Zm1,1.88a1,1,0,0,0,.77.34,1,1,0,0,0,.79-.34,1.23,1.23,0,0,0,.3-.85,1.27,1.27,0,0,0-.3-.86,1,1,0,0,0-.79-.34,1,1,0,0,0-.77.35,1.24,1.24,0,0,0-.31.85A1.2,1.2,0,0,0,174.43,47.59Zm1.12-3.36h-.62l.71-1.19h1.1Z"/><path class="cls-1" d="M182.12,45.05a1.1,1.1,0,0,1,.36.81v2.79h-1V46.22a.71.71,0,0,0-.17-.46.58.58,0,0,0-.47-.18.93.93,0,0,0-.76.39,1.7,1.7,0,0,0-.29,1v1.67h-1V44.9h.9l.07.66a1.51,1.51,0,0,1,.59-.61,1.83,1.83,0,0,1,.89-.21A1.28,1.28,0,0,1,182.12,45.05Z"/></g></g></svg>