<?xml version="1.0" encoding="utf-8"?>
<!-- Generator: Adobe Illustrator 23.0.4, SVG Export Plug-In . SVG Version: 6.00 Build 0)  -->
<svg version="1.1" id="Layer_1" xmlns="http://www.w3.org/2000/svg" xmlns:xlink="http://www.w3.org/1999/xlink" x="0px" y="0px"
	 viewBox="0 0 64 64" style="enable-background:new 0 0 64 64;" xml:space="preserve">
<style type="text/css">
	.st0{fill:#FFFFFF;}
</style>
<g>
	<g>
		<path class="st0" d="M31.9,0c9,0,16.6,3.1,22.7,9.3C60.9,15.5,64,23,64,32s-3,16.5-9.1,22.5c-6.5,6.3-14.2,9.5-23,9.5
			c-8.6,0-16.2-3.1-22.5-9.4S0,40.8,0,32S3.1,15.7,9.4,9.3C15.6,3.1,23.1,0,31.9,0z M32.1,5.8c-7.3,0-13.4,2.6-18.5,7.7
			C8.4,18.8,5.8,25,5.8,32c0,7.1,2.6,13.2,7.8,18.4s11.4,7.8,18.5,7.8s13.3-2.6,18.6-7.8c5-4.8,7.5-11,7.5-18.3s-2.6-13.5-7.7-18.6
			C45.5,8.3,39.3,5.8,32.1,5.8z M40.6,24.1v13.1H37v15.5H27V37.1h-3.7v-13c0-0.6,0.2-1.1,0.6-1.5s0.9-0.6,1.5-0.6h13.1
			c0.5,0,1,0.2,1.4,0.6C40.4,23,40.6,23.5,40.6,24.1z M27.5,15.8c0-3,1.5-4.5,4.5-4.5s4.5,1.5,4.5,4.5S35,20.3,32,20.3
			S27.5,18.8,27.5,15.8z"/>
	</g>
</g>
</svg>
