<svg xmlns="http://www.w3.org/2000/svg" viewBox="0 0 184.31 50.81"><defs><style>.cls-1{fill:#fff;fill-rule:evenodd;}</style></defs><title>logo_transparencia</title><g id="Layer_2" data-name="Layer 2"><g id="Layer_1-2" data-name="Layer 1"><path class="cls-1" d="M44.15,44.87l-.27.57a3.6,3.6,0,0,0-.74-.32,2.86,2.86,0,0,0-.77-.1,2.56,2.56,0,0,0-.95.16,1.89,1.89,0,0,0-.7.49,2.82,2.82,0,0,0-.55.89,3,3,0,0,0-.18,1,2.94,2.94,0,0,0,.15.94,2.54,2.54,0,0,0,.45.8,1.94,1.94,0,0,0,.73.58,2.26,2.26,0,0,0,.94.2A2.32,2.32,0,0,0,43,50a4.43,4.43,0,0,0,.87-.37l.24.58a6.12,6.12,0,0,1-1,.42,3,3,0,0,1-.91.15,3,3,0,0,1-1.09-.2,2.53,2.53,0,0,1-.9-.58,2.73,2.73,0,0,1-.7-1.05,3.49,3.49,0,0,1-.25-1.35,3.76,3.76,0,0,1,.22-1.27,3.08,3.08,0,0,1,.68-1,2.67,2.67,0,0,1,1-.67,3.31,3.31,0,0,1,1.25-.23,3.21,3.21,0,0,1,.84.12,5.85,5.85,0,0,1,.93.36m2.53,1.45c0,.14-.07.27-.1.38a.83.83,0,0,1-.06.19l-.64,1.63h1.58l-.59-1.6a.87.87,0,0,1-.07-.19c0-.11-.07-.25-.12-.41m-.23-.57H47l1.85,4.8-.57.2L47.61,49H45.7L45,50.75l-.55-.19Zm3.75.44,0,2h.54a1.43,1.43,0,0,0,.91-.26,1,1,0,0,0,0-1.44,1.15,1.15,0,0,0-.8-.25Zm-.57-.44H51.1a1.38,1.38,0,0,1,1,.37,1.31,1.31,0,0,1,.38,1,1.35,1.35,0,0,1-.45,1.07,1.74,1.74,0,0,1-1.22.4h-.68l0,2.06h-.57Zm3.8.13H54l-.08,4.78h-.56Zm.44-1.64h.66l-.93,1.18h-.4Zm.89,1.51H58.3v.52H56.81l-.07,4.39h-.59l.07-4.39H54.75Zm4.3,0h.6L59.6,49v0a1.21,1.21,0,0,0,.36.92,1.33,1.33,0,0,0,1,.35,1.14,1.14,0,0,0,1-.41,2.31,2.31,0,0,0,.33-1.3l0-2.78h.58l-.05,2.92a2.36,2.36,0,0,1-.49,1.54,1.77,1.77,0,0,1-1.38.52,1.92,1.92,0,0,1-1.44-.5A2.07,2.07,0,0,1,59,48.74v-.09Zm4.94,0h.59l-.08,4.37h2v.54H63.92Zm5.5.42a1.69,1.69,0,0,0-1.32.57,2.41,2.41,0,0,0,0,2.94,1.71,1.71,0,0,0,1.32.56,1.7,1.7,0,0,0,1.33-.57,2.25,2.25,0,0,0,.5-1.53,2,2,0,0,0-.51-1.41,1.71,1.71,0,0,0-1.32-.56m0-.51a2.85,2.85,0,0,1,1,.15,2.25,2.25,0,0,1,.74.46,2.48,2.48,0,0,1,.57.87,2.72,2.72,0,0,1,.2,1.07,2.67,2.67,0,0,1-.2,1,2.38,2.38,0,0,1-.54.85,2.19,2.19,0,0,1-.75.48,2.88,2.88,0,0,1-2,0,2.11,2.11,0,0,1-.76-.52,2.5,2.5,0,0,1-.53-.83,2.73,2.73,0,0,1-.18-1,2.84,2.84,0,0,1,.18-1,2.63,2.63,0,0,1,.52-.85,2.14,2.14,0,0,1,.77-.52,2.54,2.54,0,0,1,1-.18m5.43-1.14h4.42l0,.66H77.48l-.09,5.48h-.74l.09-5.48H74.9Zm5.73,1.69,0,1.88h.54a1.35,1.35,0,0,0,.89-.25.85.85,0,0,0,.3-.7.91.91,0,0,0-.26-.7,1.15,1.15,0,0,0-.78-.23Zm-.58-.46h1.31a2.68,2.68,0,0,1,.71.07,1.09,1.09,0,0,1,.43.25,1.14,1.14,0,0,1,.31.44,1.4,1.4,0,0,1,.11.58,1.2,1.2,0,0,1-.3.84,1.46,1.46,0,0,1-.87.45,1.27,1.27,0,0,1,.33.24,2.55,2.55,0,0,1,.34.41l1,1.43-.47.35-1.2-1.76a1.76,1.76,0,0,0-.37-.39,1,1,0,0,0-.48-.11h-.31l0,2.11H80Zm5.82.57c0,.14-.07.27-.1.38s-.05.17-.06.19l-.64,1.63h1.58l-.6-1.6L86,46.73c0-.11-.07-.25-.12-.41m-.23-.57h.53L88,50.55l-.57.2L86.82,49H84.91l-.73,1.74-.54-.19Zm3.59-.1,2.2,3.26a5.19,5.19,0,0,1,.28.46,3.26,3.26,0,0,1,.2.43l0-.47c0-.16,0-.33,0-.52V45.75h.56l0,4.8-.47.18L89.67,47.3l-.2-.32c-.07-.13-.14-.28-.22-.45,0,.27,0,.51,0,.71s0,.38,0,.51v2.91h-.55l0-4.78Zm6.86.38-.26.42a3.57,3.57,0,0,0-.48-.24,1.47,1.47,0,0,0-.45-.08,1,1,0,0,0-.65.22.74.74,0,0,0-.25.58.87.87,0,0,0,0,.28.49.49,0,0,0,.14.23,2.17,2.17,0,0,0,.7.43l.38.18a1.57,1.57,0,0,1,.63.53,1.3,1.3,0,0,1,.22.75,1.37,1.37,0,0,1-.43,1,1.48,1.48,0,0,1-1.07.4,2,2,0,0,1-.63-.1,2.88,2.88,0,0,1-.64-.31l.22-.45a4.52,4.52,0,0,0,.55.27,1.23,1.23,0,0,0,.43.09.93.93,0,0,0,.69-.27.92.92,0,0,0,.26-.67.78.78,0,0,0-.06-.31.79.79,0,0,0-.19-.25,4.58,4.58,0,0,0-.85-.5l-.33-.17a1.17,1.17,0,0,1-.47-.44,1.21,1.21,0,0,1-.17-.63,1.36,1.36,0,0,1,.38-1,1.47,1.47,0,0,1,1-.36,2.16,2.16,0,0,1,.62.09,2.81,2.81,0,0,1,.61.29m1.61.16,0,2h.55a1.39,1.39,0,0,0,.89-.26.88.88,0,0,0,.32-.73.91.91,0,0,0-.27-.71,1.15,1.15,0,0,0-.8-.25Zm-.57-.44h1.46a1.38,1.38,0,0,1,1,.37,1.51,1.51,0,0,1-.07,2.08,1.74,1.74,0,0,1-1.22.4h-.68l0,2.06h-.58Zm5.39.57c0,.14-.07.27-.1.38a.83.83,0,0,1-.06.19l-.64,1.63h1.58l-.59-1.6a.87.87,0,0,1-.07-.19c0-.11-.07-.25-.12-.41m-.23-.57h.53l1.85,4.8-.57.2L103.48,49h-1.92l-.72,1.74-.55-.19Zm3.68.46,0,1.88h.54a1.37,1.37,0,0,0,.89-.25.85.85,0,0,0,.3-.7.91.91,0,0,0-.26-.7,1.15,1.15,0,0,0-.78-.23Zm-.57-.46h1.31a2.55,2.55,0,0,1,.7.07,1.06,1.06,0,0,1,.44.25,1.25,1.25,0,0,1,.31.44,1.58,1.58,0,0,1,.11.58,1.2,1.2,0,0,1-.3.84,1.49,1.49,0,0,1-.88.45,1.51,1.51,0,0,1,.34.24,2.55,2.55,0,0,1,.34.41l1,1.43-.47.35-1.21-1.76a1.56,1.56,0,0,0-.37-.39,1,1,0,0,0-.48-.11H106l0,2.11h-.56Zm4.19,0H112v.51h-1.87l0,1.61H112v.5h-1.82l0,1.78h1.94l0,.51h-2.51Zm3.86-.1,2.2,3.26c.11.17.21.32.29.46s.14.29.19.43c0-.15,0-.31,0-.47s0-.33,0-.52V45.75h.56l0,4.8-.47.18-2.28-3.43a3,3,0,0,1-.2-.32c-.07-.13-.14-.28-.22-.45,0,.27,0,.51,0,.71s0,.38,0,.51v2.91H113l0-4.78Zm8.17.38-.22.45a2.19,2.19,0,0,0-.6-.25,2,2,0,0,0-.61-.08,2.15,2.15,0,0,0-.75.12,1.61,1.61,0,0,0-.57.39,2.35,2.35,0,0,0-.58,1.55,2.37,2.37,0,0,0,.12.76,2,2,0,0,0,.36.63,1.5,1.5,0,0,0,.58.46,1.71,1.71,0,0,0,.75.16,2.31,2.31,0,0,0,.61-.09,4.82,4.82,0,0,0,.69-.3l.2.46a4.86,4.86,0,0,1-.83.34,2.59,2.59,0,0,1-.74.12,2.49,2.49,0,0,1-.87-.16,2.11,2.11,0,0,1-.72-.46,2.34,2.34,0,0,1-.56-.84,3,3,0,0,1,0-2.1,2.38,2.38,0,0,1,.54-.83,2.24,2.24,0,0,1,.8-.53,2.73,2.73,0,0,1,1.67-.09,4.23,4.23,0,0,1,.75.29m.9-.28h.58L123,50.66h-.58Zm3.51.57c0,.14-.07.27-.11.38a.51.51,0,0,1-.06.19l-.64,1.63h1.58l-.59-1.6-.07-.19c0-.11-.07-.25-.11-.41m-.24-.57h.54l1.84,4.8-.57.2L127,49h-1.92l-.72,1.74-.55-.19Zm5.78-1.23h.72l-.1,6.14h-.73Zm2.61,1.13,2.2,3.26a5.19,5.19,0,0,1,.28.46,3.26,3.26,0,0,1,.2.43,3.59,3.59,0,0,1,0-.47V45.75h.55l0,4.8-.47.18-2.28-3.43a3,3,0,0,1-.19-.32,4.67,4.67,0,0,1-.23-.45c0,.27,0,.51,0,.71s0,.38,0,.51v2.91h-.55l0-4.78Zm4,.1h3.54v.52h-1.48l-.07,4.39h-.59l.07-4.39h-1.47Zm4.3,0h2.43v.51H143l0,1.61h1.82v.5H143l0,1.78h1.94l0,.51h-2.51Zm3.95.46,0,1.88h.55a1.32,1.32,0,0,0,.88-.25.85.85,0,0,0,.3-.7.88.88,0,0,0-.26-.7,1.14,1.14,0,0,0-.77-.23Zm-.57-.46h1.3a2.63,2.63,0,0,1,.71.07,1.12,1.12,0,0,1,.44.25,1.4,1.4,0,0,1,.31.44,1.58,1.58,0,0,1,.11.58,1.16,1.16,0,0,1-.31.84,1.46,1.46,0,0,1-.87.45,1.51,1.51,0,0,1,.34.24,4.34,4.34,0,0,1,.34.41l1,1.43-.48.35-1.2-1.76a1.4,1.4,0,0,0-.37-.39,1,1,0,0,0-.48-.11h-.31l0,2.11h-.56Zm4.62-.1,2.21,3.26.28.46.19.43,0-.47V45.75h.55l0,4.8-.46.18-2.28-3.43-.2-.32c-.07-.13-.14-.28-.22-.45,0,.27,0,.51,0,.71s0,.38,0,.51v2.91h-.55l0-4.78Zm6.09.67c0,.14-.06.27-.09.38s-.05.17-.06.19l-.64,1.63h1.57l-.59-1.6-.06-.19c0-.11-.07-.25-.13-.41m-.22-.57h.53l1.84,4.8-.56.2L157.5,49h-1.93l-.72,1.74-.54-.19Zm6.85.28-.21.45a2.19,2.19,0,0,0-.6-.25,2,2,0,0,0-.61-.08,2.2,2.2,0,0,0-.76.12,1.57,1.57,0,0,0-.56.39,2.29,2.29,0,0,0-.59,1.55A2.37,2.37,0,0,0,160,49a2.22,2.22,0,0,0,.37.63,1.43,1.43,0,0,0,.58.46,1.71,1.71,0,0,0,.75.16,2.31,2.31,0,0,0,.61-.09,4.3,4.3,0,0,0,.68-.3l.2.46a4.28,4.28,0,0,1-.83.34,2.47,2.47,0,0,1-.73.12,2.5,2.5,0,0,1-.88-.16,2.17,2.17,0,0,1-.71-.46,2.24,2.24,0,0,1-.57-.84,3,3,0,0,1-.19-1.09,2.79,2.79,0,0,1,.18-1,2.5,2.5,0,0,1,.53-.83,2.33,2.33,0,0,1,.8-.53,2.71,2.71,0,0,1,1-.18,2.75,2.75,0,0,1,.67.09,3.88,3.88,0,0,1,.74.29m.91-.28h.58l-.09,4.91H164Zm4,.42a1.69,1.69,0,0,0-1.32.57,2.41,2.41,0,0,0,0,2.94,1.71,1.71,0,0,0,1.32.56,1.7,1.7,0,0,0,1.33-.57,2.25,2.25,0,0,0,.5-1.53,2,2,0,0,0-.51-1.41,1.71,1.71,0,0,0-1.32-.56m0-.51a2.8,2.8,0,0,1,1,.15,2.25,2.25,0,0,1,.74.46,2.35,2.35,0,0,1,.57.87,2.72,2.72,0,0,1,.2,1.07,2.67,2.67,0,0,1-.2,1,2.38,2.38,0,0,1-.54.85,2.1,2.1,0,0,1-.75.48,2.69,2.69,0,0,1-1,.17,2.66,2.66,0,0,1-1-.17,2.11,2.11,0,0,1-.76-.52,2.53,2.53,0,0,1-.54-.83,3,3,0,0,1-.17-1,2.84,2.84,0,0,1,.18-1,2.47,2.47,0,0,1,.52-.85,2.14,2.14,0,0,1,.77-.52,2.54,2.54,0,0,1,1-.18m3.94,0,2.2,3.26a5.19,5.19,0,0,1,.28.46c.08.15.14.29.2.43,0-.15,0-.31,0-.47s0-.33,0-.52V45.75h.56l0,4.8-.47.18-2.28-3.43a3,3,0,0,1-.2-.32c-.07-.13-.14-.28-.22-.45,0,.27,0,.51,0,.71s0,.38,0,.51v2.91h-.55l0-4.78Zm6.09.67c0,.14-.06.27-.09.38s-.05.17-.06.19l-.64,1.63h1.57l-.59-1.6-.06-.19c0-.11-.08-.25-.13-.41m-.22-.57h.53l1.84,4.8-.56.2L179.08,49h-1.92l-.72,1.74-.54-.19Zm3.19,0h.59l-.07,4.37h2l0,.54H181Z"/><path class="cls-1" d="M51.13,24.22l-.07,4.28h1.3a3.14,3.14,0,0,0,2-.56,2.23,2.23,0,0,0,.06-3.17,2.64,2.64,0,0,0-1.79-.55Zm-2.22-1.61h4.3a4.25,4.25,0,0,1,3,1,3.54,3.54,0,0,1,1,2.74,3.61,3.61,0,0,1-1.16,2.8A4.47,4.47,0,0,1,53,30.17H51.08L51,35H48.7Zm16,1.72A3.68,3.68,0,0,0,62,25.56a4.86,4.86,0,0,0-1.08,3.32A4.56,4.56,0,0,0,62,32.07a4.07,4.07,0,0,0,5.8,0,4.82,4.82,0,0,0,1.09-3.31,4.63,4.63,0,0,0-1.09-3.2,3.74,3.74,0,0,0-2.9-1.2m0-1.94a7.37,7.37,0,0,1,2.59.42,5.32,5.32,0,0,1,2,1.26,6.15,6.15,0,0,1,1.37,2.13,7.09,7.09,0,0,1,.49,2.65,6.89,6.89,0,0,1-.5,2.55,6,6,0,0,1-1.34,2.09,5.72,5.72,0,0,1-2,1.29,7.07,7.07,0,0,1-2.53.43,7.54,7.54,0,0,1-2.61-.4,5.54,5.54,0,0,1-2-1.27A6,6,0,0,1,59,31.45a6.86,6.86,0,0,1-.48-2.59,6.33,6.33,0,0,1,1.78-4.67,6.26,6.26,0,0,1,4.65-1.8m10.85,2.07-.06,3.74H77a3,3,0,0,0,1.83-.49,1.68,1.68,0,0,0,.64-1.4,1.7,1.7,0,0,0-.56-1.38,2.52,2.52,0,0,0-1.65-.47Zm-2.26-1.85h3.86a5.24,5.24,0,0,1,3.3.87,3.06,3.06,0,0,1,1.11,2.59,3.38,3.38,0,0,1-.7,2.17,3.47,3.47,0,0,1-2,1.14,2.27,2.27,0,0,1,.83.54A6.14,6.14,0,0,1,80.77,31l2,3.17-2,1.15L78.2,31.21a3,3,0,0,0-.83-.91A2.1,2.1,0,0,0,76.26,30h-.57l-.1,5H73.3Zm26.9.52L99.82,25a6.61,6.61,0,0,0-1.41-.5A6,6,0,0,0,97,24.33a4.27,4.27,0,0,0-4.47,4.49A4.32,4.32,0,0,0,93.73,32a4.15,4.15,0,0,0,3.08,1.22A5.72,5.72,0,0,0,98.17,33a11.3,11.3,0,0,0,1.61-.57l.52,1.85a12.24,12.24,0,0,1-2.16.69,9.47,9.47,0,0,1-2,.23,6.32,6.32,0,0,1-2.21-.4,5.94,5.94,0,0,1-3.34-3.29,7.25,7.25,0,0,1-.5-2.73,6.84,6.84,0,0,1,.47-2.55A6.19,6.19,0,0,1,92,24.15a6.09,6.09,0,0,1,2.09-1.32,7.2,7.2,0,0,1,2.6-.45,9.62,9.62,0,0,1,1.83.18,12.8,12.8,0,0,1,1.91.57m7.4,1.2a3.68,3.68,0,0,0-2.91,1.23,4.86,4.86,0,0,0-1.08,3.32,4.56,4.56,0,0,0,1.09,3.19,4.07,4.07,0,0,0,5.8,0,4.77,4.77,0,0,0,1.09-3.31,4.58,4.58,0,0,0-1.09-3.2,3.74,3.74,0,0,0-2.9-1.2m.22-1.94a7.29,7.29,0,0,1,2.59.42,5.32,5.32,0,0,1,2,1.26,6.17,6.17,0,0,1,1.38,2.13,7.3,7.3,0,0,1,.49,2.65,6.71,6.71,0,0,1-.51,2.55,6,6,0,0,1-1.34,2.09,5.72,5.72,0,0,1-2,1.29,7.07,7.07,0,0,1-2.53.43,7.52,7.52,0,0,1-2.6-.4,5.46,5.46,0,0,1-2-1.27,6.12,6.12,0,0,1-1.39-2.09,6.86,6.86,0,0,1-.47-2.59,6.33,6.33,0,0,1,1.78-4.67,6.24,6.24,0,0,1,4.64-1.8m8.9.22h2.33L119.06,33h4.83l0,2H116.7Zm13.77,1.72a3.68,3.68,0,0,0-2.91,1.23,4.86,4.86,0,0,0-1.08,3.32,4.56,4.56,0,0,0,1.09,3.19,4.07,4.07,0,0,0,5.8,0,4.82,4.82,0,0,0,1.09-3.31,4.63,4.63,0,0,0-1.09-3.2,3.74,3.74,0,0,0-2.9-1.2m0-1.94a7.37,7.37,0,0,1,2.59.42,5.32,5.32,0,0,1,2,1.26,6,6,0,0,1,1.37,2.13,7.09,7.09,0,0,1,.49,2.65,6.89,6.89,0,0,1-.5,2.55,6,6,0,0,1-1.34,2.09,5.72,5.72,0,0,1-2,1.29,7.07,7.07,0,0,1-2.53.43,7.54,7.54,0,0,1-2.61-.4,5.54,5.54,0,0,1-2-1.27,6.24,6.24,0,0,1-1.38-2.09,6.86,6.86,0,0,1-.48-2.59A6.33,6.33,0,0,1,126,24.19a6.26,6.26,0,0,1,4.65-1.8m10.24.22h2.61L146,30.77c.08.29.17.64.26,1s.19.77.27,1.19c.15-.55.26-1,.35-1.37l.19-.69,2.72-8.3h2.62l1.95,12.27-2.22.32-1-8.27c0-.12-.05-.37-.08-.75s-.08-.9-.13-1.53c-.14.59-.25,1.08-.35,1.47s-.18.69-.25.89l-2.59,8h-2.44l-2.35-7.81c-.12-.44-.23-.87-.34-1.28s-.17-.81-.24-1.22c0,.37-.08.76-.13,1.17s-.14,1-.24,1.69l-1.15,7.65-2.2-.32Zm17.89,6.67-.05,4.11h1.49a2.82,2.82,0,0,0,1.8-.52,1.79,1.79,0,0,0,.64-1.48,2,2,0,0,0-.61-1.56,2.46,2.46,0,0,0-1.73-.55Zm.11-5.18-.08,3.7h1.48a2.4,2.4,0,0,0,1.57-.5A1.63,1.63,0,0,0,162.5,26a1.71,1.71,0,0,0-.58-1.42,2.76,2.76,0,0,0-1.74-.47Zm-2.28-1.49H161a4.5,4.5,0,0,1,2.84.75,2.72,2.72,0,0,1,.93,2.27,2.76,2.76,0,0,1-.59,1.85,3.05,3.05,0,0,1-1.75,1,3,3,0,0,1,1.88,1.05,3.22,3.22,0,0,1,.65,2.09,3.05,3.05,0,0,1-1.06,2.49,4.5,4.5,0,0,1-3,.9h-4.5Zm10.73,0h2.27L169.43,35h-2.27Zm9.9,2a5.81,5.81,0,0,1-.15.72c-.07.26-.17.54-.29.86l-1.42,3.78h3.65l-1.32-3.75a6.93,6.93,0,0,1-.23-.69c-.08-.28-.15-.58-.24-.92m-1.16-2h2.58l4.58,11.92-2.22.81-1.32-3.63h-5l-1.38,3.54-2.24-.7Z"/><path class="cls-1" d="M46.3,4.28h9v2H51.94l-.18,10.39H49.43l.19-10.39H46.23ZM59,6.13l0,3.73h1.3a2.91,2.91,0,0,0,1.83-.49A1.63,1.63,0,0,0,62.76,8,1.67,1.67,0,0,0,62.2,6.6a2.45,2.45,0,0,0-1.64-.47ZM56.79,4.28h3.86a5.31,5.31,0,0,1,3.3.86,3.09,3.09,0,0,1,1.1,2.6,3.33,3.33,0,0,1-.7,2.17,3.4,3.4,0,0,1-2,1.13,2.6,2.6,0,0,1,.84.54,6.78,6.78,0,0,1,.87,1.13l2,3.16-2,1.15L61.5,12.88a3.07,3.07,0,0,0-.84-.92,2.06,2.06,0,0,0-1.1-.25H59l-.11,4.95H56.6ZM72.74,6.19a5.68,5.68,0,0,1-.15.71,9,9,0,0,1-.3.86l-1.41,3.79h3.65L73.2,7.8A6.6,6.6,0,0,1,73,7.1c-.08-.27-.16-.58-.24-.91m-1.16-2h2.58l4.57,11.92L76.52,17,75.2,13.33h-5L68.8,16.87l-2.24-.7Zm8.54.43,2.42-.72L87.42,12c.29.48.51.88.68,1.19a8.48,8.48,0,0,1,.4.89c-.07-.58-.11-1.08-.15-1.51s0-.8,0-1.11v-.19a1.58,1.58,0,0,0,0-.19V4.23h2.15l0,12-2.36.7L83,8.56a7.64,7.64,0,0,1-.41-.73c-.14-.29-.33-.69-.55-1.22q.07.51.12,1.11c0,.41,0,1,0,1.87,0,0,0,.1,0,.18a1.36,1.36,0,0,1,0,.18.41.41,0,0,1,0,.12.15.15,0,0,1,0,.07v6.47H80.09Zm20.08.41-.9,1.66A6.33,6.33,0,0,0,98,6.12a3.9,3.9,0,0,0-1.21-.21,2.19,2.19,0,0,0-1.42.43,1.39,1.39,0,0,0-.53,1.13c0,.62.66,1.27,2,2l.33.18.28.14a5.75,5.75,0,0,1,2,1.51,3.12,3.12,0,0,1,.49,1,3.9,3.9,0,0,1,.16,1.1A3.34,3.34,0,0,1,98.9,16a4.55,4.55,0,0,1-3.07,1,6.6,6.6,0,0,1-1.72-.23,7,7,0,0,1-1.64-.69l.84-1.81a4.59,4.59,0,0,0,1.18.61,3.52,3.52,0,0,0,1.2.2,2.11,2.11,0,0,0,1.41-.45,1.46,1.46,0,0,0,.53-1.19c0-.7-.68-1.42-2.06-2.15a2.4,2.4,0,0,0-.29-.16,6.33,6.33,0,0,1-2.14-1.6,3,3,0,0,1-.55-1.87,3.21,3.21,0,0,1,1.12-2.57,4.6,4.6,0,0,1,3.05-.95,6.07,6.07,0,0,1,1.67.24,9.15,9.15,0,0,1,1.77.72m4.33.82-.07,4.28h1.3a3.09,3.09,0,0,0,2-.56,2,2,0,0,0,.7-1.6,2,2,0,0,0-.63-1.58A2.69,2.69,0,0,0,106,5.89Zm-2.22-1.61h4.3a4.29,4.29,0,0,1,3,1,3.56,3.56,0,0,1,1,2.75,3.59,3.59,0,0,1-1.16,2.79,4.43,4.43,0,0,1-3.11,1.06h-1.89l-.09,4.83H102.1Zm13.94,2a4.64,4.64,0,0,1-.15.72,8.61,8.61,0,0,1-.29.85l-1.42,3.79h3.66l-1.33-3.75c-.07-.19-.15-.42-.23-.69s-.15-.59-.24-.92m-1.16-2h2.58l4.58,11.92L120,17l-1.32-3.63h-5l-1.38,3.54-2.23-.7ZM126,6.13l0,3.73h1.3a2.91,2.91,0,0,0,1.83-.49A1.66,1.66,0,0,0,129.69,8a1.7,1.7,0,0,0-.56-1.38,2.45,2.45,0,0,0-1.64-.47Zm-2.26-1.85h3.87a5.35,5.35,0,0,1,3.3.86,3.11,3.11,0,0,1,1.1,2.6,3.33,3.33,0,0,1-.7,2.17,3.4,3.4,0,0,1-2,1.13,2.41,2.41,0,0,1,.84.54,6.27,6.27,0,0,1,.88,1.13l2,3.16L131.09,17l-2.67-4.14a2.94,2.94,0,0,0-.83-.92,2.07,2.07,0,0,0-1.11-.25h-.56l-.11,4.95h-2.28Zm11.22,0h6.82V6.27h-4.55l-.05,3.13h4.44l0,1.92H137.1l0,3.44h4.67l0,2h-7Zm8.63.43L146,4l4.88,8.08c.29.48.51.88.68,1.19a9.52,9.52,0,0,1,.4.89c-.07-.57-.11-1.08-.15-1.5s0-.8,0-1.12c0,0,0-.11,0-.19a1.58,1.58,0,0,0,0-.19V4.33h2.14l0,12-2.36.7-5-8.35a7.92,7.92,0,0,1-.41-.74c-.15-.29-.33-.69-.56-1.22a11.18,11.18,0,0,1,.13,1.12c0,.4,0,1,0,1.87a1.31,1.31,0,0,0,0,.17,1.36,1.36,0,0,1,0,.18.38.38,0,0,1,0,.12.15.15,0,0,1,0,.07v6.48h-2.12Zm22.79,0-.57,1.87a7.21,7.21,0,0,0-1.41-.5,6,6,0,0,0-1.4-.17,4.27,4.27,0,0,0-4.48,4.49,4.3,4.3,0,0,0,1.2,3.14,4.13,4.13,0,0,0,3.09,1.23,5.69,5.69,0,0,0,1.35-.19,10.62,10.62,0,0,0,1.62-.57l.51,1.85a13.2,13.2,0,0,1-2.16.7,9.44,9.44,0,0,1-2,.22,6.1,6.1,0,0,1-2.21-.4A5.93,5.93,0,0,1,158,15.25a5.8,5.8,0,0,1-1.46-2.12A7.13,7.13,0,0,1,156,10.4a6.86,6.86,0,0,1,.47-2.56,6.05,6.05,0,0,1,1.41-2.07A6,6,0,0,1,160,4.44a7.24,7.24,0,0,1,2.6-.45,8.89,8.89,0,0,1,1.83.19,11.37,11.37,0,0,1,1.91.56M168,4.33h2.27l-.2,12.39h-2.28Zm9.68,1.86a5.68,5.68,0,0,1-.15.71,6.87,6.87,0,0,1-.3.86l-1.41,3.79h3.65L178.18,7.8c-.07-.19-.14-.42-.22-.7s-.16-.58-.24-.91m-1.16-2h2.58l4.58,11.92L181.5,17l-1.32-3.63h-5l-1.38,3.54-2.24-.7Z"/><path class="cls-1" d="M134.86,39H38.58a6.81,6.81,0,0,1-3,1H184.31V39Z"/><path class="cls-1" d="M16.32,1.86A19.59,19.59,0,0,0,6.24,8.18,6.36,6.36,0,0,0,8.1,13.09,27.3,27.3,0,0,1,16.32,1.86M36.9,10.05a18.06,18.06,0,0,0-11-8c-.64-.16-1.3-.3-1.95-.4C19.41,3.26,16.48,9.69,15,16.09a26.77,26.77,0,0,0,8.5.94c6.31-.54,12.19-2.19,13.44-7.07m2.29,7.77c.09.1.14.13.16.48.15,1.86,1.27,1.14,1.15.43A19.9,19.9,0,0,0,20.43,0a20.49,20.49,0,0,0,0,41c10,0,18.33-6.08,19.84-15.92.3-1.38-.34-3.63-1.6.53-1.91,8.54-9.25,13.49-18,13.49a12.94,12.94,0,0,1-2.35-.18C15.19,36.76,13.63,27.27,13.81,24a27.51,27.51,0,0,0,11,1.55C31.5,25,36.64,22.2,38.92,18c.07-.13.11-.26.29-.23M9.59,35.46a19.2,19.2,0,0,1-7.7-15.23,18.54,18.54,0,0,1,1.19-6.34c-.29.66,1.11,4.17,3.19,6.27-.08,1-.13,1.94-.12,2.86,0,3,1.29,9.34,3.44,12.44M22.34,8.15a3.53,3.53,0,1,1-3.53,3.53,3.53,3.53,0,0,1,3.53-3.53"/></g></g></svg>