<svg xmlns="http://www.w3.org/2000/svg" xmlns:xlink="http://www.w3.org/1999/xlink" viewBox="0 0 544.44 200.61"><defs><style>.cls-1{fill:none;}.cls-2{fill:#293235;}.cls-3{clip-path:url(#clip-path);}.cls-4{fill:#e7e7e7;}.cls-5{fill:#d3462e;}.cls-6{fill:#fff;}</style><clipPath id="clip-path"><path class="cls-1" d="M53.47,3.87a48.94,48.94,0,0,0-48.95,49V196.74H152.31a17.34,17.34,0,0,0,17.34-17.34V3.87Z"/></clipPath></defs><title>logo_alac</title><g id="Layer_2" data-name="Layer 2"><g id="Layer_1-2" data-name="Layer 1"><path class="cls-2" d="M306.48,56.44a13.37,13.37,0,0,1-4.72.81,14.59,14.59,0,0,1-7.56-1.9,13,13,0,0,1-5-5.09,14.44,14.44,0,0,1-1.74-7,15.7,15.7,0,0,1,1.74-7.46,12.83,12.83,0,0,1,4.86-5.15,13.61,13.61,0,0,1,7.1-1.86,15.33,15.33,0,0,1,4.54.65,16.47,16.47,0,0,1,3.69,1.65l-1.76,4.17a10.91,10.91,0,0,0-6.32-2.18,8.52,8.52,0,0,0-4.57,1.32,9.71,9.71,0,0,0-3.39,3.6,10.14,10.14,0,0,0-1.26,5,11.1,11.1,0,0,0,1.17,5.15,8.67,8.67,0,0,0,3.33,3.56,9.63,9.63,0,0,0,5,1.28,10.33,10.33,0,0,0,3.66-.61A9,9,0,0,0,308,50.78l1.88,4A14.4,14.4,0,0,1,306.48,56.44Z"/><path class="cls-2" d="M326.36,52.43l2,3.17a12.05,12.05,0,0,1-2.8,1.28,9.33,9.33,0,0,1-2.87.48,10,10,0,0,1-4.84-1.11,7.78,7.78,0,0,1-3.14-3.06,9,9,0,0,1-1.09-4.48,8.14,8.14,0,0,1,1.23-4.36,8.8,8.8,0,0,1,3.33-3.16A9.27,9.27,0,0,1,322.73,40,7.94,7.94,0,0,1,328.2,42a9.56,9.56,0,0,1,2.91,5.45l-12.48,4.21a4.33,4.33,0,0,0,1.73,1.53,5.16,5.16,0,0,0,2.37.54A6.38,6.38,0,0,0,326.36,52.43Zm-7.29-7.62a5.28,5.28,0,0,0-1.28,3.67,3.65,3.65,0,0,0,0,.65l8.5-3a4.92,4.92,0,0,0-1.46-2,3.88,3.88,0,0,0-2.49-.77A4.29,4.29,0,0,0,319.07,44.81Z"/><path class="cls-2" d="M349.65,41.42a4.59,4.59,0,0,1,1.55,3.5v12h-4.28V46.45a3.11,3.11,0,0,0-.75-2,2.72,2.72,0,0,0-2-.76,3.93,3.93,0,0,0-3.27,1.7,7,7,0,0,0-1.28,4.35v7.19h-4.29V40.75h3.87l.3,2.87A6.37,6.37,0,0,1,342,41a7.75,7.75,0,0,1,3.84-.94A5.44,5.44,0,0,1,349.65,41.42Z"/><path class="cls-2" d="M363,33.63v7.12h4.21v3.37H363V56.94h-4.28V44.12h-2.8V40.75h2.8V33.63Z"/><path class="cls-2" d="M377.38,42.17a9.75,9.75,0,0,1,2.43-1.59A5.4,5.4,0,0,1,381.9,40l-.19,4.29a5.31,5.31,0,0,0-3.14.63,5.62,5.62,0,0,0-2.15,2.15,5.78,5.78,0,0,0-.76,2.89v7h-4.29V40.75h3.87l.3,3.75A7.8,7.8,0,0,1,377.38,42.17Z"/><path class="cls-2" d="M386.13,44.27a8.29,8.29,0,0,1,3.23-3.12A9.71,9.71,0,0,1,394.07,40a9.6,9.6,0,0,1,4.69,1.13,8,8,0,0,1,3.15,3.1,9.36,9.36,0,0,1,0,8.84,8,8,0,0,1-3.15,3.12A9.47,9.47,0,0,1,394,57.36a10.16,10.16,0,0,1-4.67-1,7.72,7.72,0,0,1-3.23-3A8.91,8.91,0,0,1,385,48.67,8.55,8.55,0,0,1,386.13,44.27Zm4.49,8.1a4.6,4.6,0,0,0,6.72,0,5.8,5.8,0,0,0,0-7.37A4.35,4.35,0,0,0,394,43.55a4.28,4.28,0,0,0-3.33,1.51,5.32,5.32,0,0,0-1.34,3.65A5.24,5.24,0,0,0,390.62,52.37Z"/><path class="cls-2" d="M437.05,27.09V56.94h-4.29V54.76a8.81,8.81,0,0,1-6.35,2.6,7.91,7.91,0,0,1-4.08-1.07,7.41,7.41,0,0,1-2.85-3.06,9.91,9.91,0,0,1-1-4.63,9.29,9.29,0,0,1,1.09-4.6,7.3,7.3,0,0,1,3-3,9.25,9.25,0,0,1,4.38-1,8.46,8.46,0,0,1,3.33.67,6.68,6.68,0,0,1,2.53,1.82V27.09Zm-6.12,25.72a4.92,4.92,0,0,0,1.83-2.57V46.8a4.54,4.54,0,0,0-1.82-2.45,5.3,5.3,0,0,0-3.15-1,4.89,4.89,0,0,0-2.49.67,5.09,5.09,0,0,0-2.53,4.46A5.22,5.22,0,0,0,425.3,53a4.72,4.72,0,0,0,2.49.69A5.34,5.34,0,0,0,430.93,52.81Z"/><path class="cls-2" d="M454.39,52.43l1.95,3.17a12.05,12.05,0,0,1-2.8,1.28,9.33,9.33,0,0,1-2.87.48,10,10,0,0,1-4.84-1.11,7.78,7.78,0,0,1-3.14-3.06,9.09,9.09,0,0,1-1.09-4.48,8.14,8.14,0,0,1,1.23-4.36,8.8,8.8,0,0,1,3.33-3.16A9.27,9.27,0,0,1,450.75,40,7.94,7.94,0,0,1,456.22,42a9.56,9.56,0,0,1,2.91,5.45l-12.48,4.21a4.33,4.33,0,0,0,1.73,1.53,5.16,5.16,0,0,0,2.37.54A6.43,6.43,0,0,0,454.39,52.43Zm-7.29-7.62a5.24,5.24,0,0,0-1.29,3.67,5,5,0,0,0,0,.65l8.5-3a4.83,4.83,0,0,0-1.46-2,3.83,3.83,0,0,0-2.48-.77A4.26,4.26,0,0,0,447.1,44.81Z"/><path class="cls-2" d="M303.52,96.32H293.37l-2.68,6.55h-4.4l12.33-29h.27l12.32,29h-5.13ZM302,92.5l-3.48-8.81-3.6,8.81Z"/><path class="cls-2" d="M316.39,102.54a6.9,6.9,0,0,1-2.73-1.89l1.8-2.41a6,6,0,0,0,4.13,2,3.67,3.67,0,0,0,1.89-.44,1.45,1.45,0,0,0,.75-1.32,1.51,1.51,0,0,0-.76-1.38,7.38,7.38,0,0,0-1.71-.75l-1.2-.36a6.43,6.43,0,0,1-3.14-1.89,4.44,4.44,0,0,1-1-2.93,4.87,4.87,0,0,1,2.69-4.4,6.89,6.89,0,0,1,3.31-.73,10.89,10.89,0,0,1,3.2.42,8.12,8.12,0,0,1,2.55,1.34l-1.65,2.56a5.18,5.18,0,0,0-1.67-1,5,5,0,0,0-1.77-.38,2.75,2.75,0,0,0-1.65.46,1.39,1.39,0,0,0-.65,1.18,1.37,1.37,0,0,0,.65,1.32,9.92,9.92,0,0,0,2.22.94l.84.27a7.28,7.28,0,0,1,3,1.7,3.92,3.92,0,0,1,1.07,2.85,5.16,5.16,0,0,1-1.71,4,6.88,6.88,0,0,1-4.88,1.59A9.33,9.33,0,0,1,316.39,102.54Z"/><path class="cls-2" d="M342.71,98.35l2,3.18a12.48,12.48,0,0,1-2.8,1.28,9.33,9.33,0,0,1-2.87.48,10,10,0,0,1-4.84-1.11A7.78,7.78,0,0,1,331,99.12a9.12,9.12,0,0,1-1.09-4.48,8.12,8.12,0,0,1,1.23-4.36,8.8,8.8,0,0,1,3.33-3.16A9.27,9.27,0,0,1,339.07,86a7.92,7.92,0,0,1,5.47,1.94,9.52,9.52,0,0,1,2.91,5.45L335,97.55a4.32,4.32,0,0,0,1.72,1.53,5.16,5.16,0,0,0,2.37.54A6.45,6.45,0,0,0,342.71,98.35Zm-7.29-7.61a5.24,5.24,0,0,0-1.29,3.67,5,5,0,0,0,0,.65l8.5-3a4.83,4.83,0,0,0-1.46-2,3.83,3.83,0,0,0-2.48-.77A4.23,4.23,0,0,0,335.42,90.74Z"/><path class="cls-2" d="M353,102.54a6.9,6.9,0,0,1-2.73-1.89l1.8-2.41a6,6,0,0,0,4.13,2,3.7,3.7,0,0,0,1.89-.44,1.45,1.45,0,0,0,.75-1.32,1.52,1.52,0,0,0-.77-1.38,7.3,7.3,0,0,0-1.7-.75L355.14,96A6.45,6.45,0,0,1,352,94.09a4.45,4.45,0,0,1-1-2.93,5,5,0,0,1,.67-2.51,5,5,0,0,1,2-1.89A6.89,6.89,0,0,1,357,86a10.89,10.89,0,0,1,3.2.42,8.07,8.07,0,0,1,2.54,1.34l-1.64,2.56a5.29,5.29,0,0,0-1.67-1,5,5,0,0,0-1.78-.38,2.74,2.74,0,0,0-1.64.46,1.52,1.52,0,0,0,0,2.5,9.92,9.92,0,0,0,2.22.94l.84.27a7.24,7.24,0,0,1,3,1.7,3.88,3.88,0,0,1,1.08,2.85,5.16,5.16,0,0,1-1.71,4,6.88,6.88,0,0,1-4.88,1.59A9.33,9.33,0,0,1,353,102.54Z"/><path class="cls-2" d="M367.68,90.2a8.28,8.28,0,0,1,3.23-3.12A9.71,9.71,0,0,1,375.62,86a9.6,9.6,0,0,1,4.69,1.13,8,8,0,0,1,3.16,3.1,9.36,9.36,0,0,1,0,8.84,8,8,0,0,1-3.16,3.12,9.47,9.47,0,0,1-4.73,1.15,10.19,10.19,0,0,1-4.67-1.05,7.8,7.8,0,0,1-3.23-3,8.85,8.85,0,0,1-1.17-4.61A8.52,8.52,0,0,1,367.68,90.2Zm4.5,8.1a4.31,4.31,0,0,0,3.33,1.47,4.37,4.37,0,0,0,3.38-1.46,5.23,5.23,0,0,0,1.32-3.67A5.32,5.32,0,0,0,378.89,91a4.35,4.35,0,0,0-3.38-1.48A4.26,4.26,0,0,0,372.18,91a5.65,5.65,0,0,0,0,7.31Z"/><path class="cls-2" d="M395.1,88.1a9.75,9.75,0,0,1,2.43-1.59,5.4,5.4,0,0,1,2.09-.56l-.19,4.29a5.31,5.31,0,0,0-3.14.63A5.6,5.6,0,0,0,394.14,93a5.81,5.81,0,0,0-.76,2.89v7h-4.29V86.68H393l.31,3.75A7.38,7.38,0,0,1,395.1,88.1Z"/><path class="cls-2" d="M408.31,86.68v16.19H404V86.68Zm-.62-2.26H405l3.09-5.13h4.75Z"/><path class="cls-2" d="M431.15,86.68v16.19h-4.28v-2.34a8.88,8.88,0,0,1-2.38,1.9,6.85,6.85,0,0,1-3.48.86,8.76,8.76,0,0,1-4.17-1,7.16,7.16,0,0,1-2.91-2.89,9.35,9.35,0,0,1-1.07-4.63A9.46,9.46,0,0,1,414,90.14,7.9,7.9,0,0,1,421,86a6.64,6.64,0,0,1,5.9,2.91l.3-2.18Zm-6,12.19a4.76,4.76,0,0,0,1.71-2.55V92.8a4.5,4.5,0,0,0-1.78-2.41,5.22,5.22,0,0,0-3-.92,4.64,4.64,0,0,0-3.45,1.44,5,5,0,0,0-1.42,3.65,5.22,5.22,0,0,0,2.53,4.52,5.09,5.09,0,0,0,5.45-.21Z"/><path class="cls-2" d="M454.69,75V98.58h13.74v4.29H450.21V75Z"/><path class="cls-2" d="M484.89,98.35l1.95,3.18a12.61,12.61,0,0,1-2.79,1.28,9.38,9.38,0,0,1-2.87.48,10,10,0,0,1-4.84-1.11,7.66,7.66,0,0,1-3.14-3.06,9,9,0,0,1-1.09-4.48,8.11,8.11,0,0,1,1.22-4.36,9,9,0,0,1,3.33-3.16A9.27,9.27,0,0,1,481.25,86a8,8,0,0,1,5.48,1.94,9.64,9.64,0,0,1,2.91,5.45l-12.48,4.21a4.38,4.38,0,0,0,1.72,1.53,5.19,5.19,0,0,0,2.37.54A6.45,6.45,0,0,0,484.89,98.35Zm-7.29-7.61a5.23,5.23,0,0,0-1.28,3.67,5.32,5.32,0,0,0,0,.65l8.5-3a4.9,4.9,0,0,0-1.45-2,3.88,3.88,0,0,0-2.49-.77A4.24,4.24,0,0,0,477.6,90.74Z"/><path class="cls-2" d="M511.37,86.68V103a7.22,7.22,0,0,1-1.2,4.07,8.34,8.34,0,0,1-3.37,2.87,11,11,0,0,1-4.88,1,10.35,10.35,0,0,1-4.4-.82,15.41,15.41,0,0,1-3.56-2.39l2.53-3a10.33,10.33,0,0,0,2.48,1.78,6.37,6.37,0,0,0,2.87.63,5.8,5.8,0,0,0,3.79-1.16,4,4,0,0,0,1.46-3.16v-2.72a6,6,0,0,1-2.51,2.28,8.37,8.37,0,0,1-3.88.86,7.84,7.84,0,0,1-4.1-1.13,8.15,8.15,0,0,1-3-3.1,9.18,9.18,0,0,1,.05-8.84,8.49,8.49,0,0,1,3.1-3.14A8.06,8.06,0,0,1,500.89,86a9.37,9.37,0,0,1,3.69.71,5.81,5.81,0,0,1,2.51,1.86l.34-1.84Zm-6.18,12.17a4.78,4.78,0,0,0,1.9-2.49V92.84a4.79,4.79,0,0,0-1.92-2.45,5.65,5.65,0,0,0-3.21-.92,5,5,0,0,0-3.66,1.44,4.88,4.88,0,0,0-1.47,3.65,5.15,5.15,0,0,0,.69,2.64,5.08,5.08,0,0,0,1.86,1.88,4.93,4.93,0,0,0,2.58.69A5.63,5.63,0,0,0,505.19,98.85Z"/><path class="cls-2" d="M534.22,86.68v16.19h-4.28v-2.34a8.88,8.88,0,0,1-2.38,1.9,6.85,6.85,0,0,1-3.48.86,8.73,8.73,0,0,1-4.17-1A7,7,0,0,1,517,99.42a9.35,9.35,0,0,1-1.07-4.63A9.46,9.46,0,0,1,517,90.14a7.87,7.87,0,0,1,7-4.19A6.61,6.61,0,0,1,530,88.86l.31-2.18Zm-6,12.19a4.82,4.82,0,0,0,1.71-2.55V92.8a4.5,4.5,0,0,0-1.78-2.41,5.23,5.23,0,0,0-3-.92,4.64,4.64,0,0,0-3.44,1.44,5,5,0,0,0-1.42,3.65,5.22,5.22,0,0,0,2.53,4.52,4.72,4.72,0,0,0,2.49.69A4.8,4.8,0,0,0,528.23,98.87Z"/><path class="cls-2" d="M544.44,73v29.85h-4.28V73Z"/><path class="cls-2" d="M303.52,142.25H293.37l-2.68,6.55h-4.4l12.33-29h.27l12.32,29h-5.13Zm-1.5-3.83-3.48-8.8-3.6,8.8Z"/><path class="cls-2" d="M329.41,133.28a4.6,4.6,0,0,1,1.55,3.5v12h-4.29V138.31a3.14,3.14,0,0,0-.74-2,2.72,2.72,0,0,0-2-.77,3.94,3.94,0,0,0-3.28,1.71,7,7,0,0,0-1.28,4.34v7.2h-4.29V132.61h3.87l.31,2.87a6.23,6.23,0,0,1,2.54-2.62,7.65,7.65,0,0,1,3.85-.94A5.43,5.43,0,0,1,329.41,133.28Z"/><path class="cls-2" d="M342.71,125.49v7.12h4.21V136h-4.21V148.8h-4.29V136h-2.79v-3.37h2.79v-7.12Z"/><path class="cls-2" d="M351.7,125.2a2.52,2.52,0,0,1,1.72-.67,2.44,2.44,0,0,1,1.67.67,2.1,2.1,0,0,1,.74,1.63,2,2,0,0,1-.74,1.61,2.51,2.51,0,0,1-1.67.65,2.6,2.6,0,0,1-1.72-.65,2,2,0,0,1-.77-1.61A2.1,2.1,0,0,1,351.7,125.2Zm3.71,7.41V148.8h-4.28V132.61Z"/><path class="cls-2" d="M372.08,148.7a9.63,9.63,0,0,1-3.12.52,10.39,10.39,0,0,1-4.73-1,7.39,7.39,0,0,1-3.15-3,9,9,0,0,1-1.11-4.54,8.38,8.38,0,0,1,1.18-4.49,8.05,8.05,0,0,1,3.16-3,9,9,0,0,1,4.23-1,9.55,9.55,0,0,1,6.32,2.06l-2.15,2.8a6.82,6.82,0,0,0-1.7-1,5.4,5.4,0,0,0-2.09-.4,4.41,4.41,0,0,0-3.31,1.43,5,5,0,0,0-1.36,3.58,4.85,4.85,0,0,0,1.44,3.58,4.94,4.94,0,0,0,3.65,1.44,4.88,4.88,0,0,0,3.22-1.08l2.14,2.68A8,8,0,0,1,372.08,148.7Z"/><path class="cls-2" d="M378.93,136.13a8.24,8.24,0,0,1,3.24-3.12,10.32,10.32,0,0,1,9.39,0,7.92,7.92,0,0,1,3.16,3.1,9.36,9.36,0,0,1,0,8.84,8.1,8.1,0,0,1-3.16,3.12,9.55,9.55,0,0,1-4.73,1.15,10,10,0,0,1-4.66-1.06,7.74,7.74,0,0,1-3.24-3,8.85,8.85,0,0,1-1.17-4.61A8.5,8.5,0,0,1,378.93,136.13Zm4.5,8.09a4.29,4.29,0,0,0,3.33,1.48,4.37,4.37,0,0,0,3.39-1.46,5.25,5.25,0,0,0,1.32-3.67,5.36,5.36,0,0,0-1.32-3.7,4.35,4.35,0,0,0-3.39-1.47,4.28,4.28,0,0,0-3.33,1.51,5.35,5.35,0,0,0-1.34,3.66A5.24,5.24,0,0,0,383.43,144.22Z"/><path class="cls-2" d="M406.35,134a9.7,9.7,0,0,1,2.43-1.58,5.4,5.4,0,0,1,2.09-.56l-.19,4.29a5.31,5.31,0,0,0-3.14.63,5.57,5.57,0,0,0-2.14,2.14,5.82,5.82,0,0,0-.77,2.89v7h-4.28V132.61h3.86l.31,3.75A7.53,7.53,0,0,1,406.35,134Z"/><path class="cls-2" d="M421.28,134a9.7,9.7,0,0,1,2.43-1.58,5.36,5.36,0,0,1,2.09-.56l-.19,4.29a5.31,5.31,0,0,0-3.14.63,5.6,5.6,0,0,0-2.15,2.14,5.81,5.81,0,0,0-.76,2.89v7h-4.29V132.61h3.87l.3,3.75A7.71,7.71,0,0,1,421.28,134Z"/><path class="cls-2" d="M445.77,132.61V148.8h-3.86l-.27-2.91a6.34,6.34,0,0,1-2.49,2.62,7.18,7.18,0,0,1-3.75,1,5.25,5.25,0,0,1-3.69-1.36,4.68,4.68,0,0,1-1.51-3.51v-12h4.28v10.48c.08,1.79,1,2.7,2.64,2.72a3.72,3.72,0,0,0,3.12-1.72,7.2,7.2,0,0,0,1.25-4.33v-7.15Z"/><path class="cls-2" d="M466.44,133a7.44,7.44,0,0,1,2.87,3.06,9.91,9.91,0,0,1,1,4.63,9,9,0,0,1-1.13,4.56,7.58,7.58,0,0,1-3.14,3,9.76,9.76,0,0,1-4.54,1,7.77,7.77,0,0,1-3.1-.65,6.85,6.85,0,0,1-2.45-1.76v9.76h-4.28V132.3h3.71l.38,2.41a9.77,9.77,0,0,1,2.93-2.06,8.58,8.58,0,0,1,3.62-.77A8,8,0,0,1,466.44,133Zm-3.12,12.19a5.22,5.22,0,0,0,1.94-1.82,4.77,4.77,0,0,0,.72-2.6,5.15,5.15,0,0,0-1.43-3.73,4.76,4.76,0,0,0-3.54-1.47,5.29,5.29,0,0,0-3.16.91A5.19,5.19,0,0,0,456,139v3.25a4.54,4.54,0,0,0,1.67,2.57,4.82,4.82,0,0,0,3,1A5.27,5.27,0,0,0,463.32,145.14Z"/><path class="cls-2" d="M485.64,148.7a9.72,9.72,0,0,1-3.12.52,10.33,10.33,0,0,1-4.73-1,7.41,7.41,0,0,1-3.16-3,9,9,0,0,1-1.11-4.54,8.39,8.39,0,0,1,1.19-4.49,8,8,0,0,1,3.16-3,8.94,8.94,0,0,1,4.23-1,9.53,9.53,0,0,1,6.31,2.06l-2.14,2.8a6.89,6.89,0,0,0-1.71-1,5.35,5.35,0,0,0-2.08-.4,4.4,4.4,0,0,0-3.31,1.43,5,5,0,0,0-1.36,3.58,4.89,4.89,0,0,0,1.43,3.58,5,5,0,0,0,3.66,1.44,4.83,4.83,0,0,0,3.21-1.08l2.15,2.68A8.08,8.08,0,0,1,485.64,148.7Z"/><path class="cls-2" d="M493.23,125.2a2.55,2.55,0,0,1,1.73-.67,2.41,2.41,0,0,1,1.66.67,2.11,2.11,0,0,1,.75,1.63,2.06,2.06,0,0,1-.75,1.61,2.49,2.49,0,0,1-1.66.65,2.62,2.62,0,0,1-1.73-.65,2,2,0,0,1-.76-1.61A2.09,2.09,0,0,1,493.23,125.2Zm3.72,7.41V148.8h-4.29V132.61Z"/><path class="cls-2" d="M502.67,136.13A8.22,8.22,0,0,1,505.9,133a9.71,9.71,0,0,1,4.71-1.13A9.6,9.6,0,0,1,515.3,133a8,8,0,0,1,3.16,3.1,9.36,9.36,0,0,1,0,8.84,8.17,8.17,0,0,1-3.16,3.12,9.57,9.57,0,0,1-4.73,1.15,10.07,10.07,0,0,1-4.67-1.06,7.72,7.72,0,0,1-3.23-3,8.85,8.85,0,0,1-1.17-4.61A8.5,8.5,0,0,1,502.67,136.13Zm4.49,8.09a4.32,4.32,0,0,0,3.33,1.48,4.37,4.37,0,0,0,3.39-1.46,5.25,5.25,0,0,0,1.32-3.67,5.36,5.36,0,0,0-1.32-3.7,4.53,4.53,0,0,0-6.72,0,5.34,5.34,0,0,0-1.33,3.66A5.23,5.23,0,0,0,507.16,144.22ZM512,129.74h-2.68l3.1-5.13h4.74Z"/><path class="cls-2" d="M538.41,133.28a4.57,4.57,0,0,1,1.55,3.5v12h-4.28V138.31a3.09,3.09,0,0,0-.75-2,2.72,2.72,0,0,0-2-.77,3.92,3.92,0,0,0-3.27,1.71,7,7,0,0,0-1.28,4.34v7.2h-4.29V132.61H528l.3,2.87a6.31,6.31,0,0,1,2.55-2.62,7.64,7.64,0,0,1,3.84-.94A5.39,5.39,0,0,1,538.41,133.28Z"/><g class="cls-3"><rect class="cls-4" x="-11.26" y="15.5" width="196.69" height="169.6" transform="translate(-15.23 185.01) rotate(-88.66)"/></g><path class="cls-5" d="M165.86,3.87A96.47,96.47,0,0,0,71.14,82.18v0L4.52,196.74H165.86a96.44,96.44,0,0,0,0-192.87"/><path class="cls-6" d="M157.34,61.61a15.44,15.44,0,0,0,15.23,15.67c8.36,0,15.14-7,15.11-15.7s-6.79-15.71-15.14-15.7S157.33,53,157.34,61.61"/><path class="cls-6" d="M87.08,99.28a83.6,83.6,0,0,1,5-27.76c-1,3.32,5,18.33,13.67,27.43-.34,4.47-.28,8.53-.44,12.53-1,26.08,5.27,44,14.74,54.77,16.42,18.66-32.95-39.82-33-67M105.6,46.21c10.8-13.22,26.29-23.64,43-27.87a119.08,119.08,0,0,0-35,49.46c-5.56-4.88-9.18-16.23-8-21.59M143,81s1.64-13.33,12.24-36S181,17.25,181,17.25c42.13,8.45,55.48,37,55.48,37s-2.18,8.49-30,23.33c-10.93,5.84-23,7.6-33.69,7.61A107.32,107.32,0,0,1,143,81M79,100.42c0,49.64,39.28,90.12,87.32,90.06,42.64-.06,78.24-26.85,84.64-70.24,1.25-6-1.45-16-6.83,2.39-8.07,37.59-39.41,59.43-76.68,59.47a52,52,0,0,1-10.06-.81C144,172,137.24,130.19,138,115.64c14.95,5.41,31.78,8,47,6.79,28.55-2.37,50.44-14.71,60.17-33.4.3-.57.45-1.1,1.21-1,.42.4.63.57.69,2.14.66,8.18,5.44,5,4.93,1.87-3.1-46.78-40.21-82-85.89-81.94-48,.06-87.19,40.6-87.12,90.29"/></g></g></svg>