<svg xmlns="http://www.w3.org/2000/svg" xmlns:xlink="http://www.w3.org/1999/xlink" viewBox="0 0 205.7 55.46"><defs><style>.cls-1{fill:none;}.cls-2{fill:#e85a1e;}.cls-3{fill:#e7e6e6;}.cls-4{fill:#fff;}.cls-5{clip-path:url(#clip-path);}.cls-6{fill:#293134;}</style><clipPath id="clip-path"><path class="cls-1" d="M37.13,9.23a3.33,3.33,0,1,0,3.21,3.32,3.28,3.28,0,0,0-3.21-3.32h0"/></clipPath></defs><title>Logo_Monitor</title><g id="Layer_2" data-name="Layer 2"><g id="Layer_1-2" data-name="Layer 1"><rect class="cls-2" x="56.37" y="40.84" width="149.33" height="0.65"/><rect class="cls-2" x="56.37" width="149.33" height="0.65"/><path class="cls-2" d="M84.92,8.72V32.14H80.49V21.41L73.15,31.83h-.06L66,22.08V32.14H61.75V8.72h0l11.4,16.17L84.86,8.72Z"/><path class="cls-2" d="M89.06,15.2A11.72,11.72,0,0,1,93.25,11a11.18,11.18,0,0,1,11.46,0,11.88,11.88,0,0,1,4.22,4.23,11.18,11.18,0,0,1,0,11.46,11.66,11.66,0,0,1-4.22,4.18,11.45,11.45,0,0,1-11.47,0,11.48,11.48,0,0,1-4.18-4.18,11.43,11.43,0,0,1,0-11.46Zm4,9.32a7,7,0,0,0,2.53,2.62,6.81,6.81,0,0,0,3.56,1,6.46,6.46,0,0,0,3.46-1,6.78,6.78,0,0,0,2.44-2.6,7.38,7.38,0,0,0,.89-3.62,7.33,7.33,0,0,0-.92-3.67,6.94,6.94,0,0,0-2.49-2.61,6.8,6.8,0,0,0-7,0A6.94,6.94,0,0,0,93,17.25a7.43,7.43,0,0,0-.92,3.67A7.11,7.11,0,0,0,93,24.52Z"/><path class="cls-2" d="M133.37,9.64V33.05h-.12L117.51,18.84l.09,13.3h-4.5V8.75h.19L129,23.18l-.09-13.54Z"/><path class="cls-2" d="M141.78,9.64v22.5h-4.44V9.64Z"/><path class="cls-2" d="M159.38,9.64v4.28h-5.47V32.14h-4.43V13.92h-5.26V9.64Z"/><path class="cls-2" d="M162,15.2A11.64,11.64,0,0,1,166.19,11a11.18,11.18,0,0,1,11.46,0,12,12,0,0,1,4.22,4.23,11.24,11.24,0,0,1,0,11.46,11.74,11.74,0,0,1-4.22,4.18,11.47,11.47,0,0,1-11.48,0A11.53,11.53,0,0,1,162,26.66a11.37,11.37,0,0,1,0-11.46Zm4,9.32a7,7,0,0,0,2.54,2.62,6.81,6.81,0,0,0,3.56,1,6.45,6.45,0,0,0,3.45-1,6.81,6.81,0,0,0,2.45-2.6,7.79,7.79,0,0,0,0-7.29,6.94,6.94,0,0,0-2.49-2.61,6.8,6.8,0,0,0-7,0A6.94,6.94,0,0,0,166,17.25a7.33,7.33,0,0,0-.92,3.67A7.21,7.21,0,0,0,166,24.52Z"/><path class="cls-2" d="M198.17,32.14,193.44,25h-3v7.16H186V9.64h6.82a9.52,9.52,0,0,1,6.49,2,7,7,0,0,1,2.31,5.55,9,9,0,0,1-.87,3.9A6.41,6.41,0,0,1,198.11,24l5.23,8.17Zm-7.7-11.44h3.15a3.14,3.14,0,0,0,2.63-1.05,3.61,3.61,0,0,0,.82-2.28,4.34,4.34,0,0,0-.7-2.34,3,3,0,0,0-2.72-1.11h-3.18Z"/><path class="cls-3" d="M34.69.33H13.19A13.13,13.13,0,0,0,.06,13.46V41.17H34.69Z"/><path class="cls-2" d="M54.06,13.85A20.41,20.41,0,0,0,17.19,10.5l0-.06L0,41.17H34.44A20.42,20.42,0,0,0,54.06,13.85"/><path class="cls-4" d="M18.67,20.53a17.55,17.55,0,0,1,1.06-5.87c-.2.7,1.06,3.88,2.89,5.81-.07.94-.1,1.8-.09,2.65,0,2.79,1.17,8.72,3.12,11.6a18.12,18.12,0,0,1-7-14.19M22.59,9.3A17.63,17.63,0,0,1,31.7,3.4a25.22,25.22,0,0,0-7.42,10.47A6,6,0,0,1,22.59,9.3m7.91,7.36A28.63,28.63,0,0,1,33.09,9c2.25-4.81,5.48-5.88,5.48-5.88C47.49,5,50.31,11,50.31,11s-.46,1.79-6.36,4.94a15.19,15.19,0,0,1-7.13,1.61,22.7,22.7,0,0,1-6.32-.89M17,20.77c0,10.52,8.32,19.09,18.49,19.08,9,0,16.57-5.69,17.92-14.88.26-1.27-.31-3.38-1.45.51-1.7,8-8.34,12.58-16.23,12.59a10.63,10.63,0,0,1-2.13-.17c-2.85-2-4.27-10.82-4.11-13.9a24.47,24.47,0,0,0,10,1.44c6-.5,10.68-3.12,12.74-7.07.06-.13.09-.24.25-.21s.14.12.15.45c.14,1.73,1.15,1.06,1,.4A18.21,18.21,0,0,0,35.41,1.66C25.23,1.67,16.94,10.25,17,20.77"/><path class="cls-4" d="M33.91,12.56a3.22,3.22,0,1,0,3.22-3.33,3.27,3.27,0,0,0-3.22,3.33"/><g class="cls-5"><rect class="cls-4" x="33.91" y="9.23" width="6.43" height="6.65" transform="translate(-0.02 0.06) rotate(-0.09)"/></g><path class="cls-6" d="M67.1,53.35a3.38,3.38,0,0,1-1.21.21A3.66,3.66,0,0,1,64,53.07a3.35,3.35,0,0,1-1.27-1.29A3.65,3.65,0,0,1,62.26,50a3.92,3.92,0,0,1,.44-1.9,3.36,3.36,0,0,1,1.24-1.32,3.51,3.51,0,0,1,1.81-.47,4,4,0,0,1,2.09.59L67.4,48a2.81,2.81,0,0,0-1.61-.56,2.13,2.13,0,0,0-1.17.34,2.38,2.38,0,0,0-.86.92,2.5,2.5,0,0,0-.32,1.27,2.8,2.8,0,0,0,.29,1.31,2.2,2.2,0,0,0,.85.91,2.42,2.42,0,0,0,1.27.32,2.77,2.77,0,0,0,.94-.15,2.55,2.55,0,0,0,.69-.4l.48,1A3.8,3.8,0,0,1,67.1,53.35Z"/><path class="cls-6" d="M69.88,47.47a.63.63,0,0,1,.44-.17.6.6,0,0,1,.43.17.54.54,0,0,1,0,.82.65.65,0,0,1-.43.17.67.67,0,0,1-.44-.17.54.54,0,0,1,0-.82Zm1,1.88v4.13H69.74V49.35Z"/><path class="cls-6" d="M76.79,49.35v4.13h-1l-.07-.74a1.62,1.62,0,0,1-.63.67,1.9,1.9,0,0,1-1,.24,1.34,1.34,0,0,1-.94-.34,1.16,1.16,0,0,1-.38-.89V49.35h1.09V52a.63.63,0,0,0,.67.69,1,1,0,0,0,.8-.44,1.83,1.83,0,0,0,.31-1.1V49.35Z"/><path class="cls-6" d="M83.18,45.87v7.61H82.09v-.56a2.24,2.24,0,0,1-1.62.67,2,2,0,0,1-1-.28,1.88,1.88,0,0,1-.72-.78,2.48,2.48,0,0,1-.27-1.18,2.41,2.41,0,0,1,.28-1.17,1.85,1.85,0,0,1,.77-.75,2.29,2.29,0,0,1,1.12-.26,2.22,2.22,0,0,1,.85.17,1.7,1.7,0,0,1,.64.46V45.87Zm-1.56,6.55a1.17,1.17,0,0,0,.47-.65v-.88a1.17,1.17,0,0,0-.46-.62,1.38,1.38,0,0,0-.81-.24,1.19,1.19,0,0,0-.63.17,1.28,1.28,0,0,0-.64,1.13,1.43,1.43,0,0,0,.17.68,1.32,1.32,0,0,0,.47.47,1.21,1.21,0,0,0,.63.18A1.31,1.31,0,0,0,81.62,52.42Z"/><path class="cls-6" d="M89.49,49.35v4.13H88.4v-.6a2.32,2.32,0,0,1-.6.49,1.83,1.83,0,0,1-.89.22,2.27,2.27,0,0,1-1.06-.25,1.76,1.76,0,0,1-.74-.74,2.29,2.29,0,0,1-.28-1.18,2.37,2.37,0,0,1,.29-1.18,1.91,1.91,0,0,1,.75-.79,2,2,0,0,1,1-.28,1.67,1.67,0,0,1,1.5.74l.08-.56ZM88,52.46a1.21,1.21,0,0,0,.43-.65v-.9A1.18,1.18,0,0,0,88,50.3a1.31,1.31,0,0,0-.78-.24,1.19,1.19,0,0,0-.87.37,1.23,1.23,0,0,0-.37.93,1.33,1.33,0,0,0,.18.68,1.25,1.25,0,0,0,.47.47,1.16,1.16,0,0,0,.63.18A1.27,1.27,0,0,0,88,52.46Z"/><path class="cls-6" d="M95.89,45.87v7.61H94.8v-.56a2.26,2.26,0,0,1-1.62.67,2,2,0,0,1-1-.28,1.82,1.82,0,0,1-.72-.78,2.48,2.48,0,0,1-.27-1.18,2.3,2.3,0,0,1,.28-1.17,1.85,1.85,0,0,1,.77-.75,2.29,2.29,0,0,1,1.12-.26,2.22,2.22,0,0,1,.85.17,1.7,1.7,0,0,1,.64.46V45.87Zm-1.56,6.55a1.21,1.21,0,0,0,.47-.65v-.88a1.17,1.17,0,0,0-.46-.62,1.38,1.38,0,0,0-.81-.24,1.15,1.15,0,0,0-.63.17,1.25,1.25,0,0,0-.47.47,1.23,1.23,0,0,0-.18.66,1.33,1.33,0,0,0,.18.68,1.25,1.25,0,0,0,.47.47,1.16,1.16,0,0,0,.63.18A1.33,1.33,0,0,0,94.33,52.42Z"/><path class="cls-6" d="M102.2,49.35v4.13h-1.09v-.6a2.22,2.22,0,0,1-.61.49,1.77,1.77,0,0,1-.88.22,2.34,2.34,0,0,1-1.07-.25,1.88,1.88,0,0,1-.74-.74,2.39,2.39,0,0,1-.27-1.18,2.37,2.37,0,0,1,.28-1.18,1.93,1.93,0,0,1,.76-.79,2,2,0,0,1,1-.28,1.67,1.67,0,0,1,1.5.74l.08-.56Zm-1.52,3.11a1.27,1.27,0,0,0,.43-.65v-.9a1.18,1.18,0,0,0-.45-.61,1.33,1.33,0,0,0-.78-.24,1.22,1.22,0,0,0-.88.37,1.26,1.26,0,0,0-.36.93,1.33,1.33,0,0,0,.18.68,1.18,1.18,0,0,0,.47.47,1.16,1.16,0,0,0,.63.18A1.27,1.27,0,0,0,100.68,52.46Z"/><path class="cls-6" d="M107.85,49.52a1.19,1.19,0,0,1,.4.9v3.06h-1.09V50.81a.84.84,0,0,0-.19-.51.75.75,0,0,0-.52-.2,1,1,0,0,0-.83.44,1.78,1.78,0,0,0-.33,1.1v1.84H104.2V49.35h1l.07.73a1.65,1.65,0,0,1,.65-.66,2,2,0,0,1,1-.24A1.36,1.36,0,0,1,107.85,49.52Z"/><path class="cls-6" d="M110.19,50.25a2.1,2.1,0,0,1,.83-.79,2.37,2.37,0,0,1,1.2-.29,2.33,2.33,0,0,1,1.19.29,2,2,0,0,1,.81.79,2.22,2.22,0,0,1,.28,1.12,2.26,2.26,0,0,1-.28,1.13,2.05,2.05,0,0,1-.81.79,2.38,2.38,0,0,1-1.2.3,2.57,2.57,0,0,1-1.19-.27,2.06,2.06,0,0,1-.83-.77,2.37,2.37,0,0,1-.29-1.18A2.25,2.25,0,0,1,110.19,50.25Zm1.15,2.06a1.11,1.11,0,0,0,.85.38,1.13,1.13,0,0,0,.86-.37,1.47,1.47,0,0,0,0-1.88,1.1,1.1,0,0,0-.86-.38,1.09,1.09,0,0,0-.85.39,1.35,1.35,0,0,0-.34.93A1.32,1.32,0,0,0,111.34,52.31Z"/><path class="cls-6" d="M124.14,45.87v7.61h-1.09v-.56a2.24,2.24,0,0,1-1.62.67,2,2,0,0,1-1-.28,1.88,1.88,0,0,1-.72-.78,2.47,2.47,0,0,1-.26-1.18,2.41,2.41,0,0,1,.27-1.17,1.91,1.91,0,0,1,.77-.75,2.29,2.29,0,0,1,1.12-.26,2.22,2.22,0,0,1,.85.17,1.7,1.7,0,0,1,.64.46V45.87Zm-1.56,6.55a1.17,1.17,0,0,0,.47-.65v-.88a1.17,1.17,0,0,0-.46-.62,1.38,1.38,0,0,0-.81-.24,1.19,1.19,0,0,0-.63.17,1.28,1.28,0,0,0-.64,1.13,1.43,1.43,0,0,0,.17.68,1.32,1.32,0,0,0,.47.47,1.21,1.21,0,0,0,.63.18A1.31,1.31,0,0,0,122.58,52.42Z"/><path class="cls-6" d="M129.05,52.33l.5.81a3.5,3.5,0,0,1-.71.32,2.51,2.51,0,0,1-.74.13,2.54,2.54,0,0,1-1.23-.29,2,2,0,0,1-.8-.78,2.35,2.35,0,0,1-.28-1.14,2.16,2.16,0,0,1,.31-1.11,2.25,2.25,0,0,1,.85-.8,2.37,2.37,0,0,1,1.17-.3,2,2,0,0,1,1.4.49,2.44,2.44,0,0,1,.74,1.39l-3.18,1.07a1.1,1.1,0,0,0,.44.39,1.33,1.33,0,0,0,.6.14A1.66,1.66,0,0,0,129.05,52.33Zm-1.86-1.94a1.32,1.32,0,0,0-.32.93.81.81,0,0,0,0,.17l2.16-.77a1.24,1.24,0,0,0-.37-.5A1,1,0,0,0,128,50,1.1,1.1,0,0,0,127.19,50.39Z"/><path class="cls-6" d="M136.52,45.87v7.61h-1.09V45.87Z"/><path class="cls-6" d="M142.83,49.35v4.13h-1.09v-.6a2.22,2.22,0,0,1-.61.49,1.79,1.79,0,0,1-.88.22,2.31,2.31,0,0,1-1.07-.25,1.82,1.82,0,0,1-.74-.74,2.39,2.39,0,0,1-.27-1.18,2.37,2.37,0,0,1,.28-1.18,1.93,1.93,0,0,1,.76-.79,2,2,0,0,1,1-.28,1.67,1.67,0,0,1,1.5.74l.08-.56Zm-1.53,3.11a1.22,1.22,0,0,0,.44-.65v-.9a1.15,1.15,0,0,0-.46-.61,1.28,1.28,0,0,0-.77-.24,1.2,1.2,0,0,0-.88.37,1.26,1.26,0,0,0-.36.93,1.33,1.33,0,0,0,.18.68,1.28,1.28,0,0,0,1.85.42Z"/><path class="cls-6" d="M153.07,53.35a3.38,3.38,0,0,1-1.21.21,3.69,3.69,0,0,1-1.93-.49,3.32,3.32,0,0,1-1.26-1.29,3.66,3.66,0,0,1-.45-1.79,3.92,3.92,0,0,1,.45-1.9,3.29,3.29,0,0,1,1.24-1.32,3.5,3.5,0,0,1,1.8-.47,3.87,3.87,0,0,1,1.16.17,4.05,4.05,0,0,1,.94.42L153.36,48a2.76,2.76,0,0,0-1.61-.56,2.12,2.12,0,0,0-1.16.34,2.38,2.38,0,0,0-.86.92,2.51,2.51,0,0,0-.33,1.27,2.81,2.81,0,0,0,.3,1.31,2.2,2.2,0,0,0,.85.91,2.42,2.42,0,0,0,1.27.32,2.67,2.67,0,0,0,.93-.15,2.47,2.47,0,0,0,.7-.4l.48,1A4,4,0,0,1,153.07,53.35Z"/><path class="cls-6" d="M155.66,50.25a2.08,2.08,0,0,1,.82-.79,2.63,2.63,0,0,1,2.4,0,2,2,0,0,1,.8.79,2.22,2.22,0,0,1,.29,1.12,2.26,2.26,0,0,1-.29,1.13,2,2,0,0,1-.8.79,2.39,2.39,0,0,1-1.21.3,2.57,2.57,0,0,1-1.19-.27,2,2,0,0,1-.82-.77,2.28,2.28,0,0,1-.3-1.18A2.16,2.16,0,0,1,155.66,50.25Zm1.15,2.06a1.09,1.09,0,0,0,.84.38,1.15,1.15,0,0,0,.87-.37,1.5,1.5,0,0,0,0-1.88,1.12,1.12,0,0,0-.87-.38,1.07,1.07,0,0,0-.84.39,1.36,1.36,0,0,0-.35.93A1.33,1.33,0,0,0,156.81,52.31Z"/><path class="cls-6" d="M163.13,49.71a2.71,2.71,0,0,1,.62-.4,1.48,1.48,0,0,1,.54-.14l0,1.09a1.33,1.33,0,0,0-.8.16,1.39,1.39,0,0,0-.55.55,1.45,1.45,0,0,0-.19.73v1.78h-1.1V49.35h1l.08,1A2,2,0,0,1,163.13,49.71Z"/><path class="cls-6" d="M167.43,49.71a2.34,2.34,0,0,1,.62-.4,1.39,1.39,0,0,1,.53-.14l-.05,1.09a1.33,1.33,0,0,0-.8.16,1.39,1.39,0,0,0-.55.55,1.45,1.45,0,0,0-.19.73v1.78h-1.1V49.35h1l.08,1A1.89,1.89,0,0,1,167.43,49.71Z"/><path class="cls-6" d="M174.16,49.35v4.13h-1l-.07-.74a1.62,1.62,0,0,1-.63.67,1.9,1.9,0,0,1-1,.24,1.34,1.34,0,0,1-.94-.34,1.16,1.16,0,0,1-.38-.89V49.35h1.09V52a.63.63,0,0,0,.67.69,1,1,0,0,0,.8-.44,1.83,1.83,0,0,0,.31-1.1V49.35Z"/><path class="cls-6" d="M179.91,49.44a1.84,1.84,0,0,1,.73.78,2.47,2.47,0,0,1,.26,1.18,2.29,2.29,0,0,1-.28,1.16,2,2,0,0,1-.8.76,2.45,2.45,0,0,1-1.16.27,2,2,0,0,1-.79-.17,1.68,1.68,0,0,1-.62-.45v2.49h-1.1V49.27h.95l.1.62a2.45,2.45,0,0,1,.74-.53,2.21,2.21,0,0,1,.93-.19A2,2,0,0,1,179.91,49.44Zm-.8,3.11a1.41,1.41,0,0,0,.5-.47,1.21,1.21,0,0,0,.18-.66,1.32,1.32,0,0,0-.36-1,1.24,1.24,0,0,0-.91-.38,1.33,1.33,0,0,0-.8.24,1.21,1.21,0,0,0-.47.65v.83a1.06,1.06,0,0,0,.42.65,1.24,1.24,0,0,0,.78.26A1.35,1.35,0,0,0,179.11,52.55Z"/><path class="cls-6" d="M185.29,53.45a2.5,2.5,0,0,1-.8.14,2.59,2.59,0,0,1-1.2-.27,1.9,1.9,0,0,1-.81-.75,2.4,2.4,0,0,1-.28-1.16,2.19,2.19,0,0,1,.3-1.15,2,2,0,0,1,.81-.75,2.21,2.21,0,0,1,1.08-.26,2.41,2.41,0,0,1,1.6.52l-.54.71a1.67,1.67,0,0,0-.44-.24,1.32,1.32,0,0,0-.53-.11,1.13,1.13,0,0,0-.84.37,1.28,1.28,0,0,0-.35.91,1.25,1.25,0,0,0,.37.91,1.23,1.23,0,0,0,.93.37,1.25,1.25,0,0,0,.82-.27l.55.68A2,2,0,0,1,185.29,53.45Z"/><path class="cls-6" d="M187.71,47.47a.63.63,0,0,1,.44-.17.57.57,0,0,1,.42.17.54.54,0,0,1,0,.82.61.61,0,0,1-.42.17.67.67,0,0,1-.44-.17.54.54,0,0,1,0-.82Zm.95,1.88v4.13h-1.1V49.35Z"/><path class="cls-6" d="M190.6,50.25a2.1,2.1,0,0,1,.83-.79,2.37,2.37,0,0,1,1.2-.29,2.33,2.33,0,0,1,1.19.29,2,2,0,0,1,.81.79,2.32,2.32,0,0,1,.28,1.12,2.36,2.36,0,0,1-.28,1.13,2.05,2.05,0,0,1-.81.79,2.38,2.38,0,0,1-1.2.3,2.54,2.54,0,0,1-1.19-.27,2.06,2.06,0,0,1-.83-.77,2.27,2.27,0,0,1-.29-1.18A2.15,2.15,0,0,1,190.6,50.25Zm1.15,2.06a1.11,1.11,0,0,0,.85.38,1.13,1.13,0,0,0,.86-.37,1.47,1.47,0,0,0,0-1.88,1.1,1.1,0,0,0-.86-.38,1.09,1.09,0,0,0-.85.39,1.35,1.35,0,0,0-.34.93A1.32,1.32,0,0,0,191.75,52.31ZM193,48.62h-.69l.79-1.3h1.21Z"/><path class="cls-6" d="M200.2,49.52a1.14,1.14,0,0,1,.39.9v3.06H199.5V50.81a.74.74,0,0,0-.19-.51.71.71,0,0,0-.51-.2,1,1,0,0,0-.83.44,1.78,1.78,0,0,0-.33,1.1v1.84h-1.09V49.35h1l.08.73a1.65,1.65,0,0,1,.65-.66,2,2,0,0,1,1-.24A1.39,1.39,0,0,1,200.2,49.52Z"/></g></g></svg>