<svg id="Logo_-_white" data-name="Logo - white" xmlns="http://www.w3.org/2000/svg" width="575.8" height="293" viewBox="0 0 575.8 293"><defs><style>.cls-1{fill:#fff;}</style></defs><title>open_society</title><path class="cls-1" d="M105.1,137.6c-8.8,0-18.2-6.1-18.2-23.4s9.4-23.5,18.2-23.5,18.3,6.2,18.3,23.5S114,137.6,105.1,137.6Zm0-39.6c-5.7,0-8.8,5.7-8.8,16.2s3.1,16.2,8.8,16.2,8.9-5.8,8.9-16.2S110.8,98,105.1,98Z"/><path class="cls-1" d="M140.7,137h-9.2V91.3h13.3c9.2,0,14.5,5.2,14.5,14.1s-5.3,14.1-14.5,14.1h-4.1Zm0-24.7h2.6c4.7,0,6.8-2.2,6.8-6.9s-2.1-6.8-6.8-6.8h-2.6Z"/><path class="cls-1" d="M192.7,137H167.6V91.3h24.5v7.6H176.8v10.9h14.5v7.5H176.8v12.2h15.9Z"/><path class="cls-1" d="M235.7,137H225.1L211,103.8V137h-8.4V91.3h10.5l14.2,33.4V91.3h8.4Z"/><path class="cls-1" d="M274.6,137.6c-4.6,0-8.2-.6-10.4-2l-.3-.2.5-8.4.8.4a16.7,16.7,0,0,0,9.2,2.7c3,0,6.2-1.5,6.2-5.9,0-2.8-1.4-4.1-5.5-6.4l-4.2-2.3c-5.1-2.8-7.5-6.8-7.5-12.1s4.5-12.7,14.5-12.7a28.7,28.7,0,0,1,9.1,1.5l.8.2-.4,8-1.2-.5a20.5,20.5,0,0,0-7.7-1.7c-3.6,0-5.7,1.8-5.7,4.8s2.1,4.2,4.5,5.6l4.8,2.6c5.2,3,8,5.8,8,12.5C290.1,132.3,284.2,137.6,274.6,137.6Z"/><path class="cls-1" d="M313.8,137.6c-8.8,0-18.3-6.1-18.3-23.4s9.5-23.5,18.3-23.5,18.3,6.2,18.3,23.5S322.7,137.6,313.8,137.6Zm0-39.6c-5.7,0-8.8,5.7-8.8,16.2s3.1,16.2,8.8,16.2,8.9-5.8,8.9-16.2S319.5,98,313.8,98Z"/><path class="cls-1" d="M358.6,137.6c-13,0-21.1-8.9-21.1-23.4s8.2-23.5,20.8-23.5a28.9,28.9,0,0,1,10.1,1.9h.4l-.6,8.5-1.2-.6a14.8,14.8,0,0,0-7.7-2.1c-3.6,0-12.1,1.5-12.1,15.7s8.5,15.7,12.1,15.7a14.2,14.2,0,0,0,8.2-2.2l.7-.6.6,8.7-.3.2C366.7,137,362.6,137.6,358.6,137.6Z"/><path class="cls-1" d="M386.5,137h-9.2V91.3h9.2Z"/><path class="cls-1" d="M420.5,137H395.4V91.3h24.5v7.6H404.6v10.9H419v7.5H404.6v12.2h15.9Z"/><path class="cls-1" d="M442.8,137h-9.2V98.9h-10V91.3h29.1v7.6h-9.9Z"/><path class="cls-1" d="M476.9,137h-9.2V118.7L454.2,91.3h10l8.3,17.2,7.9-17.2h10l-13.5,27.6Z"/><path class="cls-1" d="M91.3,157h20v4.9H97v14.2h13.6V181H97v20.7H91.3Z"/><path class="cls-1" d="M137,156.6c9.9,0,16.2,8.5,16.2,22.3,0,15.4-6.2,23.3-16.7,23.3s-16.3-8.6-16.3-22.4C120.2,164.4,126.4,156.6,137,156.6Zm-.5,40.9c5.8,0,10.8-4.8,10.8-18.6,0-9-2.8-17.7-10.3-17.7-5.9,0-10.9,4.9-10.9,18.6C126.1,188.8,128.9,197.5,136.5,197.5Z"/><path class="cls-1" d="M192.3,185.3c0,4.4-.2,6.8-1.8,9.9s-5.7,7-12.2,7-10.4-3.2-12.2-7-1.8-5.5-1.8-9.9V157h5.6v29.1c0,7,3.1,11.4,8.4,11.4s8.4-4.4,8.4-11.4V157h5.6Z"/><path class="cls-1" d="M206.4,157h7l16.8,36.9h.1V157h5.4v44.7h-7l-16.8-36.6h-.1v36.6h-5.4Z"/><path class="cls-1" d="M249.9,157h9.7c6,0,9.4,1.4,11.9,3.2,4,2.8,8.3,8.4,8.3,18.5,0,12.9-6.2,23-22.9,23h-7Zm5.6,39.8h3.4c9.9,0,15-6.7,15-18.1,0-9.4-4-16.8-15-16.8h-3.4Z"/><path class="cls-1" d="M306.7,157l14.6,44.7h-5.9l-3.6-11.6h-17l-3.6,11.6h-5.6L300.5,157Zm3.6,28.2-6.8-22.3h-.2l-7,22.3Z"/><path class="cls-1" d="M334.6,161.9H324.4V157h26.1v4.9H340.3v39.8h-5.7Z"/><path class="cls-1" d="M361,157h5.6v44.7H361Z"/><path class="cls-1" d="M395.3,156.6c9.9,0,16.3,8.5,16.3,22.3,0,15.4-6.2,23.3-16.8,23.3s-16.3-8.6-16.3-22.4C378.5,164.4,384.7,156.6,395.3,156.6Zm-.5,40.9c5.9,0,10.9-4.8,10.9-18.6,0-9-2.8-17.7-10.4-17.7-5.9,0-10.9,4.9-10.9,18.6C384.4,188.8,387.2,197.5,394.8,197.5Z"/><path class="cls-1" d="M422.6,157h6.9l16.9,36.9h.1V157h5.4v44.7h-7l-16.8-36.6h-.2v36.6h-5.3Z"/><path class="cls-1" d="M484.5,163.5a15.2,15.2,0,0,0-7.7-2c-4.2,0-6.9,2.8-6.9,6.6s1.1,4.7,7.5,8.4,9.2,7.9,9.2,13c0,7.1-4.4,12.7-13,12.7a21.7,21.7,0,0,1-9.3-2v-5.8c2.6,1.5,5.9,2.9,8.5,2.9,5.1,0,7.9-3.4,7.9-7s-.8-5.5-6.9-9.1c-8-4.9-9.8-7.7-9.8-13.4,0-7.4,5.6-11.2,12.4-11.2a21.7,21.7,0,0,1,8.1,1.5Z"/></svg>