<svg xmlns="http://www.w3.org/2000/svg" viewBox="0 0 236.07 60.29"><defs><style>.cls-1{fill:#fff;}</style></defs><title>logo_fph</title><g id="Layer_2" data-name="Layer 2"><g id="Layer_1-2" data-name="Layer 1"><path class="cls-1" d="M49.21,43.75a19.5,19.5,0,0,1-5.09,5.12,19.09,19.09,0,0,1-8.6,3.32,19.34,19.34,0,0,1-7.07-.34c-.27-.07-.43-.12-.43-.46,0-2.66,0-5.32,0-8a2.8,2.8,0,0,1,0-.34l1.14.2a7.14,7.14,0,0,0,7.09-4,12.74,12.74,0,0,0,1.34-5.07,22,22,0,0,0-.28-5.89c-.59-2.66-2.38-3-4.37-1.75a12.92,12.92,0,0,0-3.74,3.91c-.53.79-1,1.63-1.5,2.43a34.28,34.28,0,0,0,.49-7c-.76.05-1.46.13-2.17.15-1.65,0-3.31.06-5,.06a.42.42,0,0,1-.3-.25,12.16,12.16,0,0,1,.77-5.6,1.87,1.87,0,0,1,2.87-.84,6,6,0,0,1,1.93,2.24c.4.68.44.68,1.14.31,1.21-.65,1.35-1.2.52-2.31a4.29,4.29,0,0,0-4.4-1.56c-2.52.38-3.94,2.11-4.84,4.31a19.77,19.77,0,0,0-.8,3.07c-.1.45-.21.71-.76.68-.93,0-1.87,0-2.94,0,2.62-6.6,7.17-11,14-12.58,7.8-1.83,14.53.42,19.78,6.51a19.48,19.48,0,0,1,3,20.35,13.08,13.08,0,0,1-.12-1.35c.06-3.33.17-6.66.19-10a8,8,0,0,0-.41-2.41,1.63,1.63,0,0,0-2.24-1.11,6.39,6.39,0,0,0-2.84,1.81,19.73,19.73,0,0,0-3.5,4.92c.76-4.79.16-9.52.54-14.13H39.86l-4.51,0c-.3,0-.52,0-.48.41s-.07.69.47.67c1.23-.05,2.47-.06,3.71-.14.66,0,.65-.09.65.55V43.58c.83-.17,1.59-.31,2.34-.51.11,0,.22-.29.22-.45,0-.79,0-1.57,0-2.36a26,26,0,0,1,.93-7.34,8.32,8.32,0,0,1,2.46-4.18,4.27,4.27,0,0,1,1.21-.69.85.85,0,0,1,1.28.77,22.41,22.41,0,0,1,.11,2.72c0,2.3-.17,4.6-.17,6.91a22.21,22.21,0,0,0,.36,3.63A7.26,7.26,0,0,0,49.21,43.75Z"/><path class="cls-1" d="M53,47.66a24.78,24.78,0,0,1-4.38,5.1,29,29,0,0,1-14.07,7,28.15,28.15,0,0,1-5.93.54,29.36,29.36,0,0,1-20.59-9A28.77,28.77,0,0,1,.55,36.91a27.12,27.12,0,0,1-.5-7.13,29.55,29.55,0,0,1,1.82-8.56A36.32,36.32,0,0,1,9,9.48a3.66,3.66,0,0,1,4.49-.74A3.57,3.57,0,0,1,15,13.42a9.68,9.68,0,0,1-1.55,2.09,25.5,25.5,0,0,0-5.92,13A25,25,0,0,0,10.65,45,24.92,24.92,0,0,0,22.39,55.53a24.09,24.09,0,0,0,8.84,2.13A25.15,25.15,0,0,0,52.72,48Z"/><path class="cls-1" d="M25.19,26.91v24c-1.09-.62-2.13-1.12-3.06-1.77C21,48.32,20,47.41,19,46.55a.57.57,0,0,1-.16-.81,20.18,20.18,0,0,0,1.78-7.64c.16-3.41.22-6.83.29-10.25,0-.47.12-.61.62-.63,1.07,0,2.14-.18,3.22-.28Z"/><path class="cls-1" d="M34.86,33.23a22,22,0,0,1-.61,5.6A6.12,6.12,0,0,1,33,41.26a2.88,2.88,0,0,1-4.71-1A4.66,4.66,0,0,1,28,38.94,12.6,12.6,0,0,1,30,31.22a7.52,7.52,0,0,1,2.26-2.37c1.35-.85,2.24-.44,2.43,1.15C34.77,31.07,34.79,32.16,34.86,33.23Z"/><path class="cls-1" d="M17.45,44.87c-.41-.59-.83-1.16-1.21-1.76a19.42,19.42,0,0,1-3-11.56,35.7,35.7,0,0,1,.56-3.71c.06-.39.27-.51.65-.5,1,0,1.93,0,2.89,0,.38,0,.52.08.52.48,0,4.74,0,9.47,0,14.21,0,.93-.16,1.87-.24,2.8Z"/><circle class="cls-1" cx="22.93" cy="3.94" r="3.78"/><circle class="cls-1" cx="39.18" cy="3.57" r="3.57"/><circle class="cls-1" cx="52.26" cy="11.29" r="3.06"/><circle class="cls-1" cx="58.7" cy="24.91" r="2.84"/><path class="cls-1" d="M213.7,31.23h-3.87l0-.12a4.34,4.34,0,0,1,.69-.17c.55-.06.75-.34.71-.88-.14-2-.27-4-.41-6,0-.33,0-.65-.07-1l-.19,0c-.09.23-.19.46-.26.69-.73,2.28-1.44,4.56-2.18,6.83-.09.28-.24.65-.46.74-.46.19-.72-.12-.85-.57q-.72-2.3-1.46-4.59c-.28-.86-.58-1.72-.87-2.57a.78.78,0,0,0-.35-.44,3,3,0,0,0-.09.41l-.33,5.59c0,.26-.06.52-.07.78,0,.64.13.84.76,1l.83.19,0,.12H202l0-.1a1.4,1.4,0,0,1,.46-.19.65.65,0,0,0,.64-.69c.11-1.34.22-2.68.31-4,.08-1.13.17-2.26.22-3.39,0-.82,0-.9-.87-1.06a1,1,0,0,1-.49-.19h1.66c1.42,0,1.43,0,1.86,1.37.58,1.88,1.16,3.77,1.75,5.65.09.27.23.53.34.8l.16,0a4.76,4.76,0,0,0,.29-.65c.64-2.17,1.29-4.34,1.91-6.52.14-.52.32-.76.92-.7.8.07,1.62,0,2.43,0l0,.17c-.22,0-.43.07-.65.09-.72.09-.86.2-.81.92.17,2.51.35,5,.53,7.52a.66.66,0,0,0,.64.69,2.85,2.85,0,0,1,.48.13Z"/><path class="cls-1" d="M198.12,30.25a3.65,3.65,0,0,1-1.66,1.19c-.15,0-.49-.22-.55-.41a4.66,4.66,0,0,1-.12-1.13c0-.18,0-.36,0-.55l-.15,0c-.09.1-.17.21-.26.32a13.26,13.26,0,0,1-1.28,1.51c-.73.63-1.44.4-1.73-.53a5.88,5.88,0,0,1,.16-3.84,3.24,3.24,0,0,1,2.91-2.35c.31,0,.43-.17.43-.46,0-.71,0-1.43,0-2.15a.48.48,0,0,0-.49-.54c-.19,0-.39-.09-.58-.13V21l.76,0h.89c.62,0,.62,0,.61.65,0,2.81-.08,5.63-.1,8.44a.61.61,0,0,0,.16.44c.1.06.31-.05.45-.12a2.86,2.86,0,0,0,.4-.28Zm-4.94-1.89.14,0a5.78,5.78,0,0,0,0,1.25c.06.29.26.69.49.77s.59-.15.85-.32a1.84,1.84,0,0,0,.45-.57,6.07,6.07,0,0,0,.73-3.73.68.68,0,0,0-.35-.51c-.68-.23-1.63-.22-1.88.74C193.43,26.78,193.33,27.58,193.18,28.36Z"/><path class="cls-1" d="M131.39,30.24a15.4,15.4,0,0,1-1.58,1.1c-.41.21-.65,0-.65-.51,0-1.5,0-3,0-4.5,0-.28-.15-.74-.32-.78a1,1,0,0,0-.87.26,4,4,0,0,0-1.4,3c0,.66,0,1.33,0,2,0,.47-.24.49-.59.5s-.52-.12-.52-.51c0-2.88,0-5.77,0-8.65,0-.84,0-.84-.86-.95a1.63,1.63,0,0,1-.31-.11v-.15c.69,0,1.38,0,2.07,0,.08,0,.22.29.22.44,0,1.75,0,3.5,0,5.24a1.21,1.21,0,0,0,.08.25c.16-.19.28-.34.41-.48.61-.62,1.2-1.25,1.83-1.85a.78.78,0,0,1,1.05-.13,1.28,1.28,0,0,1,.38.9c0,1.43-.05,2.86-.07,4.29,0,.86.06.89.82.49a1,1,0,0,1,.18,0Z"/><path class="cls-1" d="M176.05,25.44c.2-.44,1.2-1.19,1.59-1.1a.78.78,0,0,1,.52.48c.13.47.31.34.59.16s.7-.38,1.05-.56c.91-.43,2,.54,2.14,1.51a5.82,5.82,0,0,1-.53,3.57,3.08,3.08,0,0,1-2.66,1.75c-.32,0-.45.13-.44.44V33.1a.47.47,0,0,0,.5.54c.26,0,.53.08.79.12v.15H176.1l0-.1a1.42,1.42,0,0,1,.4-.12c.57,0,.65-.33.64-.82,0-2.29,0-4.58,0-6.87,0-.89-.1-.95-.91-.56C176.16,25.46,176.11,25.44,176.05,25.44Zm2.18,2.09h.06c0,.74,0,1.47,0,2.2a.94.94,0,0,0,1.42.88,1.74,1.74,0,0,0,.81-.95,12.44,12.44,0,0,0,.29-2.58,3.38,3.38,0,0,0-.39-1.39,1.15,1.15,0,0,0-1.41-.48.93.93,0,0,0-.78,1.07C178.22,26.7,178.23,27.12,178.23,27.53Z"/><path class="cls-1" d="M123.7,28.55a4.71,4.71,0,0,1,0,.53c0,.15-.06.31-.07.46-.09,1.26-.09,1.25-1.36,1.55a6.24,6.24,0,0,1-4.3-.22A4.39,4.39,0,0,1,115.43,27a4.91,4.91,0,0,1,1.74-4.44,4.79,4.79,0,0,1,2.71-1.14,26.72,26.72,0,0,1,3.22.17c.35,0,.48.24.45.58s-.07.94-.12,1.4c0,.09-.09.16-.14.24s-.16-.12-.19-.2a.93.93,0,0,1-.09-.4,1.37,1.37,0,0,0-1.26-1.37,3.51,3.51,0,0,0-3.78,1.4A5.72,5.72,0,0,0,118,29.7a3.41,3.41,0,0,0,4.3.81,2.52,2.52,0,0,0,.75-1,9.2,9.2,0,0,0,.41-1Z"/><path class="cls-1" d="M164.42,28.85a3.5,3.5,0,0,1-.23,2.24c0,.11-.38.15-.59.15-1.29,0-2.58,0-3.87-.06-.37,0-.73.05-1.1.06H158v-.19l.77-.17a.63.63,0,0,0,.57-.69c0-2.58,0-5.16,0-7.75a.55.55,0,0,0-.53-.64,2.23,2.23,0,0,1-.83-.29h4.45l0,.12-.95.17c-.72.1-.84.22-.84.93v7c0,.8.24,1,1.06,1.08.21,0,.42,0,.63,0a1.75,1.75,0,0,0,1.85-1.24C164.22,29.31,164.32,29.08,164.42,28.85Z"/><path class="cls-1" d="M135.49,29.16c-.48.61-.89,1.14-1.34,1.64a1.16,1.16,0,0,1-1.22.54,1.35,1.35,0,0,1-.88-1.15,6,6,0,0,1,.56-4.16,2.88,2.88,0,0,1,2.76-1.64,2.6,2.6,0,0,0,.73-.24l.58-.19v.95c0,1.6,0,3.2,0,4.81a1.15,1.15,0,0,0,.05.41c.1.3.28.45.58.2l.43-.33.1.09a1.09,1.09,0,0,1-.17.32,9.62,9.62,0,0,1-.92.77c-.58.4-1.12.11-1.15-.6,0-.31,0-.63,0-.94A2.65,2.65,0,0,0,135.49,29.16Zm-2.61-.91.07,0a8.27,8.27,0,0,0,.16,1.23c.09.31.28.78.49.81a1.2,1.2,0,0,0,.92-.4,5,5,0,0,0,1.09-4.17.93.93,0,0,0-.48-.6,1.24,1.24,0,0,0-1.72.72A21,21,0,0,0,132.88,28.25Z"/><path class="cls-1" d="M219,23.9c0,1.27,0,2.4,0,3.53,0,.82,0,1.64.07,2.46,0,.51.29.61.72.31a2.6,2.6,0,0,1,.36-.21l.13.18a8.67,8.67,0,0,1-1.4,1c-.5.25-.88-.08-.9-.65,0-.31,0-.63,0-.94a4.23,4.23,0,0,0-.09-.61c-.29.41-.46.71-.68,1a9.28,9.28,0,0,1-1,1c-.62.53-1.33.42-1.6-.36a6.35,6.35,0,0,1-.31-2.25,4.4,4.4,0,0,1,1.27-3.22,2.65,2.65,0,0,1,2.37-.82.69.69,0,0,0,.38-.11C218.61,24.16,218.82,24,219,23.9Zm-3.67,4.26c.09.58.15,1.17.29,1.74s.47.59.89.34a1.41,1.41,0,0,0,.4-.33A5.11,5.11,0,0,0,218,25.59a.82.82,0,0,0-.51-.5,1.36,1.36,0,0,0-1.83,1.14C215.52,26.85,215.46,27.5,215.36,28.16Z"/><path class="cls-1" d="M175.83,27.49a5.46,5.46,0,0,1-.67,2.65,2.52,2.52,0,0,1-2.73,1.22,2.43,2.43,0,0,1-1.88-1.83,5.42,5.42,0,0,1,.26-3.53,2.56,2.56,0,0,1,5,.6C175.81,26.89,175.81,27.19,175.83,27.49Zm-1.14.43c-.15-.8-.25-1.6-.47-2.36a1.08,1.08,0,0,0-1.95-.38,1.56,1.56,0,0,0-.34.58,7.07,7.07,0,0,0,0,4.27,1.31,1.31,0,0,0,1.2,1.08,1.25,1.25,0,0,0,1.16-1C174.45,29.37,174.55,28.65,174.69,27.92Z"/><path class="cls-1" d="M188.27,27.41a4.75,4.75,0,0,1-.79,2.92,2.43,2.43,0,0,1-2.37,1,2.18,2.18,0,0,1-1.93-1.48,4.87,4.87,0,0,1,.4-4.42,2.59,2.59,0,0,1,2.88-1.09,2.66,2.66,0,0,1,1.81,2.33C188.28,26.92,188.27,27.17,188.27,27.41Zm-1.09.56c-.15-.83-.25-1.57-.44-2.29s-.56-1-1.09-1a1.23,1.23,0,0,0-1.17.89,6.7,6.7,0,0,0,0,4.65,1.11,1.11,0,0,0,1.08.83,1,1,0,0,0,1.1-.8C186.87,29.47,187,28.69,187.18,28Z"/><path class="cls-1" d="M88.85,21.87h.76V31H89l-.1-.64a2,2,0,0,1-1.92.79,1.49,1.49,0,0,1-1.33-1,7.22,7.22,0,0,1,0-4.48,1.81,1.81,0,0,1,2.82-.78c.13.09.24.19.44.34V21.87ZM86,27.78c.08.57.14,1.23.28,1.88a1,1,0,0,0,.85.81A1.19,1.19,0,0,0,88.41,30a1.58,1.58,0,0,0,.34-.75c0-1,0-2,0-3a1.31,1.31,0,0,0-.23-.58,1.2,1.2,0,0,0-1.29-.6,1,1,0,0,0-1,.87C86.14,26.54,86.11,27.11,86,27.78Z"/><path class="cls-1" d="M220.67,32.63a1.07,1.07,0,0,0,1.42.11,1.74,1.74,0,0,0,.71-1.81c-.51-1.77-1.12-3.52-1.69-5.27-.22-.67-.68-.56-1.18-.3l-.06-.18a14.5,14.5,0,0,1,1.54-.95c.3-.15.51.13.6.42.37,1.17.73,2.33,1.09,3.5.15.47.29,1,.47,1.55.17-.18.3-.26.33-.37a19,19,0,0,0,.87-2.61,5.45,5.45,0,0,0-.22-1.62c0-.19-.07-.49,0-.54a2.33,2.33,0,0,1,.93-.35c.08,0,.32.38.29.56a6.15,6.15,0,0,1-.37,1.67c-.89,2.09-1.81,4.16-2.78,6.21a3.6,3.6,0,0,1-1,1.06.7.7,0,0,1-1,0A.73.73,0,0,1,220.67,32.63Z"/><path class="cls-1" d="M142.33,20.86c.67,0,1.33,0,2,0,.07,0,.18.34.19.52,0,2.6,0,5.21,0,7.81v.37c0,.85.1.91.84.49a.71.71,0,0,1,.22-.07l.09.16a16.83,16.83,0,0,1-1.73,1.16c-.37.19-.55-.19-.59-.52a7.37,7.37,0,0,1,0-.94V22.1c0-.83,0-.83-.82-1l-.18-.07Z"/><path class="cls-1" d="M94.14,27.09a7.42,7.42,0,0,0,0-.83c-.06-.74-.37-1.08-1-1.15a1.27,1.27,0,0,0-1.5.82c-.09.19-.46.25-.74.39a1.61,1.61,0,0,1,1.61-1.84,7.37,7.37,0,0,1,.94,0A1.5,1.5,0,0,1,95,26.06c0,.82,0,1.64,0,2.46V31h-.71l0-.52a5.15,5.15,0,0,1-1.27.62c-1.79.36-2.56-.89-2.23-2.46.17-.83.84-1.28,1.93-1.39C93.12,27.16,93.6,27.13,94.14,27.09Zm0,.59a15.91,15.91,0,0,0-1.74.24,1.12,1.12,0,0,0-.94,1.16,1.23,1.23,0,0,0,.64,1.31A1.42,1.42,0,0,0,93.68,30C94.33,29.37,94.14,28.57,94.15,27.68Z"/><path class="cls-1" d="M150.42,29.22c.08.06.11.07.11.08a2.85,2.85,0,0,1-1.72,1.92,2,2,0,0,1-2.26-.77A4,4,0,0,1,146,28.2a4.26,4.26,0,0,1,1.11-3.07,2.66,2.66,0,0,1,2.61-.85,1,1,0,0,1,.71,1.46c-.29.75-1,1-1.62,1.32a3.6,3.6,0,0,1-.74.26c-1,.24-1,1.1-.58,2.24a1.3,1.3,0,0,0,1.89.72,3.76,3.76,0,0,0,.73-.66C150.21,29.5,150.31,29.35,150.42,29.22Zm-1-4.07a1.34,1.34,0,0,0-.37-.49.78.78,0,0,0-1,.2,3,3,0,0,0-.75,2.06.44.44,0,0,0,.3.29A2.12,2.12,0,0,0,149.38,25.15Z"/><path class="cls-1" d="M169.91,29.17c0,.15.1.23.08.3a2.78,2.78,0,0,1-2.5,1.82,1.76,1.76,0,0,1-1.62-1,4.87,4.87,0,0,1,.61-5.07,2.62,2.62,0,0,1,2.58-.92,1.07,1.07,0,0,1,.7,1.66,2.86,2.86,0,0,1-1.52,1.13c-.35.15-.72.26-1.08.41a.69.69,0,0,0-.5.81,6.09,6.09,0,0,0,.29,1.36,1.36,1.36,0,0,0,2.26.38C169.44,29.76,169.64,29.49,169.91,29.17Zm-1.09-4a1.46,1.46,0,0,0-.42-.49.8.8,0,0,0-1,.27,3.13,3.13,0,0,0-.69,2c0,.1.22.32.33.32A2.12,2.12,0,0,0,168.82,25.14Z"/><path class="cls-1" d="M230.9,29.23c-.41,1.4-1.89,2.61-3.29,2a1.89,1.89,0,0,1-1-1.15,4.84,4.84,0,0,1,.54-4.6,2.71,2.71,0,0,1,2.76-1.13,1,1,0,0,1,.78,1.41,2.49,2.49,0,0,1-.86,1,8.62,8.62,0,0,1-1.67.73.86.86,0,0,0-.66,1,5.25,5.25,0,0,0,.25,1.11,1.38,1.38,0,0,0,2.41.37c.14-.16.24-.35.38-.51S230.72,29.33,230.9,29.23Zm-1.15-3.91c-.15-.21-.28-.57-.45-.59a1.43,1.43,0,0,0-1,.2,2.65,2.65,0,0,0-.76,2c0,.1.21.3.31.29A2.23,2.23,0,0,0,229.75,25.32Z"/><path class="cls-1" d="M188.37,20.84h1.14c1.22,0,1.06-.14,1.06,1.05,0,2.54,0,5.07,0,7.6,0,.14,0,.28,0,.42.05.44.24.54.63.33l.46-.22.07.13c-.45.34-.88.71-1.35,1s-1,.16-1-.54c0-.46,0-.91,0-1.36,0-2.34.05-4.68.07-7,0-.93,0-.93-.88-1.13l-.2-.06Z"/><path class="cls-1" d="M152.85,31.42c-1-.06-1.56-.38-1.78-1a.64.64,0,0,1,.4-.84c.32-.09.54,0,.6.36.12.72.4,1,.93,1.07a1.12,1.12,0,0,0,1.18-.68,1.19,1.19,0,0,0-.5-1.42c-.52-.39-1.05-.76-1.53-1.19a1.87,1.87,0,0,1-.65-2.37,2.15,2.15,0,0,1,2.32-1,3.46,3.46,0,0,1,1.11.41.63.63,0,0,1,.25.55,1.16,1.16,0,0,1-.52.53c-.06,0-.28-.07-.36-.17s-.2-.37-.32-.54a1.09,1.09,0,0,0-1.32-.32.9.9,0,0,0-.29,1.16,2.85,2.85,0,0,0,.68.83c.48.43,1,.8,1.51,1.21a1.81,1.81,0,0,1-.61,3.15A6.56,6.56,0,0,1,152.85,31.42Z"/><path class="cls-1" d="M101.89,27.46c0-.41.07-1.06.19-1.69a1.46,1.46,0,0,1,1.2-1.18,4.48,4.48,0,0,1,1.55-.05,1.71,1.71,0,0,1,1.51,1.85,17.93,17.93,0,0,1-.06,2.93,1.89,1.89,0,0,1-2.19,1.82A1.94,1.94,0,0,1,102,29.21C101.93,28.71,101.93,28.2,101.89,27.46Zm3.71.44c0-.58,0-1.13-.13-1.66a1.18,1.18,0,0,0-1.41-1.14,1.13,1.13,0,0,0-1.23,1.21,26.2,26.2,0,0,0,0,3.07,1.13,1.13,0,0,0,1.22,1.11,1.17,1.17,0,0,0,1.39-1C105.54,29,105.55,28.41,105.6,27.9Z"/><path class="cls-1" d="M140.45,40.85v3.43h-.67V37h.67v3.22h2.84V37H144v7.31h-.66V40.85Z"/><path class="cls-1" d="M79.13,27.69c0,.58,0,1.14-.13,1.69a1.92,1.92,0,0,1-2.2,1.76,1.87,1.87,0,0,1-2.07-1.78,21.9,21.9,0,0,1,0-3.24,1.58,1.58,0,0,1,1.43-1.57,4.78,4.78,0,0,1,1.6,0A1.59,1.59,0,0,1,79,26C79.08,26.59,79.09,27.15,79.13,27.69Zm-.81.11c0-.5-.06-1-.15-1.57a1.15,1.15,0,0,0-1.31-1.13c-.79,0-1.24.31-1.3,1.12a24.87,24.87,0,0,0,0,3.23,1.15,1.15,0,0,0,1.28,1.05,1.2,1.2,0,0,0,1.34-1.05C78.26,28.92,78.27,28.38,78.32,27.8Z"/><path class="cls-1" d="M107.49,24.61h.73l.06.66a2,2,0,0,1,1.72-.8,1.4,1.4,0,0,1,1.49,1.32c.07,1.71,0,3.42,0,5.16h-.72v-.53c0-1.32,0-2.65,0-4,0-.75-.35-1.21-.89-1.32a1.19,1.19,0,0,0-1.4.73,4,4,0,0,0-.23,1.28c0,1.1,0,2.2,0,3.3V31h-.76Z"/><path class="cls-1" d="M70.25,21.88h3.81v.68h-3v3.37h2.78v.71H71.08V31h-.83Z"/><path class="cls-1" d="M84.26,31H83.5V28.56c0-.66,0-1.33,0-2,0-.91-.4-1.43-1.08-1.47A1.33,1.33,0,0,0,81,26.52c-.06,1.33-.05,2.66-.06,4,0,.14,0,.28,0,.45h-.7V24.61h.69l.07.63a4.28,4.28,0,0,0,.36-.31,1.81,1.81,0,0,1,2-.32,1.45,1.45,0,0,1,.91,1.51C84.27,27.72,84.26,29.33,84.26,31Z"/><path class="cls-1" d="M110.41,39.61c0-.55.25-.51.58-.43,0,1.93,0,3.86,0,5.79,0,1-.74,1.4-2,1.32a1.26,1.26,0,0,1-1.3-1.41h.54c.31.79.68,1,1.41.88s.78-.56.71-1.83a7.57,7.57,0,0,1-1.4.29,1.16,1.16,0,0,1-1.28-1.06,10.81,10.81,0,0,1-.09-2.6C107.76,39,109.11,38.57,110.41,39.61Zm0,2a9.58,9.58,0,0,0-.14-1.2,1,1,0,0,0-1-.84.89.89,0,0,0-.93.88,13.26,13.26,0,0,0,0,2.44.89.89,0,0,0,.94.87,1,1,0,0,0,1-.86C110.34,42.47,110.36,42,110.41,41.6Z"/><path class="cls-1" d="M150.07,44.29h-.6V39.18l.5,0,.08.48a1.42,1.42,0,0,1,2.34.06,4.64,4.64,0,0,1,.74-.51A1.28,1.28,0,0,1,155,40.31c.06,1.3,0,2.61,0,4h-.62c0-1.1,0-2.2,0-3.29a1.94,1.94,0,0,0-.09-.77c-.11-.24-.34-.57-.55-.6a1.09,1.09,0,0,0-.85.32,2,2,0,0,0-.34,1.11c0,1.07,0,2.13,0,3.24l-.65,0v-1.8c0-.7,0-1.4,0-2.09,0-.4-.17-.78-.64-.85a.83.83,0,0,0-1,.54,3.55,3.55,0,0,0-.2,1.07C150.05,42.2,150.07,43.21,150.07,44.29Z"/><path class="cls-1" d="M156.08,39.16h.5l.08.42c1-.77,1.7-.73,2.26,0a6.32,6.32,0,0,1,1.31-.55,1.12,1.12,0,0,1,1.33,1,15.42,15.42,0,0,1,.08,1.93c0,.7,0,1.39,0,2.09a.5.5,0,0,1,0,.16l-.58,0c0-1.1,0-2.16,0-3.22a2.54,2.54,0,0,0-.1-.88c-.1-.24-.34-.57-.55-.59a1.05,1.05,0,0,0-.85.31,2,2,0,0,0-.34,1.06c0,1.08,0,2.17,0,3.3l-.65,0V40.94a1.7,1.7,0,0,0-.07-.72c-.14-.25-.38-.59-.59-.61A1.13,1.13,0,0,0,157,40a2.11,2.11,0,0,0-.29,1.09c0,1.06,0,2.12,0,3.2h-.6Z"/><path class="cls-1" d="M233.68,26.76c.28-.53.55-1.06.85-1.58a2.72,2.72,0,0,1,.47-.69c.16-.14.48-.3.61-.23a1,1,0,0,1,.46.62,1.09,1.09,0,0,1-.22.72.51.51,0,0,1-.5,0c-.44-.28-.71-.16-.95.25a5.65,5.65,0,0,0-.83,2.92c0,.67,0,1.33,0,2,0,.4-.16.47-.5.46s-.63,0-.62-.46c0-1.59,0-3.18,0-4.77,0-.14,0-.28,0-.42-.07-.49-.31-.61-.76-.38l-.37.17c.07-.18.08-.29.14-.33a10.09,10.09,0,0,1,.95-.66c.56-.31,1-.14,1.06.48a9.5,9.5,0,0,1,.07,1.31v.54Z"/><path class="cls-1" d="M137.86,25.24c.43-.28.84-.6,1.29-.85a.55.55,0,0,1,.88.46c.08.63.09,1.28.14,2,.11-.19.18-.29.24-.39.35-.62.67-1.26,1.06-1.85a.86.86,0,0,1,.69-.31.7.7,0,0,1,.44.55,1.86,1.86,0,0,1-.3.84c0,.05-.25,0-.36,0-.59-.26-.74-.23-1.05.33a5.64,5.64,0,0,0-.77,2.89c0,.63,0,1.26,0,1.89,0,.46-.26.44-.58.45s-.56,0-.55-.48c0-1.57,0-3.14,0-4.71a2.43,2.43,0,0,0,0-.47c-.07-.44-.31-.55-.71-.36a3.59,3.59,0,0,0-.34.17Z"/><path class="cls-1" d="M71,46.25h-.61V39.17h.52l.06.37a4.78,4.78,0,0,1,1-.47,1.41,1.41,0,0,1,1.79,1.35,16.05,16.05,0,0,1,0,2.5,1.39,1.39,0,0,1-1,1.37A1.49,1.49,0,0,1,71,43.81Zm2.25-4.51c0-.4,0-.86-.13-1.3a.93.93,0,0,0-.79-.86.91.91,0,0,0-1,.53,4,4,0,0,0,0,3.3.87.87,0,0,0,1.07.46.92.92,0,0,0,.77-.87C73.18,42.6,73.21,42.2,73.25,41.74Z"/><path class="cls-1" d="M127.45,37h.65v7.33l-.51,0-.07-.49c-.06,0-.12,0-.14.07a1.53,1.53,0,0,1-1.68.44,1.34,1.34,0,0,1-1-1.3,13.05,13.05,0,0,1-.07-2.25c.14-1.71,1.29-2.24,2.78-1.26Zm.08,4.73h0a5.93,5.93,0,0,0,0-.73,2.43,2.43,0,0,0-.15-.71,1,1,0,0,0-1.11-.67.84.84,0,0,0-.84.84,22.38,22.38,0,0,0,0,2.59.87.87,0,0,0,.86.89,1,1,0,0,0,1.09-.77A11.18,11.18,0,0,0,127.53,41.69Z"/><path class="cls-1" d="M96.5,37c.83,0,1.61,0,2.4,0A1.18,1.18,0,0,1,100.06,38a6.2,6.2,0,0,1,0,1.61,1.32,1.32,0,0,1-1.35,1.21c-.24,0-.49,0-.73,0h-.78v3.39H96.5Zm.67,3.33c1.41.12,1.83,0,2.1-.46a2.18,2.18,0,0,0-.08-2c-.59-.58-1.33-.24-2-.32Z"/><path class="cls-1" d="M132.63,41.87h-2.87c-.24.91.08,1.8.7,2s1.24-.13,1.52-1.1h.55a1.34,1.34,0,0,1-1,1.57c-1.41.34-2.49-.19-2.46-1.78a13.48,13.48,0,0,1,.13-2.29c.16-.9.81-1.26,1.85-1.2a1.39,1.39,0,0,1,1.5,1.36C132.58,40.87,132.59,41.34,132.63,41.87Zm-2.94-.55h2.24c.08-1.17-.29-1.74-1.1-1.75S129.62,40.09,129.69,41.32Z"/><path class="cls-1" d="M118.13,41.86h-2.84a1.54,1.54,0,0,0,.74,2c.73.19,1.22-.17,1.47-1.11h.59a1.5,1.5,0,0,1-1.67,1.66c-1.13,0-1.81-.5-1.84-1.54a13.54,13.54,0,0,1,.09-2.55c.14-.94.8-1.33,1.85-1.27a1.42,1.42,0,0,1,1.53,1.4c0,.29,0,.59.07.88S118.13,41.64,118.13,41.86Zm-.64-.52c0-.65.05-1.34-.59-1.62a1.48,1.48,0,0,0-1.22.05c-.56.32-.5,1-.46,1.57Z"/><path class="cls-1" d="M93.52,41.88H90.63c-.18,1.06.17,1.86.83,2s1.17-.2,1.42-1.12h.54a1.33,1.33,0,0,1-1,1.56c-1.51.36-2.55-.18-2.53-1.81a17,17,0,0,1,.1-2.14A1.51,1.51,0,0,1,91.74,39c1,0,1.51.39,1.67,1.35C93.49,40.85,93.48,41.33,93.52,41.88Zm-.66-.52c0-.64,0-1.27-.54-1.64a1.07,1.07,0,0,0-1.28,0c-.51.4-.48,1-.45,1.61h2.27Z"/><path class="cls-1" d="M163.2,41.86c-.15,1.14.21,1.92.9,2s1.17-.23,1.35-1.13h.7a4.85,4.85,0,0,1-.42,1.1,1.86,1.86,0,0,1-2,.51,1.23,1.23,0,0,1-1.14-1.13,14.64,14.64,0,0,1,0-3c.1-.86.79-1.25,1.74-1.23a1.44,1.44,0,0,1,1.62,1.3,5.05,5.05,0,0,1,.07.68c0,.26,0,.52,0,.84Zm2.25-.52c0-.66.06-1.37-.62-1.64a1.5,1.5,0,0,0-1.21.09c-.52.33-.46,1-.47,1.57h2Z"/><path class="cls-1" d="M148.6,41.7a11.3,11.3,0,0,1-.16,1.55c-.2.86-.76,1.19-1.79,1.16s-1.46-.41-1.55-1.25A13.41,13.41,0,0,1,145,40.4c.09-1,.79-1.42,2-1.35a1.48,1.48,0,0,1,1.51,1.55c0,.36,0,.73,0,1.09Zm-.65,0h0c0-.3,0-.6,0-.89s-.05-.28-.07-.41c-.15-.66-.44-.9-1.09-.89a.91.91,0,0,0-1,1,19,19,0,0,0,0,2.5.91.91,0,0,0,1,.87.94.94,0,0,0,1.11-.79C147.9,42.66,147.91,42.2,148,41.75Z"/><path class="cls-1" d="M96.73,25.23l-1,0,0-.58,1-.05a6.9,6.9,0,0,1,.16-1.3c0-.14.38-.2.66-.33v1.65h1.28l0,.6H97.56c0,.25,0,.45,0,.65V29c0,1.29,0,1.29,1.26,1.41V31a7.32,7.32,0,0,1-1.34-.08c-.54-.12-.7-.58-.71-1.09V25.23Z"/><path class="cls-1" d="M106.87,41.65a15,15,0,0,1-.17,1.66c-.19.8-.8,1.13-1.78,1.1s-1.47-.43-1.54-1.2a14.74,14.74,0,0,1,0-3c.08-.88.8-1.26,1.9-1.19a1.47,1.47,0,0,1,1.54,1.4c0,.39,0,.8,0,1.2Zm-.65.12c0-.42,0-.86-.11-1.29-.13-.72-.46-.95-1.17-.91a.92.92,0,0,0-1,1,21.35,21.35,0,0,0,0,2.4.92.92,0,0,0,1,.91c.65,0,1.06-.22,1.16-.8S106.18,42.22,106.22,41.77Z"/><path class="cls-1" d="M78.06,41.66a12,12,0,0,1,0,1.2,1.52,1.52,0,0,1-1.63,1.55c-1.1,0-1.72-.39-1.82-1.43a12.83,12.83,0,0,1,0-2.7c.1-.91.76-1.29,1.87-1.23a1.46,1.46,0,0,1,1.58,1.41c0,.4,0,.8,0,1.2Zm-.58.08c0-.4,0-.86-.13-1.3-.13-.68-.44-.9-1.14-.87a.89.89,0,0,0-1,1,20,20,0,0,0,0,2.45.92.92,0,0,0,1,.92c.66,0,1-.2,1.16-.8A10.85,10.85,0,0,0,77.48,41.74Z"/><path class="cls-1" d="M79,39.16h.63v1.78c0,.65,0,1.29,0,1.94s.3.95.73,1a1,1,0,0,0,1.14-.79,2.49,2.49,0,0,0,.08-.72c0-1.06,0-2.12,0-3.21l.61,0v5.13c-.33.12-.58.08-.58-.35a4.4,4.4,0,0,1-.82.44A1.3,1.3,0,0,1,79,43.09C79,41.8,79,40.51,79,39.16Z"/><path class="cls-1" d="M121.92,40.51l-.57,0,.09-.13a4.09,4.09,0,0,0-.86-.81.67.67,0,0,0-.91.4.75.75,0,0,0,.29,1c.33.24.72.41,1.08.62a1.48,1.48,0,0,1,.86,1.17,1.35,1.35,0,0,1-1.47,1.65c-1.14,0-1.62-.47-1.55-1.62h.56l.06.34c.06.42.23.72.7.78s.78,0,1-.42a.89.89,0,0,0-.23-1.14,7.21,7.21,0,0,0-1.07-.64A1.48,1.48,0,0,1,119,40.3a1.19,1.19,0,0,1,1.15-1.24c.92-.12,1.48.17,1.68.86C121.85,40.09,121.87,40.26,121.92,40.51Z"/><path class="cls-1" d="M99.83,24.6h.74V31h-.74Z"/><path class="cls-1" d="M88.22,37h.61v7.31h-.61Z"/><path class="cls-1" d="M114.14,38.92v.7c-1.17.23-1.41.52-1.41,1.69v3l-.63,0V39.16h.57l.09.4Z"/><path class="cls-1" d="M83.36,39.17h.58l.08.39,1.36-.63v.7c-1.14.21-1.39.53-1.39,1.69v3h-.63Z"/><path class="cls-1" d="M135.76,44.29V37l.58,0v7.35Z"/><path class="cls-1" d="M101.45,44.28l-.25,0-.35,0V39.16l.56,0,.06.43,1.36-.65v.7c-1.2.27-1.38.51-1.38,1.78Z"/><path class="cls-1" d="M167.09,23.21a20.9,20.9,0,0,1,1.54-1.58c.2-.16.62-.07.94-.1l.05.13-2.36,1.76Z"/><path class="cls-1" d="M137.53,38.74a10.33,10.33,0,0,0,.26-1.25c.06-.62.41-.62.9-.5-.17.49-.34,1-.48,1.45S137.9,38.85,137.53,38.74Z"/><path class="cls-1" d="M115.15,37.24c.73-.13,1,.11,1.76,1.32C116.45,38.63,115.62,38,115.15,37.24Z"/><path class="cls-1" d="M99.72,21.88h.92v.9h-.92Z"/></g></g></svg>