<svg id="Layer_1" data-name="Layer 1" xmlns="http://www.w3.org/2000/svg" viewBox="0 0 2831.81 694.92"><defs><style>.cls-1{fill:#fff;}</style></defs><title>logo_luminate</title><path class="cls-1" d="M2583.86,197.54c8.78-53.64,39.69-84.32,85.16-84.32,47.52,0,76.09,29.9,80.68,84.32ZM2783.94,91.05C2754.85,61.6,2717.77,46,2669,46,2566,46,2496.73,121.5,2496.73,233.82c0,110.39,68.95,181.73,175.66,181.73,80.84,0,141.41-42.83,158.08-111.76l.78-3.23h-86l-.6,1.79c-9.89,29.67-35.11,45.35-72.94,45.35-52.09,0-83.16-31.24-90-90.39h250.61l.2-2.4c0-.33.69-8.31.69-19.71.72-60.95-16.31-110.79-49.27-144.15" transform="translate(-1.42 -1.2)"/><polygon class="cls-1" points="0 48.85 0 406.26 254.06 406.26 254.06 326.21 89.39 326.21 89.39 48.85 0 48.85"/><path class="cls-1" d="M1109.57,46c-48.84,0-88.79,21.47-113,60.58C974.91,67.51,936.31,46,887.38,46c-43.88,0-80.14,17.61-103.1,49.8V54.12H705.66V407.46H791V198.81c0-47.5,27.78-78.18,70.77-78.18,43.27,0,68.08,30.21,68.08,82.89V407.46h85.36V198.81c0-47.5,27.79-78.18,70.78-78.18,42.84,0,67.41,30.21,67.41,82.89V407.46h85.35V188.71c0-88-49.5-142.67-129.2-142.67" transform="translate(-1.42 -1.2)"/><rect class="cls-1" x="1323.34" y="52.92" width="85.35" height="353.35"/><path class="cls-1" d="M1680.8,46c-46.9,0-82.23,16.88-105.13,50.2V54.12h-78.61V407.46h85.35V205.54c0-53.21,28.41-86.26,74.15-86.26,45.42,0,69.43,29.59,69.43,85.58v202.6h85.35V187.36c0-88.49-48.8-141.32-130.54-141.32" transform="translate(-1.42 -1.2)"/><path class="cls-1" d="M2104.77,243.52v25.32c0,53.17-30.73,84.91-82.23,84.91-35.48,0-59.32-19.51-59.32-48.56s19.22-46.42,55.62-50.59ZM2040.05,46c-91,0-146.64,41.69-156.78,117.4l-.4,3h86l.38-2.16c6.35-36.2,28.85-53.05,70.81-53.05,29.84,0,65.4,10.3,65.4,59.34v17.83L2000.06,198.9c-81.26,8.38-124.22,46.54-124.22,110.33,0,61.61,53.49,106.32,127.18,106.32,46.08,0,82.77-16.23,109.16-48.23v40.14h78V174.57c0-84.09-51.9-128.53-150.08-128.53" transform="translate(-1.42 -1.2)"/><path class="cls-1" d="M2377.57,1.2h-85.35V9.56c0,8.34-2,22.78-11.74,33.16-9.48,10.07-25.84,11.4-31.94,11.4h-12.21V126h55.89V294.43c0,76.59,38.15,117.08,110.34,117.08,18.71,0,30.58-1.21,47-4.78l2.07-.45V335.05l-3.08.57c-7.43,1.34-16.26,2-27.82,2-29,0-43.17-15.66-43.17-47.88V126h74.07V54.12h-74.07Z" transform="translate(-1.42 -1.2)"/><path class="cls-1" d="M539.07,260.08c0,50.36-29.63,82.9-75.49,82.9-39.57,0-61.35-24.18-61.35-68.08V54.12H316.88V285c0,83,45.37,130.54,124.48,130.54,45,0,81.18-18.07,105.12-52.39v44.32h77.94V54.12H539.07Z" transform="translate(-1.42 -1.2)"/><path class="cls-1" d="M104,622.83c0,21-13.54,36.18-44.71,36.18H1.42V533H56c29.13,0,42.68,13.17,42.68,33.39,0,12.44-7.43,22.83-20.79,26.54C95.86,596.85,104,607.06,104,622.83ZM24.43,551v34.7H54.11c13.73,0,21.34-6.86,21.34-17.63,0-11.69-8.53-17.07-22.82-17.07ZM81,621.9c0-13.17-9.83-18.37-24.87-18.37H24.43V641H56C71.56,641,81,635.63,81,621.9Z" transform="translate(-1.42 -1.2)"/><path class="cls-1" d="M201.06,563.08V659H181V645.1c-6.31,10.39-16.52,16.14-29.69,16.14-21.15,0-33.58-12.43-33.58-35.26v-62.9h22.07V623.2c0,12.43,6.13,19.48,17.63,19.48,13.18,0,21.53-9.27,21.53-23.56v-56Z" transform="translate(-1.42 -1.2)"/><path class="cls-1" d="M217.93,535.07c0-7.61,5.75-13.36,13.73-13.36a13.36,13.36,0,1,1,0,26.72C223.68,548.43,217.93,542.49,217.93,535.07Zm2.6,28h22.08V659H220.53Z" transform="translate(-1.42 -1.2)"/><path class="cls-1" d="M284.54,659H262.46V525.42h22.08Z" transform="translate(-1.42 -1.2)"/><path class="cls-1" d="M393.82,525.42V659h-20V642.13c-6.12,12.24-16.88,19.11-31.91,19.11-23,0-43.05-18.56-43.05-50.1,0-31.73,19.11-50.28,42.12-50.28,14.1,0,24.3,5.56,30.8,15.21V525.42Zm-22.08,85.72c0-19.3-10.58-32.28-25.23-32.28-15.41,0-25.24,12.8-25.24,32.28s10.39,32.1,25.24,32.1C361.16,643.24,371.74,631.18,371.74,611.14Z" transform="translate(-1.42 -1.2)"/><path class="cls-1" d="M410.88,535.07c0-7.61,5.75-13.36,13.73-13.36a13.36,13.36,0,1,1,0,26.72C416.63,548.43,410.88,542.49,410.88,535.07Zm2.6,28h22.08V659H413.48Z" transform="translate(-1.42 -1.2)"/><path class="cls-1" d="M540.2,599.08V659H518.12V603.9c0-16.69-7.61-24.3-19.85-24.3-12.06,0-21.15,8.16-21.15,24.49V659H455V563.08h20.23v13.36c6.12-10.39,16.14-15.58,29.69-15.58C525.36,560.86,540.2,573.29,540.2,599.08Z" transform="translate(-1.42 -1.2)"/><path class="cls-1" d="M648.37,563.08v91.29c0,23-13.36,41.75-46.58,41.75-33.95,0-45.09-14.84-46.94-34H578c.93,10.76,7.79,17.44,23.57,17.44s24.67-8.35,24.67-24.31V639.16c-6.68,10.57-17.07,15.4-30.24,15.4-23.56,0-42.67-18-42.67-46.76,0-28.94,18.92-46.94,42.67-46.94,14.29,0,25.23,6.12,31.91,17.07V563.08Zm-22.09,44.54c0-17.63-10.94-28.76-25.23-28.76-15,0-25.6,11.13-25.6,28.94,0,17.63,11.13,28.76,25.6,28.76S626.28,624.87,626.28,607.62Z" transform="translate(-1.42 -1.2)"/><path class="cls-1" d="M702.53,631h21.71c2,9.46,9.09,14.28,21.71,14.28,13,0,19.11-4.82,19.11-11.87,0-6.13-3.34-10.39-13.17-12.06l-20.41-3.71c-18.93-3.72-27.09-12.62-27.09-27.28,0-15.77,13.36-29.5,38.78-29.5,25.23,0,39.33,12.24,42.3,31.73H763.76C762.09,582,755,576.81,743,576.81c-11.69,0-17.81,5.39-17.81,12.25,0,5.57,3.15,9.46,13.54,11.13l20.23,3.53c20.41,3.53,28.2,13.36,28.2,28,0,16-12.62,29.5-41,29.5C718.12,661.24,705.69,649,702.53,631Z" transform="translate(-1.42 -1.2)"/><path class="cls-1" d="M829.62,581.45v45.83c0,9.65,4.46,13.92,12.62,13.92a43.42,43.42,0,0,0,7.79-.56v18.19a53.69,53.69,0,0,1-12.8,1.29c-20.22,0-29.69-11.5-29.69-31.54V581.45h-15.4V563.08h15.4V536h22.08v27.08H850v18.37Z" transform="translate(-1.42 -1.2)"/><path class="cls-1" d="M915,562.9v19.48a50.25,50.25,0,0,0-5.57-.18c-15.4,0-23.19,7.23-23.19,22.45V659H864.13V563.08h20.22v15.78c4.46-10.77,13.18-16.7,24.31-16.7A25.22,25.22,0,0,1,915,562.9Z" transform="translate(-1.42 -1.2)"/><path class="cls-1" d="M919.42,611.33c0-30.81,19.85-50.47,47.69-50.47s47.68,19.66,47.68,50.28c0,30.43-19.85,50.1-47.5,50.1C939.27,661.24,919.42,641.76,919.42,611.33Zm73.1-.19c0-19.3-10-32.1-25.41-32.1-15.59,0-25.61,12.8-25.61,32.29,0,18.92,10.2,31.73,25.61,31.73S992.52,630.25,992.52,611.14Z" transform="translate(-1.42 -1.2)"/><path class="cls-1" d="M1112.94,599.08V659h-22.08V603.9c0-16.69-7.61-24.3-19.86-24.3-12.06,0-21.15,8.16-21.15,24.49V659h-22.08V563.08H1048v13.36c6.13-10.39,16.15-15.58,29.69-15.58C1098.09,560.86,1112.94,573.29,1112.94,599.08Z" transform="translate(-1.42 -1.2)"/><path class="cls-1" d="M1221.1,563.08v91.29c0,23-13.36,41.75-46.57,41.75-34,0-45.09-14.84-46.94-34h23.19c.93,10.76,7.79,17.44,23.56,17.44S1199,671.26,1199,655.3V639.16c-6.68,10.57-17.07,15.4-30.24,15.4-23.57,0-42.68-18-42.68-46.76,0-28.94,18.93-46.94,42.68-46.94,14.28,0,25.23,6.12,31.91,17.07V563.08ZM1199,607.62c0-17.63-11-28.76-25.23-28.76-15,0-25.61,11.13-25.61,28.94,0,17.63,11.13,28.76,25.61,28.76S1199,624.87,1199,607.62Z" transform="translate(-1.42 -1.2)"/><path class="cls-1" d="M1326.48,612.25c0,3.16-.18,5.39-.18,5.39H1256c1.86,18.36,11.88,26.34,25.61,26.34,11.5,0,18.18-5.19,20.78-13h22.27c-4.09,16.88-18.93,30.24-42.87,30.24-30.24,0-47.68-20.23-47.68-49.36,0-31,19.3-51,46.76-51C1310.34,560.86,1326.85,581.27,1326.48,612.25Zm-22.64-9.64c-1.11-16.33-9.64-24.68-23-24.68-12.44,0-21.9,8.16-24.31,24.68Z" transform="translate(-1.42 -1.2)"/><path class="cls-1" d="M1392.34,562.9v19.48a50.15,50.15,0,0,0-5.56-.18c-15.4,0-23.2,7.23-23.2,22.45V659H1341.5V563.08h20.23v15.78c4.45-10.77,13.17-16.7,24.3-16.7A25.22,25.22,0,0,1,1392.34,562.9Z" transform="translate(-1.42 -1.2)"/><path class="cls-1" d="M1434.27,631H1456c2,9.46,9.09,14.28,21.71,14.28,13,0,19.11-4.82,19.11-11.87,0-6.13-3.34-10.39-13.18-12.06l-20.41-3.71c-18.92-3.72-27.08-12.62-27.08-27.28,0-15.77,13.35-29.5,38.77-29.5,25.24,0,39.34,12.24,42.31,31.73H1495.5c-1.67-10.58-8.72-15.78-20.78-15.78-11.69,0-17.81,5.39-17.81,12.25,0,5.57,3.15,9.46,13.54,11.13l20.22,3.53c20.41,3.53,28.21,13.36,28.21,28,0,16-12.62,29.5-41,29.5C1449.86,661.24,1437.42,649,1434.27,631Z" transform="translate(-1.42 -1.2)"/><path class="cls-1" d="M1528.15,611.33c0-30.81,19.85-50.47,47.68-50.47s47.69,19.66,47.69,50.28c0,30.43-19.85,50.1-47.5,50.1C1548,661.24,1528.15,641.76,1528.15,611.33Zm73.1-.19c0-19.3-10-32.1-25.42-32.1-15.58,0-25.6,12.8-25.6,32.29,0,18.92,10.2,31.73,25.6,31.73S1601.25,630.25,1601.25,611.14Z" transform="translate(-1.42 -1.2)"/><path class="cls-1" d="M1633.16,611c0-31.18,19.85-50.1,47.12-50.1,26.72,0,41,14.84,44,35.81h-22.64c-2.22-11.51-9.09-17.63-21.52-17.63-15.22,0-24.68,11.88-24.68,31.73s9.46,32.29,24.68,32.29c12.43,0,19.11-6.13,21.52-17.63h22.45c-3.15,21.34-18,35.81-43.79,35.81C1653,661.24,1633.16,642.13,1633.16,611Z" transform="translate(-1.42 -1.2)"/><path class="cls-1" d="M1735.39,535.07c0-7.61,5.75-13.36,13.73-13.36a13.36,13.36,0,1,1,0,26.72C1741.14,548.43,1735.39,542.49,1735.39,535.07Zm2.59,28h22.08V659H1738Z" transform="translate(-1.42 -1.2)"/><path class="cls-1" d="M1865.82,612.25c0,3.16-.19,5.39-.19,5.39h-70.32c1.86,18.36,11.88,26.34,25.61,26.34,11.5,0,18.18-5.19,20.78-13H1864c-4.08,16.88-18.92,30.24-42.86,30.24-30.24,0-47.68-20.23-47.68-49.36,0-31,19.29-51,46.75-51C1849.68,560.86,1866.19,581.27,1865.82,612.25Zm-22.64-9.64c-1.11-16.33-9.65-24.68-23-24.68-12.43,0-21.89,8.16-24.3,24.68Z" transform="translate(-1.42 -1.2)"/><path class="cls-1" d="M1910.16,581.45v45.83c0,9.65,4.45,13.92,12.61,13.92a43.47,43.47,0,0,0,7.8-.56v18.19a53.83,53.83,0,0,1-12.81,1.29c-20.22,0-29.68-11.5-29.68-31.54V581.45h-15.4V563.08h15.4V536h22.08v27.08h20.41v18.37Z" transform="translate(-1.42 -1.2)"/><path class="cls-1" d="M1942.44,535.07c0-7.61,5.75-13.36,13.73-13.36a13.36,13.36,0,1,1,0,26.72C1948.19,548.43,1942.44,542.49,1942.44,535.07Zm2.59,28h22.08V659H1945Z" transform="translate(-1.42 -1.2)"/><path class="cls-1" d="M2072.87,612.25c0,3.16-.18,5.39-.18,5.39h-70.33C2004.22,636,2014.24,644,2028,644c11.5,0,18.18-5.19,20.78-13H2071c-4.09,16.88-18.93,30.24-42.87,30.24-30.24,0-47.68-20.23-47.68-49.36,0-31,19.3-51,46.76-51C2056.73,560.86,2073.24,581.27,2072.87,612.25Zm-22.64-9.64c-1.11-16.33-9.65-24.68-23-24.68-12.44,0-21.9,8.16-24.31,24.68Z" transform="translate(-1.42 -1.2)"/><path class="cls-1" d="M2082.14,631h21.71c2,9.46,9.09,14.28,21.71,14.28,13,0,19.11-4.82,19.11-11.87,0-6.13-3.34-10.39-13.17-12.06l-20.42-3.71C2092.16,613.92,2084,605,2084,590.36c0-15.77,13.35-29.5,38.77-29.5,25.24,0,39.34,12.24,42.31,31.73h-21.71c-1.67-10.58-8.72-15.78-20.78-15.78-11.69,0-17.81,5.39-17.81,12.25,0,5.57,3.15,9.46,13.54,11.13l20.22,3.53c20.42,3.53,28.21,13.36,28.21,28,0,16-12.62,29.5-41,29.5C2097.73,661.24,2085.29,649,2082.14,631Z" transform="translate(-1.42 -1.2)"/></svg>