<svg xmlns="http://www.w3.org/2000/svg" viewBox="0 0 103.72 46.32"><defs><style>.cls-1{fill:#fff;}</style></defs><title>logo_dataskecth</title><g id="Layer_2" data-name="Layer 2"><g id="Layer_1-2" data-name="Layer 1"><path class="cls-1" d="M10.82,44.86a.57.57,0,0,1,.55.62c0,.59-.57.66-.85.66a1.75,1.75,0,0,1-1.94-1.51c0-.13,0-.22-.1-.22s0,0-.09.07a4.44,4.44,0,0,1-3.55,1.79A4.75,4.75,0,0,1,0,41.18a4.77,4.77,0,0,1,4.83-5A4.3,4.3,0,0,1,8.2,37.66c.11.15.17.26.21.26s.07-.11.07-.39c0-1.08,0-2.59,0-3.83,0-1.45,0-1.81-.86-1.81l-.34,0h0a.55.55,0,0,1-.6-.55.64.64,0,0,1,.66-.64l.71,0a1.55,1.55,0,0,1,1.7,1.77v.08c0,1.79,0,5.24,0,8.16V43.6c0,1,.36,1.28.83,1.28l.28,0ZM8.48,41.18a3.63,3.63,0,0,0-3.6-3.94c-2.15,0-3.62,1.49-3.62,3.94S2.75,45.1,4.88,45.1A3.65,3.65,0,0,0,8.48,41.18Z"/><path class="cls-1" d="M20.06,44.71c0-.06,0-.11-.08-.11a.11.11,0,0,0-.09.07,3.94,3.94,0,0,1-3.23,1.64,3.18,3.18,0,0,1-3.46-2.94,2.85,2.85,0,0,1,2.28-2.64,33.72,33.72,0,0,1,3.94-.88c.26,0,.34-.1.34-.25s0-.24,0-.34c0-1.17-.49-2.09-2.21-2.09a3.36,3.36,0,0,0-2.49,1,.61.61,0,0,1-.45.22.58.58,0,0,1-.6-.58c0-.81,1.79-1.72,3.62-1.72,2,0,3.33.87,3.33,3.25,0,.2,0,.39,0,.6-.07.7-.11,1.81-.11,2.62,0,1.55.15,2.07,1,2.36a.54.54,0,0,1,.36.54.57.57,0,0,1-.57.59A1.82,1.82,0,0,1,20.06,44.71Zm-.32-3.26v-.28c0-.17-.06-.23-.21-.23h-.06c-3.35.53-5.12,1-5.12,2.45a2,2,0,0,0,2.28,1.79C17.72,45.18,19.74,44.73,19.74,41.45Z"/><path class="cls-1" d="M27.15,37.47c-.34,0-.34,0-.34.29,0,.81-.06,3-.06,4.58s0,2.79,1.7,2.79c.19,0,.39,0,.6,0h.08a.54.54,0,0,1,.52.55c0,.56-.51.66-1.37.66-2.72,0-2.72-2.32-2.72-3.25,0-1.37,0-4,0-5V37.7c0-.21-.07-.23-.21-.23H24.13a.56.56,0,0,1-.6-.58.55.55,0,0,1,.6-.55h1.23c.2,0,.24,0,.24-.21s0-1.11,0-1.86v-.53a.61.61,0,0,1,.62-.62.6.6,0,0,1,.61.66c0,.62,0,2.32,0,2.32,0,.24,0,.24.32.24H29a.54.54,0,0,1,.59.55.55.55,0,0,1-.59.58Z"/><path class="cls-1" d="M38.55,44.71c0-.07,0-.11-.09-.11a.11.11,0,0,0-.08.06,3.92,3.92,0,0,1-3.24,1.64,3.17,3.17,0,0,1-3.45-2.94A2.85,2.85,0,0,1,34,40.72a35.11,35.11,0,0,1,3.94-.87c.25,0,.34-.11.34-.26s0-.23,0-.34c0-1.17-.49-2.08-2.22-2.08a3.36,3.36,0,0,0-2.49,1,.59.59,0,0,1-.44.21.58.58,0,0,1-.6-.57c0-.81,1.79-1.73,3.62-1.73s3.32.87,3.32,3.26c0,.19,0,.38,0,.6-.06.7-.1,1.81-.1,2.62,0,1.55.15,2.06,1,2.36a.54.54,0,0,1,.36.53.58.58,0,0,1-.58.6A1.82,1.82,0,0,1,38.55,44.71Zm-.32-3.26v-.28c0-.17-.07-.23-.22-.23H38c-3.34.53-5.11,1-5.11,2.45,0,.89.85,1.78,2.28,1.78C36.2,45.17,38.23,44.73,38.23,41.45Z"/><path class="cls-1" d="M49.09,36.65c0,.45,0,.75,0,1.07s0,.62,0,1.1v0a.53.53,0,0,1-.53.51.55.55,0,0,1-.6-.56c0-1.7-1.9-1.7-2-1.7-1.11,0-1.73.66-1.73,1.37a1.63,1.63,0,0,0,1,1.4c.59.28,1.61.7,2.27,1a3.06,3.06,0,0,1,1.9,2.64c0,1.17-.94,2.75-3.36,2.75a3.34,3.34,0,0,1-2.13-.7s-.11-.09-.15-.09-.07,0-.07.11c0,.53-.25.6-.51.6a.51.51,0,0,1-.55-.51v0c0-.46,0-.78,0-1.1s0-.64,0-1.15v0a.56.56,0,0,1,.59-.55.55.55,0,0,1,.58.57c0,.15,0,.26,0,.41,0,.7,1.06,1.4,2.28,1.4s2.12-.61,2.12-1.64-.93-1.64-3.4-2.66A2.48,2.48,0,0,1,46,36.1a3.48,3.48,0,0,1,1.87.57.15.15,0,0,0,.13,0c.11,0,.08-.2.11-.26a.47.47,0,0,1,.48-.34.5.5,0,0,1,.54.51Z"/><path class="cls-1" d="M61,46c-.56,0-1.07,0-1.54,0s-.93,0-1.42,0h0a.54.54,0,0,1-.57-.55.5.5,0,0,1,.57-.56c.56,0,.56-.12.56-.15a.15.15,0,0,0,0-.08C57.42,43.57,55.67,42,55,41.27a.77.77,0,0,0-.64-.25c-.32,0-.34.19-.34,1.3,0,.51,0,1.19,0,2.21a.33.33,0,0,0,.36.36,5.82,5.82,0,0,0,.6,0h0A.58.58,0,1,1,55,46h0c-.55,0-1.11,0-1.66,0s-1,0-1.53,0a.55.55,0,0,1-.64-.55.58.58,0,0,1,.61-.6h0c.25,0,.29,0,.63,0a.33.33,0,0,0,.37-.36c0-2.24.06-5.11.06-7.71,0-1.49,0-2.92,0-4.07,0-.59-.17-.83-.71-.85h-.49a.58.58,0,0,1-.59-.59c0-.56.38-.62,1.13-.62,1.74,0,1.89,1.13,1.89,1.59,0,2.75,0,7.27,0,7.27a.32.32,0,0,0,.36.34c.24,0,.32,0,3.69-2.35.06,0,.08-.08.08-.1s0-.07-.15-.07c-.38,0-.89,0-.89-.51a.54.54,0,0,1,.57-.55h0c.53,0,1,0,1.49,0s1,0,1.53,0a.52.52,0,0,1,.62.55.57.57,0,0,1-.6.56h0c-.3,0-.13,0-.43,0a1,1,0,0,0-.53.2c-1.25.85-2.89,2-3.94,2.64-.13.08-.17.15-.17.21s.56.66,4.41,4.2a.8.8,0,0,0,.62.25l.32,0a.52.52,0,0,1,.59.55.56.56,0,0,1-.59.6Z"/><path class="cls-1" d="M68.09,46.3a4.77,4.77,0,0,1-4.82-5A4.87,4.87,0,0,1,68,36.12a4,4,0,0,1,4.2,3.49c0,.79-.47,1.38-1.56,1.42-.49,0-1.21,0-2,0l-3.88,0c-.21,0-.25.08-.25.38a3.48,3.48,0,0,0,3.58,3.75,3.79,3.79,0,0,0,3.08-1.41.6.6,0,0,1,.43-.19.65.65,0,0,1,.64.62C72.26,44.68,70.77,46.3,68.09,46.3Zm0-9.12A3.45,3.45,0,0,0,64.7,39.8c0,.21.19.21,2.66.21,1.11,0,2.3,0,2.9,0s.7-.25.7-.6A2.68,2.68,0,0,0,68,37.18Z"/><path class="cls-1" d="M77.48,37.46c-.35,0-.35,0-.35.29,0,.81-.06,3-.06,4.58s.05,2.79,1.71,2.79c.19,0,.38,0,.59,0h.09a.53.53,0,0,1,.51.55c0,.56-.51.66-1.36.66-2.73,0-2.73-2.32-2.73-3.25,0-1.37,0-4,0-5v-.34c0-.21-.06-.23-.21-.23H74.45a.56.56,0,0,1-.6-.58.55.55,0,0,1,.6-.55h1.24c.19,0,.23,0,.23-.22s0-1.1,0-1.85v-.53a.62.62,0,1,1,1.24,0c0,.62-.05,2.32-.05,2.32,0,.24.05.24.32.24h1.9a.56.56,0,1,1,0,1.12Z"/><path class="cls-1" d="M87,46.27a4.84,4.84,0,0,1-5-5,4.83,4.83,0,0,1,7.2-4.58.16.16,0,0,0,.11.05c.06,0,.08-.13.1-.24s.28-.36.51-.36a.55.55,0,0,1,.62.53v0c0,.44,0,.76,0,1.1s0,.66,0,1.15V39a.55.55,0,0,1-.62.53.56.56,0,0,1-.59-.51c0-.45,0-.71-.22-1a2.79,2.79,0,0,0-2.17-.88,3.77,3.77,0,0,0-3.7,4,3.72,3.72,0,0,0,3.7,4,3.36,3.36,0,0,0,2.73-1.24.66.66,0,0,1,1.23.34C90.89,44.84,89.3,46.27,87,46.27Z"/><path class="cls-1" d="M103.08,46c-.56,0-1.11,0-1.66,0s-1,0-1.54,0a.55.55,0,0,1-.64-.55.59.59,0,0,1,.62-.6h0c.28,0,.3,0,.64,0a.33.33,0,0,0,.34-.36c0-.7,0-1.51,0-2.3,0-1.11,0-2.11,0-2.51a2.4,2.4,0,0,0-2.45-2.52A3.11,3.11,0,0,0,95.22,40c0,.4,0,1,0,1.81s0,1.72,0,2.72a.32.32,0,0,0,.36.36,5.82,5.82,0,0,0,.6,0,.58.58,0,1,1,0,1.15h0c-.56,0-1.13,0-1.66,0S93.45,46,93,46a.55.55,0,0,1-.64-.55.59.59,0,0,1,.62-.6h0l.68,0a.32.32,0,0,0,.34-.36c0-1.72,0-4.41,0-7,0-1.81,0-3.54,0-4.82,0-.55-.17-.85-.72-.87l-.47,0h0a.58.58,0,0,1-.6-.59c0-.37.17-.64,1.09-.64a4.73,4.73,0,0,1,.53,0,1.49,1.49,0,0,1,1.45,1.62v1.21c0,1.73,0,3.64,0,3.94,0,.07,0,.11,0,.11s0,0,.08-.07a4,4,0,0,1,3.16-1.44,3.36,3.36,0,0,1,3.55,3.4c0,.9.05,3.35.05,5,0,.23.1.38.36.38s.3,0,.6,0h0a.58.58,0,1,1,0,1.15Z"/><path class="cls-1" d="M71.48,17.46l-6.74-4.57V2.13A2.13,2.13,0,0,0,62.61,0H43.14A2.14,2.14,0,0,0,41,2.13V16.3a2.13,2.13,0,0,0,2.13,2.12h9.2l-3.47,3.5a.51.51,0,0,0,0,.74.5.5,0,0,0,.37.16.57.57,0,0,0,.38-.16l3.26-3.28,3.26,3.28a.54.54,0,0,0,.37.16.49.49,0,0,0,.37-.16.52.52,0,0,0,0-.74l-3.47-3.49h9.19a2.12,2.12,0,0,0,2.13-2.12V14.17l6.15,4.16a.45.45,0,0,0,.29.09.53.53,0,0,0,.3-1Zm-7.79-5.29L60.07,9.72a.53.53,0,0,0-.73.14.54.54,0,0,0,.14.74l4.21,2.85V16.3a1.07,1.07,0,0,1-1.08,1.07H43.14a1.07,1.07,0,0,1-1.07-1.07V2.13a1.07,1.07,0,0,1,1.07-1.07H62.61a1.07,1.07,0,0,1,1.08,1.07Z"/></g></g></svg>