<svg xmlns="http://www.w3.org/2000/svg" viewBox="0 0 33.23 33.24"><defs><style>.cls-1{fill:#fff;}</style></defs><title>mail_w</title><g id="Layer_2" data-name="Layer 2"><g id="Layer_1-2" data-name="Layer 1"><path class="cls-1" d="M17.1,19.74a.69.69,0,0,1-1,0l-2.53-2.53-6,6H25.69l-6.05-6Z"/><polygon class="cls-1" points="7.05 10.67 7.05 21.78 12.61 16.23 7.05 10.67"/><polygon class="cls-1" points="24.9 9.99 8.32 9.99 16.61 18.27 24.9 9.99"/><path class="cls-1" d="M33,14.14a16.32,16.32,0,0,0-5.47-10,16.38,16.38,0,0,0-8.67-4c-.39-.06-.79-.1-1.18-.15H15.51l-1.4.19A16.35,16.35,0,0,0,3.2,6.82,16.18,16.18,0,0,0,.15,14.29L0,15.51v2.21c.06.47.12.94.19,1.4A16.4,16.4,0,0,0,5.76,29.19a16.28,16.28,0,0,0,8.58,3.89A16.62,16.62,0,0,0,32.73,20.64c.21-.86.29-1.76.43-2.64,0-.1.05-.19.07-.28V15.51C33.17,15.05,33.11,14.59,33,14.14Zm-5.48,9.8a.69.69,0,0,1-.69.7H6.36a.69.69,0,0,1-.69-.7V9.29a.69.69,0,0,1,.69-.69H26.87a.69.69,0,0,1,.69.69Z"/><polygon class="cls-1" points="26.17 21.78 26.17 10.67 20.62 16.23 26.17 21.78"/></g></g></svg>