<svg xmlns="http://www.w3.org/2000/svg" viewBox="0 0 33.24 33.24"><defs><style>.cls-1{fill:#fff;}</style></defs><title>twitter_w</title><g id="Layer_2" data-name="Layer 2"><g id="Layer_1-2" data-name="Layer 1"><path class="cls-1" d="M16.62,0A16.62,16.62,0,1,1,0,16.62,16.65,16.65,0,0,1,16.62,0Zm9.83,9.59-2.18.79a.6.6,0,0,1-.69-.17A4.18,4.18,0,0,0,16.67,14a1.66,1.66,0,0,1,0,.32A12,12,0,0,1,8.07,9.91a4.3,4.3,0,0,0,1.24,5.57l-.06.08-1.77-.49a4.45,4.45,0,0,0,3.25,4.15H9a4.32,4.32,0,0,0,3.9,2.91,8.58,8.58,0,0,1-6.11,1.74l.28.19a11.69,11.69,0,0,0,5.36,1.63,11.31,11.31,0,0,0,6.5-1.42A11.86,11.86,0,0,0,25,13.68a.77.77,0,0,1,.31-.66A7.47,7.47,0,0,0,27,11.17c-.41.13-.75.26-1.11.36s-.72.16-1.09.23A4.82,4.82,0,0,0,26.45,9.59Z"/></g></g></svg>